<?xml version="1.0" encoding="utf-8"?>
<!-- Generator: Adobe Illustrator 21.0.0, SVG Export Plug-In . SVG Version: 6.00 Build 0)  -->
<svg version="1.1" id="Layer_1" xmlns="http://www.w3.org/2000/svg" xmlns:xlink="http://www.w3.org/1999/xlink" x="0px" y="0px"
	 viewBox="0 0 175.6 175.2" style="enable-background:new 0 0 175.6 175.2;" xml:space="preserve">
<style type="text/css">
	.st0{fill:url(#SVGID_1_);}
	.st1{fill:url(#SVGID_2_);}
</style>
<g>
	
		<linearGradient id="SVGID_1_" gradientUnits="userSpaceOnUse" x1="44.5594" y1="170.4822" x2="-47.1421" y2="78.7806" gradientTransform="matrix(0 -1 1 0 -36.8555 86.2924)">
		<stop  offset="0.2416" style="stop-color:#F07854"/>
		<stop  offset="0.7471" style="stop-color:#F5A658"/>
	</linearGradient>
	<path class="st0" d="M171,87.6L171,87.6c0-11.3-9.2-20.5-20.5-20.5L25,67.1c-11.3,0-20.5,9.2-20.5,20.5v0
		c0,11.3,9.2,20.5,20.5,20.5h125.5C161.8,108.1,171,98.9,171,87.6z"/>
	<g>
		
			<linearGradient id="SVGID_2_" gradientUnits="userSpaceOnUse" x1="-38.8767" y1="184.9476" x2="52.8249" y2="93.2461" gradientTransform="matrix(-1 0 0 -1 94.75 226.6806)">
			<stop  offset="0.2416" style="stop-color:#F07854"/>
			<stop  offset="0.7471" style="stop-color:#F5A658"/>
		</linearGradient>
		<path class="st1" d="M87.8,4.3L87.8,4.3c-11.3,0-20.5,9.2-20.5,20.5v125.5c0,11.3,9.2,20.5,20.5,20.5h0c11.3,0,20.5-9.2,20.5-20.5
			V24.8C108.3,13.6,99,4.3,87.8,4.3z"/>
	</g>
</g>
</svg>
