<?xml version="1.0" encoding="utf-8"?>
<!-- Generator: Adobe Illustrator 21.0.0, SVG Export Plug-In . SVG Version: 6.00 Build 0)  -->
<svg version="1.1" id="Layer_1" xmlns="http://www.w3.org/2000/svg" xmlns:xlink="http://www.w3.org/1999/xlink" x="0px" y="0px"
	 viewBox="0 0 175.6 175.2" style="enable-background:new 0 0 175.6 175.2;" xml:space="preserve">
<style type="text/css">
	.st0{fill:url(#SVGID_1_);stroke:url(#SVGID_2_);stroke-width:4;stroke-miterlimit:10;}
	.st1{fill:url(#SVGID_3_);stroke:url(#SVGID_4_);stroke-width:4;stroke-miterlimit:10;}
</style>
<g>
	<linearGradient id="SVGID_1_" gradientUnits="userSpaceOnUse" x1="49.0181" y1="43.0903" x2="126.5336" y2="43.0903">
		<stop  offset="0.2416" style="stop-color:#F07854"/>
		<stop  offset="0.7471" style="stop-color:#F5A658"/>
	</linearGradient>
	<linearGradient id="SVGID_2_" gradientUnits="userSpaceOnUse" x1="47.0181" y1="43.0903" x2="128.5336" y2="43.0903">
		<stop  offset="0.2416" style="stop-color:#F07854"/>
		<stop  offset="0.7471" style="stop-color:#F5A658"/>
	</linearGradient>
	<path class="st0" d="M87.8,81.8c10.6,0,19.9-3.8,27.4-11.4c7.5-7.5,11.4-16.8,11.4-27.4c0-10.6-3.8-19.9-11.4-27.4
		C107.6,8.2,98.4,4.3,87.8,4.3c-10.7,0-19.9,3.8-27.4,11.4S49,32.4,49,43.1c0,10.7,3.8,19.9,11.4,27.4C67.9,78,77.1,81.8,87.8,81.8z
		"/>
	<linearGradient id="SVGID_3_" gradientUnits="userSpaceOnUse" x1="20.6502" y1="129.2407" x2="154.9016" y2="129.2407">
		<stop  offset="0.2416" style="stop-color:#F07854"/>
		<stop  offset="0.7471" style="stop-color:#F5A658"/>
	</linearGradient>
	<linearGradient id="SVGID_4_" gradientUnits="userSpaceOnUse" x1="18.6502" y1="129.2407" x2="156.9016" y2="129.2407">
		<stop  offset="0.2416" style="stop-color:#F07854"/>
		<stop  offset="0.7471" style="stop-color:#F5A658"/>
	</linearGradient>
	<path class="st1" d="M154.6,133.7c-0.2-3.1-0.7-6.6-1.3-10.2c-0.7-3.6-1.5-7.1-2.5-10.2c-1-3.2-2.5-6.5-4.2-9.5
		c-1.8-3.2-3.9-6-6.3-8.3c-2.5-2.4-5.6-4.3-9.1-5.7c-3.5-1.4-7.4-2.1-11.6-2.1c-1.6,0-3.2,0.7-6.3,2.7c-1.9,1.2-4.1,2.7-6.6,4.2
		c-2.1,1.3-5,2.6-8.5,3.7c-3.4,1.1-6.9,1.7-10.4,1.7c-3.4,0-6.9-0.6-10.4-1.7c-3.5-1.1-6.4-2.4-8.5-3.7c-2.4-1.6-4.7-3-6.6-4.2
		c-3.1-2-4.7-2.7-6.3-2.7c-4.2,0-8.1,0.7-11.6,2.1c-3.5,1.4-6.6,3.3-9.1,5.7c-2.4,2.3-4.5,5.1-6.3,8.3c-1.7,3.1-3.2,6.3-4.2,9.5
		c-1,3.1-1.8,6.6-2.5,10.2c-0.6,3.6-1.1,7-1.3,10.2c-0.2,3.1-0.3,6.3-0.3,9.5c0,8.4,2.7,15.2,7.9,20.2c5.2,4.9,12.1,7.5,20.4,7.5
		h77.5c8.4,0,15.2-2.5,20.4-7.5c5.3-5,7.9-11.8,7.9-20.2C154.9,139.9,154.8,136.7,154.6,133.7z"/>
</g>
</svg>
