<?xml version="1.0" encoding="utf-8"?>
<!-- Generator: Adobe Illustrator 21.0.0, SVG Export Plug-In . SVG Version: 6.00 Build 0)  -->
<svg version="1.1" id="Layer_1" xmlns="http://www.w3.org/2000/svg" xmlns:xlink="http://www.w3.org/1999/xlink" x="0px" y="0px"
	 viewBox="0 0 800 800" style="enable-background:new 0 0 800 800;" xml:space="preserve">
<style type="text/css">
	.st0{opacity:0.2;fill:#2E5175;enable-background:new    ;}
	.st1{fill:url(#SVGID_1_);}
	.st2{fill:url(#SVGID_2_);}
	.st3{opacity:0.77;}
	.st4{fill:#D9D9DA;}
	.st5{fill:#EFEFF0;}
	.st6{fill:#B3BDC3;}
	.st7{fill:url(#SVGID_3_);}
	.st8{fill:url(#SVGID_4_);}
	.st9{fill:url(#SVGID_5_);}
	.st10{fill-rule:evenodd;clip-rule:evenodd;fill:#3B405F;}
	.st11{fill-rule:evenodd;clip-rule:evenodd;fill:#101537;}
	.st12{fill-rule:evenodd;clip-rule:evenodd;fill:#FFFFFF;}
	.st13{fill-rule:evenodd;clip-rule:evenodd;fill:#2D304F;}
	.st14{fill-rule:evenodd;clip-rule:evenodd;fill:#FDDDB1;}
	.st15{fill:#FFFFFF;}
	.st16{fill:#D3D3D3;}
	.st17{opacity:0.5;clip-path:url(#SVGID_7_);}
	.st18{fill:#1D263F;}
	.st19{fill:#FABCAC;}
	.st20{fill:#7698FF;}
	.st21{fill:#2D3963;}
	.st22{fill:#B9CBFF;}
	.st23{fill:#E7EEFF;}
	.st24{fill:#9EB6FF;}
	.st25{fill:#BACDFF;}
	.st26{fill:#C9D5FF;}
	.st27{fill:#F1A191;}
	.st28{fill:#E26675;}
	.st29{fill:#AF4658;}
	.st30{opacity:0.2;fill:#231F20;}
	.st31{fill:#BCBCBC;}
	.st32{opacity:0.1;}
	.st33{fill:#231F20;}
	.st34{opacity:0.5;fill:#E26675;}
	.st35{fill:#101537;}
	.st36{fill:#0770AA;}
	.st37{fill:url(#SVGID_8_);}
	.st38{fill:url(#SVGID_9_);}
	.st39{fill:#1C1C1C;}
	.st40{fill:#141414;}
	.st41{fill:#705105;}
	.st42{fill:#303030;}
	.st43{fill:#E2795A;}
	.st44{fill:#424242;}
	.st45{fill:url(#SVGID_10_);}
	.st46{fill:url(#SVGID_11_);}
	.st47{fill:#2D2D2D;}
	.st48{fill:url(#SVGID_12_);}
	.st49{fill:url(#SVGID_13_);}
	.st50{fill:url(#SVGID_14_);}
	.st51{fill:url(#SVGID_15_);}
	.st52{fill:url(#SVGID_16_);}
	.st53{fill:url(#SVGID_17_);}
	.st54{fill:url(#SVGID_18_);}
	.st55{fill:url(#SVGID_19_);}
	.st56{fill:url(#SVGID_20_);}
	.st57{fill:url(#SVGID_21_);}
	.st58{fill:url(#SVGID_22_);}
	.st59{fill:url(#SVGID_23_);}
	.st60{fill-rule:evenodd;clip-rule:evenodd;fill:url(#SVGID_24_);}
	.st61{font-family:'Helvetica-Bold';}
	.st62{font-size:34.879px;}
	.st63{fill-rule:evenodd;clip-rule:evenodd;fill:url(#SVGID_25_);}
	.st64{fill:url(#SVGID_26_);}
	.st65{fill:url(#SVGID_27_);}
	.st66{fill:url(#SVGID_28_);}
	.st67{fill:url(#SVGID_29_);}
</style>
<path class="st0" d="M670.9,719c-45-2.6-90.2-3.9-135.3-4.6c6.7-1.8,6.8-7.4-1.5-8.1c-3.8-0.3-7.9-0.6-12.2-0.8
	c-2-0.4-4.2-0.5-6.5-0.5c-0.9,0-1.8,0-2.8,0.1c-30.9-1.3-72.2-1.1-112.7-0.7c-40.5-0.4-81.7-0.6-112.7,0.7c-0.9,0-1.9,0-2.8-0.1
	c-2.3,0-4.4,0.1-6.5,0.5c-4.3,0.2-8.4,0.5-12.2,0.8c-8.2,0.7-8.2,6.3-1.5,8.1c-45.1,0.7-90.4,1.9-135.3,4.6
	c-17.9,1.1-19.2,16.8-1.1,17.1c62,1.3,124.7,0,187-1.8c14-0.4,156-0.4,170,0c62.3,1.9,125,3.1,187,1.8
	C690.1,735.8,688.8,720.1,670.9,719z"/>
<linearGradient id="SVGID_1_" gradientUnits="userSpaceOnUse" x1="229.6" y1="167.35" x2="240.7337" y2="167.35" gradientTransform="matrix(1 0 0 -1 0 800)">
	<stop  offset="0" style="stop-color:#FDDEDC"/>
	<stop  offset="1" style="stop-color:#FDBCB8"/>
</linearGradient>
<polygon class="st1" points="229.6,628.6 232,627.4 240.7,635.4 239.6,637.9 "/>
<linearGradient id="SVGID_2_" gradientUnits="userSpaceOnUse" x1="555.3315" y1="176.9" x2="566.6127" y2="176.9" gradientTransform="matrix(1 0 0 -1 0 800)">
	<stop  offset="0" style="stop-color:#FDDEDC"/>
	<stop  offset="1" style="stop-color:#FDBCB8"/>
</linearGradient>
<polyline class="st2" points="555.3,625.8 556.4,628.4 566.6,619 564.2,617.8 "/>
<g>
	<g>
		<g>
			<g class="st3">
				<rect x="517.4" y="146.3" class="st4" width="187" height="340.7"/>
				<rect x="517.4" y="67.9" class="st4" width="187" height="45.2"/>
				<rect x="95.2" y="67.9" class="st4" width="188.5" height="45.2"/>
				<rect x="95.2" y="146.3" class="st4" width="188.5" height="340.7"/>
				<rect x="307.1" y="67.9" class="st4" width="187" height="45.2"/>
				<rect x="307.1" y="146.3" class="st4" width="187" height="340.7"/>
			</g>
			<polygon class="st5" points="283.5,113 283.5,68 190.2,68 145.1,113 			"/>
			<polygon class="st5" points="111.9,146.3 95.9,162.3 95.9,330.5 280.1,146.3 			"/>
			<polygon class="st5" points="283.5,211.5 95.9,399.1 95.9,486.4 159.1,486.4 283.5,362.1 			"/>
			<polygon class="st5" points="313.4,113 358.4,68 306.5,68 306.5,113 			"/>
			<polygon class="st5" points="494.1,113 494.1,68 427,68 381.9,113 			"/>
			<polygon class="st5" points="348.7,146.3 306.5,188.5 306.5,339.1 494.1,151.4 494.1,146.3 			"/>
			<polygon class="st5" points="494.1,261.5 306.5,449.2 306.5,486.4 376.2,486.4 494.1,368.5 			"/>
			<polygon class="st5" points="532.5,113 577.6,68 517.1,68 517.1,113 			"/>
			<polygon class="st5" points="609.4,146.3 517.1,238.5 517.1,345.5 704.8,157.9 704.8,146.3 			"/>
			<polygon class="st5" points="704.8,113 704.8,68 687.7,68 642.6,113 			"/>
			<polygon class="st5" points="704.8,380.1 598.5,486.4 704.8,486.4 			"/>
			<polygon class="st5" points="704.8,243 517.1,430.7 517.1,486.4 552.8,486.4 704.8,334.4 			"/>
		</g>
		<g>
			<rect x="56.9" y="475.9" class="st6" width="686.2" height="20.8"/>
		</g>
	</g>
	
		<linearGradient id="SVGID_3_" gradientUnits="userSpaceOnUse" x1="-5408.3198" y1="-3653.4897" x2="-5284.1157" y2="-3653.4897" gradientTransform="matrix(0.8345 -0.5511 0.5511 0.8345 6763.4873 405.5558)">
		<stop  offset="0" style="stop-color:#FDDEDC"/>
		<stop  offset="1" style="stop-color:#FDBCB8"/>
	</linearGradient>
	<path class="st7" d="M340.8,277.1c0,0-25.4,15.9-45.6,28.7c-13.5,8.5-24.7,15.5-24.7,15.5c-7.4-10.5-13.8-22.3-20.6-33.7
		c-10.8,6.7-21.4,13.7-32.2,20.8c15.9,19.2,41,52.5,45.1,52.5s21.7-19.1,43.5-38.2c22-19.4,44.1-38.8,44.1-38.8L340.8,277.1z"/>
	
		<linearGradient id="SVGID_4_" gradientUnits="userSpaceOnUse" x1="-5282.9824" y1="-3619.686" x2="-5270.1611" y2="-3639.1013" gradientTransform="matrix(0.8345 -0.5511 0.5511 0.8345 6763.4873 405.5558)">
		<stop  offset="0" style="stop-color:#FDDEDC"/>
		<stop  offset="1" style="stop-color:#FDBCB8"/>
	</linearGradient>
	<path class="st8" d="M361.1,279.7l0-2.2c4.2-1.4,8.5-1.5,12.8-0.1c2,0.6,2.6-2.6,0.6-3.2c-5.4-1.7-11-1.4-16.2,0.8l-17.5,2.1
		l0.2,6.9c0.1,2,1,4,2.6,5.2l5.2,4.3l2.7-0.1c0.2,0.1,0.5,0.1,0.8,0c0.1,0,0.2,0,0.3,0l8.2-0.3c2.9,0.4,5.8,1.4,8.5,3
		c1.9,1,3.3-1.9,1.5-3c-3.1-1.8-6.5-2.8-9.9-3.3l0-1.7c4.6-1.3,9.3-1.2,14,0.3c2,0.6,2.6-2.6,0.6-3.2c-4.8-1.5-9.8-1.7-14.6-0.6
		l0-1.5c5.3-2,10.8-2.2,16.3-0.4c2,0.6,2.6-2.6,0.6-3.2C372.3,277.8,366.5,277.8,361.1,279.7z"/>
	
		<linearGradient id="SVGID_5_" gradientUnits="userSpaceOnUse" x1="7572.3525" y1="282.7119" x2="7594.4609" y2="282.7119" gradientTransform="matrix(-1 0 0 1 7935.3501 0)">
		<stop  offset="0" style="stop-color:#FDDEDC"/>
		<stop  offset="1" style="stop-color:#FDBCB8"/>
	</linearGradient>
	<path class="st9" d="M341,281.7c0,0-0.3,4.7,6.1,4.7c6.4,0,4.9-1.7,4.9-1.7l6,0.6l2.4,3.5c0.5,0.7,1.4,0.8,2,0.3l0,0
		c0.5-0.4,0.7-1.2,0.3-1.8l-3.7-6l-8.7-5.4l-9.5,1.1L341,281.7z"/>
	<g>
		<path class="st10" d="M402.2,392.3c12.2,0,24.4,0,36.7,0c0.3,0,0.6,0.2,0.6,0.5l6.6,45c0,0.3-0.2,0.5-0.5,0.5
			c-28.4,0-21.7,0-50.1,0c-0.3,0-0.5-0.2-0.5-0.5l6.6-45C401.6,392.5,401.9,392.3,402.2,392.3z"/>
		<path class="st10" d="M326,286.8h188.7c1.5,0,2.8,1.2,2.8,2.8v120c0,1.5-1.2,2.8-2.8,2.8H326c-1.5,0-2.8-1.2-2.8-2.8v-120
			C323.2,288.1,324.5,286.8,326,286.8z"/>
		<path class="st11" d="M328,290.4h185c1,0,1.8,0.8,1.8,1.8v107.6c0,0.6-0.5,1.1-1.1,1.1H327.3c-0.6,0-1.1-0.5-1.1-1.1V292.2
			C326.2,291.2,327,290.4,328,290.4z"/>
		<rect x="331.4" y="295.5" class="st12" width="178.3" height="100.3"/>
		<path class="st13" d="M435,417.2l1.7,12.3h8l-2.4-17.1h-41.1h-2.3l-0.6,4.3c0.8,0,1.5,0,2.3,0c11.3,0,22.5,0,33.8,0
			C434.6,416.7,434.9,416.9,435,417.2z"/>
		<line class="st14" x1="332.5" y1="343.2" x2="330.7" y2="346.5"/>
		<g>
			<g>
				<path class="st4" d="M447.3,395.8h-108c-0.9,0-1.7-0.8-1.7-1.7v-17.6c0-0.9,0.8-1.7,1.7-1.7h108c0.9,0,1.7,0.8,1.7,1.7v17.6
					C449,395.1,448.2,395.8,447.3,395.8z"/>
				<g>
					<g>
						<rect x="340.8" y="305" class="st15" width="107.5" height="64.9"/>
						<path class="st16" d="M447.5,305.8V369H341.6v-63.2H447.5 M449.1,304.1h-1.7H341.6H340v1.7V369v1.7h1.7h105.9h1.7V369v-63.2
							V304.1L449.1,304.1z"/>
					</g>
					<g>
						<defs>
							<rect id="SVGID_6_" x="341.6" y="305.8" width="105.9" height="63.2"/>
						</defs>
						<clipPath id="SVGID_7_">
							<use xlink:href="#SVGID_6_"  style="overflow:visible;"/>
						</clipPath>
						<g class="st17">
							<path class="st18" d="M427.1,311.9c-2.6-0.6-5.4-0.5-8,0.4c-2.8,1-5.8,3-4.4,7.1c2.3,7-6.4,8.4-6.4,19.8
								c0,11.4,23.2,11.7,30.2,3.7c6.9-8-4.1-13.4-4.4-20C433.8,317.4,432.8,313.2,427.1,311.9z"/>
							<g>
								<polygon class="st19" points="399.8,343.1 399.8,349.8 412.8,344.5 411.2,336.6 								"/>
								<polygon class="st20" points="420.2,331.6 411.2,336.6 412.8,344.5 418.5,342.1 								"/>
							</g>
							<g>
								<polygon class="st21" points="344.6,476.9 342.2,476.9 347.7,406.3 350.1,406.3 								"/>
								<polygon class="st21" points="394.7,476.9 392.4,476.9 397.9,406.3 400.2,406.3 								"/>
								<polygon class="st21" points="421,476.9 418.6,476.9 413.1,406.3 415.5,406.3 								"/>
								<polygon class="st22" points="363.5,406.3 415.5,406.3 408.2,313.2 356.2,313.2 								"/>
								<polygon class="st23" points="401.7,408.4 345.7,408.4 355,313.2 407,313.2 								"/>
							</g>
							<g>
								<g>
									<polygon class="st24" points="399.1,325.4 360.7,325.4 361,322.4 399.3,322.4 									"/>
									<g>
										<polygon class="st25" points="398.5,331.6 364.5,331.6 364.8,329.1 398.7,329.1 										"/>
										<polygon class="st25" points="362.5,331.6 360.1,331.6 360.4,329.1 362.7,329.1 										"/>
									</g>
									<g>
										<polygon class="st25" points="398,337.1 364,337.1 364.3,334.6 398.2,334.6 										"/>
										<polygon class="st25" points="362,337.1 359.6,337.1 359.9,334.6 362.2,334.6 										"/>
									</g>
								</g>
								<g>
									<polygon class="st24" points="397.3,343.6 359,343.6 359.2,340.6 397.6,340.6 									"/>
									<g>
										<polygon class="st25" points="396.8,349.8 362.8,349.8 363,347.3 397,347.3 										"/>
										<polygon class="st25" points="360.8,349.8 358.4,349.8 358.6,347.3 361,347.3 										"/>
									</g>
									<g>
										<polygon class="st25" points="396.2,355.3 362.3,355.3 362.5,352.8 396.5,352.8 										"/>
										<polygon class="st25" points="360.3,355.3 357.9,355.3 358.1,352.8 360.5,352.8 										"/>
									</g>
									<g>
										<polygon class="st25" points="395.7,360.8 361.8,360.8 362,358.3 396,358.3 										"/>
										<polygon class="st25" points="359.8,360.8 357.4,360.8 357.6,358.3 360,358.3 										"/>
									</g>
								</g>
							</g>
							<path class="st20" d="M425.3,330.6c-6.6-0.1-12.4,5.1-12.8,12.1c0,0.3,0,0.7,0,1c0,9.6,3,21.8,3,21.8l15.3,0.2l3.5-26.1
								c0.4-4.5-2.8-8.5-7.1-8.9C426.6,330.7,425.9,330.6,425.3,330.6z"/>
							<path class="st26" d="M421,330.6c0,0-2.3,0.5-2.3,3c0,2.8,3.6,1,3.6,1s0.8,2.5,3.4,1.2c2.6-1.2,4.2-5.5,1.3-5.9
								c-2.9-0.4-5.8,0.7-5.8,0.7"/>
							<path class="st19" d="M423,334h0.2c2,0,3.7-1.7,3.7-3.7v-5.5h-6v7.2C421,333,421.9,334,423,334z"/>
							<g>
								<path class="st19" d="M423.2,328.7L423.2,328.7c-3,0-5.5-2.5-5.5-5.5v-3.9c0-3,2.5-5.5,5.5-5.5l0,0c3,0,5.5,2.5,5.5,5.5v3.9
									C428.7,326.2,426.2,328.7,423.2,328.7z"/>
								<ellipse class="st19" cx="428.7" cy="321.7" rx="1.6" ry="1.8"/>
							</g>
							<path class="st19" d="M413.2,372.8c0,0-0.4,20.3-0.4,53.9c0,33.6,1.1,47.2,1.1,47.2s-7.3,0.4-7.3,3c9,0,10.4,0,10.4,0
								l8.7-104.2H413.2z"/>
							<path class="st19" d="M418.7,372.8c4.9,42,8.7,73,15.7,101.2c0,0-7.3,0.4-7.3,3c9,0,10.4,0,10.4,0l-5.2-104.2H418.7z"/>
							<path class="st18" d="M430.8,365.7l-15.3-0.2c0,0-8.9,15.4-3,56.1c23.9,0,22.2,0.2,22.2,0.2S442.4,387,430.8,365.7z"/>
							<path class="st18" d="M414.7,317.6c0,0,2.5,4.8,11.6-1.2C435.4,310.4,413.9,311.9,414.7,317.6z"/>
							<path class="st27" d="M428.5,320.6c0,0-0.6,0-0.6,1c0.6,0,0.6,0.8,0.6,0.8s0.8-0.1,0.8-1
								C429.3,320.6,428.5,320.6,428.5,320.6z"/>
							<path class="st20" d="M412.3,474.1v1.6h4.7v1.2h-10.5C406.6,476.9,406.3,474.1,412.3,474.1z"/>
							<path class="st20" d="M432.7,474.1v1.6h4.7l0.1,1.2h-10.5C426.9,476.9,426.7,474.1,432.7,474.1z"/>
							<path class="st20" d="M431.8,333.2c-3.2-1.9-5.4,4-6.8,10.8l8.9,2.4C434.7,340.2,434.4,334.7,431.8,333.2z"/>
							<path class="st19" d="M425,344c-1.6,7.5-2.3,16-2.3,16s-15.7-4.9-21.2-6l-0.9-0.6c-0.9-0.6-1.9-1.2-2.9-1.6
								c-0.7-0.3-1.5-0.5-1.7-0.3c-0.4,0.4,0.6,0.8,1.1,1.1c-0.1,0-0.2,0-0.3,0c-1.2-0.2-4.4-0.7-4.7-0.1c-0.5,1,2.6,4.1,8.6,3.8
								c0,0,15.6,8.4,22.6,10.4c4.4,1.2,9.2-10.4,10.6-20.4L425,344z"/>
						</g>
					</g>
					<g>
						<ellipse class="st15" cx="394.6" cy="336" rx="16.7" ry="17.6"/>
						<polygon class="st28" points="389.5,336 389.5,326.6 397.2,331.3 405,336 397.2,340.7 389.5,345.4 						"/>
					</g>
					<rect x="341.6" y="361.7" class="st4" width="105.9" height="8.1"/>
					<rect x="341.6" y="364.3" class="st28" width="105.9" height="2.9"/>
					<rect x="341.6" y="364.3" class="st29" width="34" height="2.9"/>
					<path class="st30" d="M413.6,378.7h-71.2c-0.7,0-1.3,0.6-1.3,1.3v2.8c0,0.7,0.6,1.3,1.3,1.3h71.2c0.7,0,1.3-0.6,1.3-1.3V380
						C414.9,379.3,414.3,378.7,413.6,378.7z"/>
					<circle class="st31" cx="377.3" cy="365.7" r="2.7"/>
				</g>
				<path class="st4" d="M501.9,395.8h-44.5c-0.7,0-1.3-0.6-1.3-1.3v-87.5c0-0.7,0.6-1.3,1.3-1.3h44.5c0.7,0,1.3,0.6,1.3,1.3v87.5
					C503.1,395.3,502.6,395.8,501.9,395.8z"/>
				<path class="st4" d="M448.5,395.8H338.1c-0.3,0-0.5-0.2-0.5-0.5V392c0-0.3,0.2-0.5,0.5-0.5h110.3c0.3,0,0.5,0.2,0.5,0.5v3.3
					C449,395.6,448.7,395.8,448.5,395.8z"/>
			</g>
			<rect x="331.4" y="295.5" class="st28" width="178.3" height="4.8"/>
			<g class="st32">
				<rect x="460.3" y="310.8" class="st33" width="38.7" height="2.9"/>
				<g>
					<rect x="464.7" y="317.3" class="st33" width="34.3" height="2.4"/>
					<rect x="460.3" y="317.3" class="st33" width="2.4" height="2.4"/>
				</g>
				<g>
					<rect x="464.7" y="322.6" class="st33" width="34.3" height="2.4"/>
					<rect x="460.3" y="322.6" class="st33" width="2.4" height="2.4"/>
				</g>
				<g>
					<rect x="464.7" y="327.8" class="st33" width="34.3" height="2.4"/>
					<rect x="460.3" y="327.8" class="st33" width="2.4" height="2.4"/>
				</g>
			</g>
			<g class="st32">
				<rect x="460.3" y="335.1" class="st33" width="38.7" height="2.9"/>
				<g>
					<rect x="464.7" y="341.5" class="st33" width="34.3" height="2.4"/>
					<rect x="460.3" y="341.5" class="st33" width="2.4" height="2.4"/>
				</g>
				<g>
					<rect x="464.7" y="346.8" class="st33" width="34.3" height="2.4"/>
					<rect x="460.3" y="346.8" class="st33" width="2.4" height="2.4"/>
				</g>
				<g>
					<rect x="464.7" y="352.1" class="st33" width="34.3" height="2.4"/>
					<rect x="460.3" y="352.1" class="st33" width="2.4" height="2.4"/>
				</g>
			</g>
			<g class="st32">
				<rect x="460.3" y="359.3" class="st33" width="38.7" height="2.9"/>
				<g>
					<rect x="464.7" y="365.8" class="st33" width="34.3" height="2.4"/>
					<rect x="460.3" y="365.8" class="st33" width="2.4" height="2.4"/>
				</g>
				<g>
					<rect x="464.7" y="371" class="st33" width="34.3" height="2.4"/>
					<rect x="460.3" y="371" class="st33" width="2.4" height="2.4"/>
				</g>
				<g>
					<rect x="464.7" y="376.3" class="st33" width="34.3" height="2.4"/>
					<rect x="460.3" y="376.3" class="st33" width="2.4" height="2.4"/>
				</g>
			</g>
			<path class="st34" d="M489.6,383.6h-20c-1.7,0-3.1,1.4-3.1,3.1l0,0c0,1.7,1.4,3.1,3.1,3.1h20c1.7,0,3.1-1.4,3.1-3.1l0,0
				C492.7,385,491.4,383.6,489.6,383.6z"/>
			<g>
				<rect x="460.3" y="335.1" class="st30" width="38.7" height="2.9"/>
				<rect x="460.3" y="341.5" class="st30" width="2.4" height="2.4"/>
				<rect x="460.3" y="346.8" class="st30" width="2.4" height="2.4"/>
				<rect x="460.3" y="352.1" class="st30" width="2.4" height="2.4"/>
				<rect x="460.3" y="310.8" class="st30" width="38.7" height="2.9"/>
				<rect x="460.3" y="317.3" class="st30" width="2.4" height="2.4"/>
				<rect x="460.3" y="322.6" class="st30" width="2.4" height="2.4"/>
				<rect x="460.3" y="327.8" class="st30" width="2.4" height="2.4"/>
				<rect x="460.3" y="359.3" class="st30" width="38.7" height="2.9"/>
				<rect x="460.3" y="365.8" class="st30" width="2.4" height="2.4"/>
				<rect x="460.3" y="371" class="st30" width="2.4" height="2.4"/>
				<rect x="460.3" y="376.3" class="st30" width="2.4" height="2.4"/>
			</g>
		</g>
		<circle class="st30" cx="440.2" cy="389.4" r="4"/>
	</g>
	<path class="st35" d="M447.1,438.3h-54.4c-2.4,0-4.4-2-4.4-4.4l0,0c0-2.4,2-4.4,4.4-4.4h54.4c2.4,0,4.4,2,4.4,4.4l0,0
		C451.5,436.3,449.5,438.3,447.1,438.3z"/>
	<path class="st30" d="M433.7,387.4h-22c-0.3,0-0.6,0.3-0.6,0.6v0.5c0,0.3,0.3,0.6,0.6,0.6h22c0.3,0,0.6-0.3,0.6-0.6V388
		C434.2,387.6,434,387.4,433.7,387.4z"/>
	<path class="st30" d="M433.7,390.2h-22c-0.3,0-0.6,0.3-0.6,0.6v0.5c0,0.3,0.3,0.6,0.6,0.6h22c0.3,0,0.6-0.3,0.6-0.6v-0.5
		C434.2,390.5,434,390.2,433.7,390.2z"/>
	<g>
		<g>
			<g>
				<path class="st36" d="M235.4,268.5c-6.6-6.7-17.7-12.4-27.5-10.6c-14.4,2.6-13.7,15.3-9.1,26.3c2.1,5.1,5.1,9.8,7.8,13.1
					c1.8,2.1,9.9,12,20,24.2c10.8-7.1,21.4-14.1,32.2-20.8C251.9,289.1,244.6,277.9,235.4,268.5z"/>
			</g>
			<g>
				<g>
					
						<linearGradient id="SVGID_8_" gradientUnits="userSpaceOnUse" x1="7259.2241" y1="-1016.7332" x2="7240.6514" y2="-968.3318" gradientTransform="matrix(-0.9816 0.191 0.191 0.9816 7860.3228 -56.9539)">
						<stop  offset="0" style="stop-color:#FDDEDC"/>
						<stop  offset="1" style="stop-color:#FDBCB8"/>
					</linearGradient>
					<path class="st37" d="M521.3,401.6l49.6-15c-0.3-1.7-0.5-3.4-0.8-5.1c-0.6-4.2-1.3-8.5-1.9-12.7c-0.9-5.6-1.7-11.1-2.6-16.7
						c-0.7-4.5-1.3-8.9-2.1-13.4c-0.8-4.5-1.5-9.1-2.1-13.7c-0.3-2.3-0.6-4.6-0.8-6.9c-0.1-1.2-0.2-2.3-0.3-3.5
						c-0.1-0.9,0.1-1.5,0.4-2.3c1.1-3.4,2.9-6.4,5.7-8.6c1-0.8,2-1.5,3.2-2c0.1,0,0.1-0.1,0.2-0.1c2-0.9,4.3-1.5,6.5-1.5
						c2-0.1,4.7,0.1,6.5,1.2c0.8,0.5,1.4,1.3,2.1,1.9c1.3,1.3,2.5,2.8,3.5,4.3c2.2,3.4,3.8,7.2,4.5,11.2c0.4,2.4,0.3,4.7,0.3,7.1
						c0,4.1-0.1,8.1-0.1,12.2c-0.1,5.1-0.1,10.3-0.2,15.4c-0.1,5.4-0.1,10.8-0.2,16.3c-0.1,4.9-0.1,9.8-0.2,14.7
						c0,3.6-0.1,7.1-0.1,10.7c0,1.4,0,2.8,0,4.2c-0.7,3.6-65.3,11.5-65.3,11.5L521.3,401.6z"/>
					
						<linearGradient id="SVGID_9_" gradientUnits="userSpaceOnUse" x1="7292.9971" y1="-941.6563" x2="7327.874" y2="-941.6563" gradientTransform="matrix(-0.9767 -0.2147 -0.2147 0.9767 7444.335 2902.1794)">
						<stop  offset="0" style="stop-color:#FDDEDC"/>
						<stop  offset="1" style="stop-color:#FDBCB8"/>
					</linearGradient>
					<path class="st38" d="M489.1,413.1c4.7-3.2,10-4.7,15.6-4.5l-0.6-2c-4.2-0.2-8.2,1-11.8,3.4c-1.7,1.2-3.1-1.7-1.5-2.8
						c4.5-3,9.7-4.3,15.1-3.6l16.6-2.8l2.5,9.4l-5.4,7.9l-2.5,0.7c-0.2,0.1-0.4,0.2-0.7,0.2c-0.1,0-0.2,0-0.3,0l-7.6,2
						c-2.6,1.2-4.9,2.9-7,5c-1.4,1.5-3.6-0.9-2.1-2.3c2.4-2.5,5.2-4.4,8.2-5.7l-0.5-1.6c-4.6,0.1-8.8,1.4-12.8,4.1
						c-1.7,1.2-3.1-1.7-1.5-2.8c4-2.7,8.5-4.2,13.3-4.5l-0.4-1.4c-5.4-0.4-10.5,0.9-15.1,4C488.9,417.1,487.4,414.3,489.1,413.1z"/>
				</g>
				<path class="st39" d="M559,460.7c-4.3,1.6-47.3,100.3-50.1,109c-2.9,8.6-22.8,120.9-22.8,120.9l12-3.2l29.2-78.6v-34.3l77-90.7
					L559,460.7z"/>
			</g>
			<path class="st33" d="M472.3,704.4l12.9-11.4l13.3-3.3l8.2,12.5l-48.2,16.1c0,0-1.2-1.5,1.5-5.2S472.3,704.4,472.3,704.4z"/>
			<g>
				<g>
					<g>
						<polygon class="st40" points="518,708.8 512.8,709.3 493.9,447.7 499,447.2 						"/>
						<polygon class="st40" points="329,708.8 334.1,709.3 353.1,447.7 347.9,447.2 						"/>
					</g>
					<rect x="308.5" y="438.4" class="st41" width="230.1" height="6.3"/>
					<rect x="329.5" y="444.8" class="st42" width="187.9" height="6.3"/>
					<g>
						<polygon class="st42" points="539.6,729.4 533.3,729.9 510,447.7 516.4,447.2 						"/>
						<polygon class="st42" points="307.4,729.4 313.7,729.9 336.9,447.7 330.6,447.2 						"/>
					</g>
				</g>
			</g>
			<g>
				<path class="st43" d="M575.4,344.9c-6.8-5.8-12.7-12.4-18.6-19c-3.5-4-7.1-7.9-10.6-11.9c-4.3-4.8-8.7-9.7-11.7-15.4
					c-5.1-9.3-6.3-19.9-7.5-30.3c-1.4-12.5-2.8-25-4.2-37.6c-0.3-2.5-0.5-5.1,0.4-7.4c0.9-2.3,3.4-4.4,6-4
					c-4.6-3.5-5.1-10.3-2.3-15.2c2.8-4.9,8.1-8.1,13.6-10.2c17.1-6.8,37.7-5.1,53.2,4.3s25.7,26.4,26.2,43.7
					c0.2,8.2-1.3,17.4,4,23.9c4.8,6,14.5,8.5,16.4,15.8c1.6,6.4-4,12.6-3.7,19.2c0.3,7.5,7.9,12.8,11.9,19.3
					c6.1,10.1,2.9,23.8-6,31.9c-8.9,8.1-22.4,10.8-34.6,8.7C595.6,359.1,584.6,352.8,575.4,344.9z"/>
				<g>
					<g>
						<path class="st44" d="M653.8,713v4.5c0,6.4-22.8,11.6-50.9,11.6c-28.1,0-50.9-5.2-50.9-11.6V713c0-6.4,22.8-11.6,50.9-11.6
							C631,701.4,653.8,706.6,653.8,713z"/>
						
							<linearGradient id="SVGID_10_" gradientUnits="userSpaceOnUse" x1="7281.5879" y1="712.9249" x2="7347.0962" y2="712.9249" gradientTransform="matrix(-1 0 0 1 7935.3501 0)">
							<stop  offset="0" style="stop-color:#159FD5"/>
							<stop  offset="1" style="stop-color:#3F7DBA"/>
						</linearGradient>
						<path class="st45" d="M653.8,713c0-6.4-22.8-11.6-50.9-11.6c-5.1,0-10,0.2-14.6,0.5l22.5,22.5
							C635.1,723.6,653.8,718.8,653.8,713z"/>
						<path class="st36" d="M551.9,713c0,6.4,22.8,11.6,50.9,11.6c2.7,0,5.4,0,8-0.1l-22.5-22.5C567.2,703.3,551.9,707.8,551.9,713z
							"/>
					</g>
					<rect x="599.5" y="483.7" class="st44" width="5.3" height="225.7"/>
					<g>
						<path class="st44" d="M602.4,651.5c-22.7,0-45.6-5.3-45.6-15.6c0-10.2,23-15.6,45.6-15.6c22.7,0,45.6,5.3,45.6,15.6
							C648,646.1,625.1,651.5,602.4,651.5z M602.4,625.2c-24.9,0-40.8,6.4-40.8,10.7s15.9,10.7,40.8,10.7c24.9,0,40.8-6.4,40.8-10.7
							S627.3,625.2,602.4,625.2z"/>
					</g>
					<g>
						<path class="st36" d="M537.7,481.8v16.1c0,6.4,29.1,11.6,65.1,11.6s65.1-5.2,65.1-11.6v-16.1H537.7z"/>
						
							<linearGradient id="SVGID_11_" gradientUnits="userSpaceOnUse" x1="7267.4116" y1="481.7552" x2="7397.6152" y2="481.7552" gradientTransform="matrix(-1 0 0 1 7935.3501 0)">
							<stop  offset="0" style="stop-color:#159FD5"/>
							<stop  offset="1" style="stop-color:#3F7DBA"/>
						</linearGradient>
						<ellipse class="st46" cx="602.8" cy="481.8" rx="65.1" ry="11.6"/>
					</g>
				</g>
				<g>
					<path class="st47" d="M620.1,440c12.1,0.8,24.6-10,33.1-7.9c4.9,1.2,7.5,10.4,7.3,14.2c-0.4,9.6-1.2,22.4-6.7,29.9
						c-15.5,20.7-141.9,36.5-141.9,36.5s21.8,22,26.7,31.3c4.9,9.3,29.2,83.9,29.2,83.9l-8.8,7.9c0,0-83.1-134-82.1-139.3
						S587.3,437.8,620.1,440z"/>
					<path class="st33" d="M554.2,654.6l5.9-16.2l10-9.3l13.2,7l-34.6,37.2c0,0-2.4-0.6-1.2-5.3
						C548.7,663.5,554.2,654.6,554.2,654.6z"/>
				</g>
				
					<linearGradient id="SVGID_12_" gradientUnits="userSpaceOnUse" x1="7331.0532" y1="451.0902" x2="7331.0532" y2="277.3611" gradientTransform="matrix(-1 0 0 1 7935.3501 0)">
					<stop  offset="1.762821e-02" style="stop-color:#A52A7A"/>
					<stop  offset="1" style="stop-color:#CC0A60"/>
				</linearGradient>
				<path class="st48" d="M564.1,299.9c4.9-7.5,6.9-21.2,16.6-22.4c23.1-2.8,35.9,19.8,38.2,38.9c1.5,12.5,2.4,25.1,3.6,37.7
					c0.7,7.6,0.1,18.6,3.9,25.4c6.7,12.1,23,39.2,32.3,54.6c3.1,5.2,4.4,11-1.6,11.4l-81.8,5.4c0,0-2-33.2,0-51.7
					c1.4-13-4-21.1-7.8-33.4c-1.7-5.7-2.3-8.6-6.5-13.3c-4.1-4.5-11.7-9.9-13.2-16.2C544.7,323.1,556.9,311,564.1,299.9z"/>
				<g>
					
						<linearGradient id="SVGID_13_" gradientUnits="userSpaceOnUse" x1="7339.812" y1="254.5686" x2="7395.6396" y2="254.5686" gradientTransform="matrix(-1 0 0 1 7935.3501 0)">
						<stop  offset="0" style="stop-color:#FDDEDC"/>
						<stop  offset="1" style="stop-color:#FDBCB8"/>
					</linearGradient>
					<path class="st49" d="M543.1,248.7c2.9-2.4,3.3-6.7,2.5-10.4c-0.8-3.7-2.1-5.3-2.6-9c-0.5-3.7,2.4-8.7,5.7-10.5
						c0,0,21.3-0.9,25.5,10.3c2.7,7.1,7.7,12.1,7.7,12.1c-0.2-8.9,7.6-6.6,9.5-4.7c1.9,1.9,2.3,5.2,1,7.5c-1.3,2.4-3.9,4.2-6.6,3.9
						l9.8,34c-5.3,3.1-10.8,5.7-16.2,8.5c-1-1.2-9.9-18.7-12.2-18c-4.6,1.3-9,5.6-13.4,3.7c-3.4-1.5-4.2-5.9-4.4-9.6
						c-0.2-3.7-0.8-8.1-4.1-9.8c-2.1-1.1-5.5-1.5-5.6-3.9C539.7,250.8,541.7,249.9,543.1,248.7z"/>
				</g>
				<g>
					
						<linearGradient id="SVGID_14_" gradientUnits="userSpaceOnUse" x1="7452.0518" y1="422.6196" x2="7452.0518" y2="389.7272" gradientTransform="matrix(-0.6522 -0.7581 -0.7581 0.6522 5662.5737 5785.7451)">
						<stop  offset="0" style="stop-color:#FDDEDC"/>
						<stop  offset="1" style="stop-color:#FDBCB8"/>
					</linearGradient>
					<path class="st50" d="M482.5,392.8c-2.1,0.2-2-3.1,0.1-3.3c5.6-0.5,10.9,1,15.4,4.3l16.5,5.8l-2.4,9.7l-8.8,4.5l-2.6-0.7
						c-0.2,0-0.5,0-0.8-0.2c-0.1,0-0.2-0.1-0.2-0.1l-7.9-2c-2.9-0.2-5.9,0.1-8.9,1c-2,0.6-2.8-2.6-0.8-3.2c3.4-1,6.9-1.4,10.2-1
						l0.4-1.7c-4.2-2.2-8.7-3.1-13.6-2.7c-2.1,0.2-2-3.1,0.1-3.3c5-0.5,9.8,0.4,14.2,2.6l0.3-1.4c-4.7-3.1-10-4.4-15.7-3.9
						c-2.1,0.2-2-3.1,0.1-3.3c5.8-0.5,11.4,0.8,16.3,3.7l0.4-2.1C491.1,393.4,486.9,392.4,482.5,392.8z"/>
					
						<linearGradient id="SVGID_15_" gradientUnits="userSpaceOnUse" x1="7320.6953" y1="351.2886" x2="7430.0156" y2="351.2886" gradientTransform="matrix(-1 0 0 1 7935.3501 0)">
						<stop  offset="0" style="stop-color:#FDDEDC"/>
						<stop  offset="1" style="stop-color:#FDBCB8"/>
					</linearGradient>
					<path class="st51" d="M505.3,399.6l76.5-11.2l-1.9-81.9c2.3-10.7,12.1-20.1,22.3-16l0,0c8.8,3.5,14.7,17.4,11.5,26.4
						c0,0-8.5,89.8-11.8,94.5c-3.3,4.7-91.3-2-91.3-2L505.3,399.6z"/>
				</g>
			</g>
			<g>
				<path class="st33" d="M265,206.5c1.7,3.3,6.1,4.9,9.5,3.5c3.4-1.4,5.4-5.7,4.2-9.2c4.3,1.1,9.2-1.9,10.3-6.2
					c1-4.3-2-9.2-6.3-10.2c4.3-3.9,4.9-11.2,1.3-15.8c-3.6-4.6-10.9-5.7-15.7-2.4c0.1-5.3-3.9-10.5-9.1-11.6
					c-5.2-1.1-11,1.8-13.2,6.8c-3.7-3.5-9.6-4.4-14.2-2.3c-4.6,2.1-7.7,7.2-7.5,12.3c-4.2-0.8-8.8,1.1-11.2,4.7
					c-2.4,3.6-2.4,8.5-0.1,12.1c-3.9,0.7-7,4.3-7.2,8.2c-0.2,3.9,2.5,7.8,6.3,8.9c-2.7,1.7-4,5.2-3.2,8.3c0.8,3,3.8,5.4,7,5.5
					c-2,2.1-1.2,5.9,1.1,7.7c2.3,1.9,5.4,2.2,8.4,2.1c2.9-0.1,5.9-0.5,8.8,0.1L265,206.5z"/>
				<g>
					<g>
						<path class="st44" d="M241.7,711.9v4.5c0,6.4-23,11.7-51.3,11.7c-28.3,0-51.3-5.2-51.3-11.7v-4.5c0-6.4,23-11.7,51.3-11.7
							C218.7,700.2,241.7,705.5,241.7,711.9z"/>
						
							<linearGradient id="SVGID_16_" gradientUnits="userSpaceOnUse" x1="7693.6812" y1="711.8269" x2="7759.6382" y2="711.8269" gradientTransform="matrix(-1 0 0 1 7935.3501 0)">
							<stop  offset="1.762821e-02" style="stop-color:#A52A7A"/>
							<stop  offset="1" style="stop-color:#CC0A60"/>
						</linearGradient>
						<path class="st52" d="M241.7,711.9c0-6.4-23-11.7-51.3-11.7c-5.1,0-10,0.2-14.7,0.5l22.7,22.7
							C222.9,722.5,241.7,717.7,241.7,711.9z"/>
						
							<linearGradient id="SVGID_17_" gradientUnits="userSpaceOnUse" x1="7736.9551" y1="712.142" x2="7796.2285" y2="712.142" gradientTransform="matrix(-1 0 0 1 7935.3501 0)">
							<stop  offset="0" style="stop-color:#921468"/>
							<stop  offset="1" style="stop-color:#AD0A60"/>
						</linearGradient>
						<path class="st53" d="M139.1,711.9c0,6.4,23,11.7,51.3,11.7c2.7,0,5.4,0,8-0.1l-22.7-22.7
							C154.6,702.2,139.1,706.6,139.1,711.9z"/>
					</g>
					<path class="st44" d="M189.7,708.3L189.7,708.3c-1.5,0-2.6-1.2-2.6-2.6V481h5.3v224.6C192.4,707.2,191.2,708.3,189.7,708.3z"/>
					<g>
						<path class="st44" d="M189.9,650c-22.8,0-45.9-5.4-45.9-15.7s23.1-15.7,45.9-15.7c22.8,0,45.9,5.4,45.9,15.7
							S212.8,650,189.9,650z M189.9,623.5c-25.1,0-41.1,6.4-41.1,10.8c0,4.4,16,10.8,41.1,10.8c25.1,0,41.1-6.4,41.1-10.8
							C231,629.9,215,623.5,189.9,623.5z"/>
					</g>
					<g>
						
							<linearGradient id="SVGID_18_" gradientUnits="userSpaceOnUse" x1="7676.6084" y1="492.997" x2="7813.3027" y2="492.997" gradientTransform="matrix(-1 0 0 1 7935.3501 0)">
							<stop  offset="0" style="stop-color:#921468"/>
							<stop  offset="1" style="stop-color:#AD0A60"/>
						</linearGradient>
						<path class="st54" d="M122,479.1v16.2c0,6.4,30.6,11.7,68.3,11.7c37.7,0,68.3-5.2,68.3-11.7v-16.2H122z"/>
						
							<linearGradient id="SVGID_19_" gradientUnits="userSpaceOnUse" x1="7676.6084" y1="479.0742" x2="7813.3027" y2="479.0742" gradientTransform="matrix(-1 0 0 1 7935.3501 0)">
							<stop  offset="0" style="stop-color:#C01468"/>
							<stop  offset="1" style="stop-color:#CC0A60"/>
						</linearGradient>
						<ellipse class="st55" cx="190.4" cy="479.1" rx="68.3" ry="11.7"/>
					</g>
				</g>
				<g>
					<g>
						<path class="st39" d="M236.8,415.5c-12.3,0.8-52.1-4.4-60.7-2.3c-5,1.2-7.6,10.6-7.4,14.4c0.4,9.8,1.2,22.7,6.8,30.3
							c15.7,21,135.9,35.9,135.9,35.9l-23,22.5l-25.8,95.3l8.9,8c0,0,84.9-133.9,83.2-141.1s-72.7-38.7-118.3-52.6L236.8,415.5z"/>
						<path class="st33" d="M276.4,638.7l-5.9-16.4l-10.2-9.4L247,620l35.1,37.7c0,0,1.2-1.2,1.2-5.4
							C283.3,648.2,276.4,638.7,276.4,638.7z"/>
					</g>
					<g>
						<path class="st47" d="M209.6,422.2c-12.3,0.8-52.1-4.4-60.7-2.3c-5,1.2-7.6,10.6-7.4,14.4c0.4,9.8,1.2,22.7,6.8,30.3
							c15.7,21,135.9,35.9,135.9,35.9s-20.5,16.9-23,22.5c-2.5,5.6-25.8,95.3-25.8,95.3l8.9,8c0,0,84.5-134.9,83.2-141.1
							c-1.3-6.2-72.7-38.7-118.3-52.6L209.6,422.2z"/>
						<path class="st33" d="M249.2,645.4l-5.9-16.4l-10.2-9.4l-13.4,7.1l35.1,37.7c0,0,3,3.7,1.2-5.4
							C254.2,650,249.2,645.4,249.2,645.4z"/>
					</g>
					<g>
						<g>
							
								<linearGradient id="SVGID_20_" gradientUnits="userSpaceOnUse" x1="-6643.0986" y1="284.4546" x2="-6643.0986" y2="428.6695" gradientTransform="matrix(1 0 0 1 6837.9634 0)">
								<stop  offset="0" style="stop-color:#159FD5"/>
								<stop  offset="1" style="stop-color:#3F7DBA"/>
							</linearGradient>
							<path class="st56" d="M220.2,241.1c-11.3,0.5-21.5,6.8-28.7,14.7c-7.1,8-11.6,17.6-15.7,27.1
								c-14.3,32.9-40.9,140.4-34.2,151.1l96.3-8.7c2.1-12.9,4.9-82.1,9.3-120.2c2-17.7,4.9-37.3-6.8-51.6L220.2,241.1z"/>
							<g>
								<g>
									
										<linearGradient id="SVGID_21_" gradientUnits="userSpaceOnUse" x1="-6625.8384" y1="229.034" x2="-6566.2559" y2="229.034" gradientTransform="matrix(1 0 0 1 6837.9634 0)">
										<stop  offset="0" style="stop-color:#FDDEDC"/>
										<stop  offset="1" style="stop-color:#FDBCB8"/>
									</linearGradient>
									<path class="st57" d="M265.8,194.2c2.8,1.6,3.7,5.3,3.3,8.5c-0.4,3.2-1.9,6.2-2.6,9.4c-0.7,3.2-0.3,6.9,2.2,9
										c1.2,1,3,1.8,3,3.4c0,2.1-3,2.4-4.8,3.4c-2.8,1.5-3.3,5.3-3.5,8.5c-0.2,3.2-0.9,7-3.8,8.3c-3.8,1.7-7.6-2.1-11.6-3.2
										c-3.7-1-7.7,0.5-10.7,2.9c-3,2.4-10.8,16.6-12.8,19.8c-6.7-0.8-12.3-10.5-12.4-20.5l19.8-23.3c-2.3,0.3-4.6-1.3-5.7-3.3
										c-1.1-2.1-0.8-4.8,0.8-6.5c1.6-1.7,8.3-3.7,8.2,4c0,0,4.6-4.3,6.6-10.5C246.2,190.6,265.8,194.2,265.8,194.2z"/>
								</g>
							</g>
							<g>
								<path class="st36" d="M218.8,287.9c-1.8-9.2-7.9-20.1-17.1-24c-13.4-5.7-19.9,5.2-22.1,16.9c-1,5.4-1.2,11-0.7,15.2
									c0.3,3,1.9,18.5,3.9,36.7c12.4-2.9,25.1-5,37.8-6.8C221.2,313.1,221.2,300.2,218.8,287.9z"/>
								
									<linearGradient id="SVGID_22_" gradientUnits="userSpaceOnUse" x1="-6655.127" y1="361.4123" x2="-6531.5205" y2="361.4123" gradientTransform="matrix(1 0 0 1 6837.9634 0)">
									<stop  offset="0" style="stop-color:#FDDEDC"/>
									<stop  offset="1" style="stop-color:#FDBCB8"/>
								</linearGradient>
								<path class="st58" d="M299.8,368.9c0,0-27.7-0.6-51.6-1.2c-15.9-0.4-29.1-0.7-29.1-0.7c-0.4-13.4,0.9-27.3,1.5-41.1
									c-12.7,1.7-25.3,3.8-37.8,6.8c2.6,23.8,1.8,59.4,8.1,63.2c6.3,3.7,28.6-4,57.3-8c29-4,58.2-8.1,58.2-8.1L299.8,368.9z"/>
								
									<linearGradient id="SVGID_23_" gradientUnits="userSpaceOnUse" x1="-6522.1216" y1="396.2966" x2="-6522.1216" y2="368.8898" gradientTransform="matrix(1 0 0 1 6837.9634 0)">
									<stop  offset="0" style="stop-color:#FDDEDC"/>
									<stop  offset="1" style="stop-color:#FDBCB8"/>
								</linearGradient>
								<path class="st59" d="M334.1,383.1c-4.7-3.6-10.1-5.5-15.9-5.6l0.8-2c4.4,0.1,8.5,1.5,12.1,4.3c1.7,1.3,3.4-1.6,1.7-2.8
									c-4.5-3.5-10-5.1-15.7-4.7c0,0-0.1,0-0.1,0l-17.1-3.3l-2.9,8.9l5.1,8.6l2.5,0.8c0.2,0.1,0.5,0.2,0.8,0.3c0.1,0,0.2,0,0.3,0
									l7.8,2.6c2.6,1.4,5,3.3,7,5.7c1.4,1.6,3.8-0.7,2.4-2.3c-2.4-2.7-5.1-4.9-8.2-6.4l0.6-1.6c4.7,0.4,9.1,2,13.1,5.1
									c1.7,1.3,3.4-1.6,1.7-2.8c-4-3.1-8.6-4.9-13.5-5.5l0.5-1.4c5.7-0.1,10.9,1.6,15.5,5.1C334.1,387.2,335.8,384.3,334.1,383.1z
									"/>
							</g>
						</g>
					</g>
				</g>
			</g>
		</g>
	</g>
	<linearGradient id="SVGID_24_" gradientUnits="userSpaceOnUse" x1="574.0496" y1="182.1392" x2="628.1494" y2="182.1392">
		<stop  offset="0" style="stop-color:#159FD5"/>
		<stop  offset="1" style="stop-color:#3F7DBA"/>
	</linearGradient>
	<path class="st60" d="M622.5,159.1h-42.8c-3.1,0-5.7,2.5-5.7,5.7V188v1.7v14.8c0,0.3,0.1,0.5,0.4,0.6c0.2,0.1,0.5,0,0.7-0.1
		l9.6-9.6h37.7c3.1,0,5.7-2.5,5.7-5.7v-25C628.1,161.6,625.6,159.1,622.5,159.1z"/>
	<text transform="matrix(1.0216 -1.346992e-02 1.318383e-02 0.9999 590.0237 190.1079)" class="st15 st61 st62">?</text>
	
		<linearGradient id="SVGID_25_" gradientUnits="userSpaceOnUse" x1="7455.3916" y1="150.9521" x2="7509.4912" y2="150.9521" gradientTransform="matrix(-1 0 0 1 7706.9336 0)">
		<stop  offset="1.762821e-02" style="stop-color:#A52A7A"/>
		<stop  offset="1" style="stop-color:#CC0A60"/>
	</linearGradient>
	<path class="st63" d="M203.1,127.9h42.8c3.1,0,5.7,2.5,5.7,5.7v23.3v1.7v14.8c0,0.3-0.1,0.5-0.4,0.6c-0.2,0.1-0.5,0-0.7-0.1
		l-9.6-9.6h-37.7c-3.1,0-5.7-2.5-5.7-5.7v-25C197.4,130.4,200,127.9,203.1,127.9z"/>
	<text transform="matrix(1.0217 3.834730e-04 -3.753284e-04 1 213.3264 158.7742)" class="st15 st61 st62">?</text>
</g>
<g>
	
		<linearGradient id="SVGID_26_" gradientUnits="userSpaceOnUse" x1="658.1082" y1="166.747" x2="669.2419" y2="166.747" gradientTransform="matrix(-1 0 0 -1 1228.2 800)">
		<stop  offset="0" style="stop-color:#FDDEDC"/>
		<stop  offset="1" style="stop-color:#FDBCB8"/>
	</linearGradient>
	<polygon class="st64" points="560.1,638.5 559,636 567.7,628 570.1,629.2 	"/>
	
		<linearGradient id="SVGID_27_" gradientUnits="userSpaceOnUse" x1="729.7082" y1="109.797" x2="742.9625" y2="109.797" gradientTransform="matrix(-1 0 0 -1 1228.2 800)">
		<stop  offset="0" style="stop-color:#FDDEDC"/>
		<stop  offset="1" style="stop-color:#FDBCB8"/>
	</linearGradient>
	<polyline class="st65" points="486,690.6 485.3,693 498.5,689.7 498,687.4 	"/>
	
		<linearGradient id="SVGID_28_" gradientUnits="userSpaceOnUse" x1="956.5642" y1="182.997" x2="967.8454" y2="182.997" gradientTransform="matrix(-1 0 0 -1 1228.2 800)">
		<stop  offset="0" style="stop-color:#FDDEDC"/>
		<stop  offset="1" style="stop-color:#FDBCB8"/>
	</linearGradient>
	<polyline class="st66" points="262.8,611.7 260.4,612.9 270.5,622.3 271.6,619.7 	"/>
	
		<linearGradient id="SVGID_29_" gradientUnits="userSpaceOnUse" x1="983.8397" y1="176.297" x2="995.1208" y2="176.297" gradientTransform="matrix(-1 0 0 -1 1228.2 800)">
		<stop  offset="0" style="stop-color:#FDDEDC"/>
		<stop  offset="1" style="stop-color:#FDBCB8"/>
	</linearGradient>
	<polyline class="st67" points="235.5,618.4 233.1,619.6 243.3,629 244.4,626.4 	"/>
</g>
</svg>
