<?xml version="1.0" encoding="utf-8"?>
<!-- Generator: Adobe Illustrator 21.0.0, SVG Export Plug-In . SVG Version: 6.00 Build 0)  -->
<svg version="1.1" id="Layer_1" xmlns="http://www.w3.org/2000/svg" xmlns:xlink="http://www.w3.org/1999/xlink" x="0px" y="0px"
	 viewBox="0 0 800 800" style="enable-background:new 0 0 800 800;" xml:space="preserve">
<style type="text/css">
	.st0{opacity:0.2;fill:#2E5175;enable-background:new    ;}
	.st1{fill:url(#SVGID_1_);}
	.st2{opacity:0.77;}
	.st3{fill:#D9D9DA;}
	.st4{fill:#EFEFF0;}
	.st5{fill:#B3BDC3;}
	.st6{fill:url(#SVGID_2_);}
	.st7{fill:url(#SVGID_3_);}
	.st8{fill:url(#SVGID_4_);}
	.st9{fill-rule:evenodd;clip-rule:evenodd;fill:#3B405F;}
	.st10{fill-rule:evenodd;clip-rule:evenodd;fill:#101537;}
	.st11{fill-rule:evenodd;clip-rule:evenodd;fill:#FFFFFF;}
	.st12{fill-rule:evenodd;clip-rule:evenodd;fill:#2D304F;}
	.st13{fill-rule:evenodd;clip-rule:evenodd;fill:#FDDDB1;}
	.st14{fill:#101537;}
	.st15{fill:#0770AA;}
	.st16{fill:url(#SVGID_5_);}
	.st17{fill:url(#SVGID_6_);}
	.st18{fill:#1C1C1C;}
	.st19{fill:#231F20;}
	.st20{fill:#141414;}
	.st21{fill:#705105;}
	.st22{fill:#303030;}
	.st23{fill:#E2795A;}
	.st24{fill:#424242;}
	.st25{fill:url(#SVGID_7_);}
	.st26{fill:url(#SVGID_8_);}
	.st27{fill:#2D2D2D;}
	.st28{fill:url(#SVGID_9_);}
	.st29{fill:url(#SVGID_10_);}
	.st30{fill:url(#SVGID_11_);}
	.st31{fill:url(#SVGID_12_);}
	.st32{fill:url(#SVGID_13_);}
	.st33{fill:url(#SVGID_14_);}
	.st34{fill:url(#SVGID_15_);}
	.st35{fill:url(#SVGID_16_);}
	.st36{fill:url(#SVGID_17_);}
	.st37{fill:url(#SVGID_18_);}
	.st38{fill:url(#SVGID_19_);}
	.st39{fill:url(#SVGID_20_);}
	.st40{opacity:0.5;fill:#F78989;}
	.st41{opacity:0.2;fill:#231F20;}
	.st42{font-family:'Helvetica-Bold';}
	.st43{font-size:16.0055px;}
	.st44{font-size:34.879px;}
	.st45{opacity:0.1;}
	.st46{font-size:6.1258px;}
	.st47{opacity:0.5;fill:#89ECF4;}
	.st48{opacity:0.5;fill:#9BF489;}
	.st49{fill:url(#SVGID_21_);}
	.st50{fill:url(#SVGID_22_);}
	.st51{fill:url(#SVGID_23_);}
	.st52{fill:url(#SVGID_24_);}
</style>
<path class="st0" d="M670.9,719c-45-2.6-90.2-3.9-135.3-4.6c6.7-1.8,6.8-7.4-1.5-8.1c-3.8-0.3-7.9-0.6-12.2-0.8
	c-2-0.4-4.2-0.5-6.5-0.5c-0.9,0-1.8,0-2.8,0.1c-30.9-1.3-72.2-1.1-112.7-0.7c-40.5-0.4-81.7-0.6-112.7,0.7c-0.9,0-1.9,0-2.8-0.1
	c-2.3,0-4.4,0.1-6.5,0.5c-4.3,0.2-8.4,0.5-12.2,0.8c-8.2,0.7-8.2,6.3-1.5,8.1c-45.1,0.7-90.4,1.9-135.3,4.6
	c-17.9,1.1-19.2,16.8-1.1,17.1c62,1.3,124.7,0,187-1.8c14-0.4,156-0.4,170,0c62.3,1.9,125,3.1,187,1.8
	C690.1,735.8,688.8,720.1,670.9,719z"/>
<linearGradient id="SVGID_1_" gradientUnits="userSpaceOnUse" x1="229.6" y1="632.65" x2="240.7337" y2="632.65">
	<stop  offset="0" style="stop-color:#FDDEDC"/>
	<stop  offset="1" style="stop-color:#FDBCB8"/>
</linearGradient>
<polygon class="st1" points="229.6,628.6 232,627.4 240.7,635.4 239.6,637.9 "/>
<g>
	<g>
		<g>
			<g class="st2">
				<rect x="513.6" y="144.7" class="st3" width="187" height="340.7"/>
				<rect x="513.6" y="66.3" class="st3" width="187" height="45.2"/>
				<rect x="91.4" y="66.3" class="st3" width="188.5" height="45.2"/>
				<rect x="91.4" y="144.7" class="st3" width="188.5" height="340.7"/>
				<rect x="303.3" y="66.3" class="st3" width="187" height="45.2"/>
				<rect x="303.3" y="144.7" class="st3" width="187" height="340.7"/>
			</g>
			<polygon class="st4" points="279.6,111.5 279.6,66.4 186.3,66.4 141.2,111.5 			"/>
			<polygon class="st4" points="108,144.7 92,160.7 92,329 276.3,144.7 			"/>
			<polygon class="st4" points="279.6,209.9 92,397.5 92,484.9 155.3,484.9 279.6,360.5 			"/>
			<polygon class="st4" points="309.5,111.5 354.6,66.4 302.6,66.4 302.6,111.5 			"/>
			<polygon class="st4" points="490.3,111.5 490.3,66.4 423.1,66.4 378.1,111.5 			"/>
			<polygon class="st4" points="344.8,144.7 302.6,186.9 302.6,337.5 490.3,149.9 490.3,144.7 			"/>
			<polygon class="st4" points="490.3,260 302.6,447.6 302.6,484.9 372.3,484.9 490.3,366.9 			"/>
			<polygon class="st4" points="528.7,111.5 573.7,66.4 513.3,66.4 513.3,111.5 			"/>
			<polygon class="st4" points="605.5,144.7 513.3,237 513.3,343.9 700.9,156.3 700.9,144.7 			"/>
			<polygon class="st4" points="700.9,111.5 700.9,66.4 683.8,66.4 638.8,111.5 			"/>
			<polygon class="st4" points="700.9,378.6 594.6,484.9 700.9,484.9 			"/>
			<polygon class="st4" points="700.9,241.5 513.3,429.1 513.3,484.9 548.9,484.9 700.9,332.9 			"/>
		</g>
		<g>
			<rect x="56.9" y="474.4" class="st5" width="686.2" height="20.8"/>
		</g>
	</g>
	
		<linearGradient id="SVGID_2_" gradientUnits="userSpaceOnUse" x1="-6447.083" y1="-49.0704" x2="-6322.8784" y2="-49.0704" gradientTransform="matrix(0.8946 0.447 -0.447 0.8946 5929.9917 3269.3042)">
		<stop  offset="0" style="stop-color:#FDDEDC"/>
		<stop  offset="1" style="stop-color:#FDBCB8"/>
	</linearGradient>
	<path class="st6" d="M288.4,403.6c0,0-26.5-14-47.6-25.2c-14.1-7.4-25.8-13.6-25.8-13.6c5.4-11.7,12.4-23.1,18.9-34.7
		c-11.2-6-22.5-11.7-34.1-17.5c-8.6,23.3-25,61.8-22.9,65.3c2,3.5,27.4,9.2,54.8,18.5c27.8,9.4,55.7,18.8,55.7,18.8L288.4,403.6z"/>
	
		<linearGradient id="SVGID_3_" gradientUnits="userSpaceOnUse" x1="-6321.7456" y1="-15.2667" x2="-6308.9238" y2="-34.6818" gradientTransform="matrix(0.8946 0.447 -0.447 0.8946 5929.9917 3269.3042)">
		<stop  offset="0" style="stop-color:#FDDEDC"/>
		<stop  offset="1" style="stop-color:#FDBCB8"/>
	</linearGradient>
	<path class="st7" d="M296.4,422.5l1.9-1.1c3.3,2.9,5.5,6.6,6.5,11.1c0.5,2.1,3.6,1,3.1-1.1c-1.2-5.5-4.3-10.2-8.8-13.6l-10.6-14.1
		l-5.9,3.6c-1.7,1.1-2.9,2.8-3.3,4.9l-1.1,6.7l1.4,2.3c0.1,0.2,0.2,0.5,0.4,0.7c0.1,0.1,0.1,0.1,0.2,0.2l4.3,7
		c1.1,2.8,1.7,5.7,1.7,8.8c0,2.1,3.3,1.9,3.3-0.2c0-3.6-0.8-7-2.1-10.2l1.5-0.8c3.4,3.3,5.7,7.4,6.7,12.3c0.5,2.1,3.6,1,3.1-1.1
		c-1.1-5-3.4-9.3-6.8-12.9l1.3-0.7c4.4,3.6,7.3,8.2,8.5,13.9c0.5,2.1,3.6,1,3.1-1.1C303.6,431.3,300.7,426.3,296.4,422.5z"/>
	
		<linearGradient id="SVGID_4_" gradientUnits="userSpaceOnUse" x1="6452.8047" y1="3863.0623" x2="6474.9131" y2="3863.0623" gradientTransform="matrix(-0.5002 -0.8659 -0.8659 0.5002 6867.2935 4081.218)">
		<stop  offset="0" style="stop-color:#FDDEDC"/>
		<stop  offset="1" style="stop-color:#FDBCB8"/>
	</linearGradient>
	<path class="st8" d="M284.6,406.1c0,0-4.2,2.1-1.1,7.6c3.2,5.5,3.9,3.4,3.9,3.4l2.5,5.5l-1.8,3.8c-0.4,0.7,0,1.6,0.8,1.9l0,0
		c0.6,0.2,1.4,0,1.7-0.6l3.4-6.2l0.3-10.2l-5.7-7.7L284.6,406.1z"/>
	<g>
		<path class="st9" d="M401.9,390.7c12.2,0,24.4,0,36.7,0c0.3,0,0.6,0.2,0.6,0.5l6.6,45c0,0.3-0.2,0.5-0.5,0.5
			c-28.4,0-21.7,0-50.1,0c-0.3,0-0.5-0.2-0.5-0.5l6.6-45C401.3,390.9,401.6,390.7,401.9,390.7z"/>
		<path class="st9" d="M325.7,285.3h188.7c1.5,0,2.8,1.2,2.8,2.8v120c0,1.5-1.2,2.8-2.8,2.8H325.7c-1.5,0-2.8-1.2-2.8-2.8V288
			C322.9,286.5,324.2,285.3,325.7,285.3z"/>
		<path class="st10" d="M327.7,288.8h185c1,0,1.8,0.8,1.8,1.8v107.6c0,0.6-0.5,1.1-1.1,1.1H327c-0.6,0-1.1-0.5-1.1-1.1V290.7
			C325.9,289.6,326.7,288.8,327.7,288.8z"/>
		<rect x="331" y="294" class="st11" width="178.3" height="100.3"/>
		<path class="st12" d="M434.6,415.7l1.7,12.3h8l-2.4-17.1h-41.1h-2.3l-0.6,4.3c0.8,0,1.5,0,2.3,0c11.3,0,22.5,0,33.8,0
			C434.3,415.1,434.6,415.4,434.6,415.7z"/>
		<line class="st13" x1="332.2" y1="341.6" x2="330.4" y2="344.9"/>
	</g>
	<path class="st14" d="M446.8,436.7h-54.4c-2.4,0-4.4-2-4.4-4.4v0c0-2.4,2-4.4,4.4-4.4h54.4c2.4,0,4.4,2,4.4,4.4v0
		C451.1,434.8,449.2,436.7,446.8,436.7z"/>
	<g>
		<g>
			<g>
				<path class="st15" d="M251.7,290.6c2.1-9.2,0.9-21.6-6-28.9c-10-10.7-20.3-3.3-27.1,6.5c-3.1,4.5-5.5,9.6-6.8,13.6
					c-0.8,2.6-4.8,14.8-9.5,29.9c11.8,5.2,23.4,10.4,34.9,15.8C243.3,315.6,248.8,303.4,251.7,290.6z"/>
			</g>
			<g>
				<g>
					
						<linearGradient id="SVGID_5_" gradientUnits="userSpaceOnUse" x1="7259.2446" y1="-1018.329" x2="7240.6719" y2="-969.9277" gradientTransform="matrix(-0.9816 0.191 0.191 0.9816 7860.3228 -56.9539)">
						<stop  offset="0" style="stop-color:#FDDEDC"/>
						<stop  offset="1" style="stop-color:#FDBCB8"/>
					</linearGradient>
					<path class="st16" d="M521,400.1l49.6-15c-0.3-1.7-0.5-3.4-0.8-5.1c-0.6-4.2-1.3-8.5-1.9-12.7c-0.9-5.6-1.7-11.1-2.6-16.7
						c-0.7-4.5-1.3-8.9-2.1-13.4c-0.8-4.5-1.5-9.1-2.1-13.7c-0.3-2.3-0.6-4.6-0.8-6.9c-0.1-1.2-0.2-2.3-0.3-3.5
						c-0.1-0.9,0.1-1.5,0.4-2.3c1.1-3.4,2.9-6.4,5.7-8.6c1-0.8,2-1.5,3.2-2c0.1,0,0.1-0.1,0.2-0.1c2-0.9,4.3-1.5,6.5-1.5
						c2-0.1,4.7,0.1,6.5,1.2c0.8,0.5,1.4,1.3,2.1,1.9c1.3,1.3,2.5,2.8,3.5,4.3c2.2,3.4,3.8,7.2,4.5,11.2c0.4,2.4,0.3,4.7,0.3,7.1
						c0,4.1-0.1,8.1-0.1,12.2c-0.1,5.1-0.1,10.3-0.2,15.4c-0.1,5.4-0.1,10.8-0.2,16.3c-0.1,4.9-0.1,9.8-0.2,14.7
						c0,3.6-0.1,7.1-0.1,10.7c0,1.4,0,2.8,0,4.2c-0.7,3.6-65.3,11.5-65.3,11.5L521,400.1z"/>
					
						<linearGradient id="SVGID_6_" gradientUnits="userSpaceOnUse" x1="7307.8135" y1="-923.3145" x2="7301.6152" y2="-955.169" gradientTransform="matrix(-0.9816 0.191 0.191 0.9816 7860.3228 -56.9539)">
						<stop  offset="0" style="stop-color:#FDDEDC"/>
						<stop  offset="1" style="stop-color:#FDBCB8"/>
					</linearGradient>
					<path class="st17" d="M495.3,424.7c3-4.8,7.3-8.3,12.5-10.3l-1.3-1.6c-4,1.5-7.1,4.1-9.5,7.8c-1.1,1.7-3.5-0.3-2.5-2
						c2.9-4.6,7.2-7.8,12.4-9.3l14.1-9.2l6,7.6l-1.8,9.4l-2,1.6c-0.1,0.2-0.3,0.4-0.6,0.5c-0.1,0-0.1,0.1-0.2,0.1l-6.2,4.9
						c-1.9,2.1-3.4,4.6-4.4,7.4c-0.7,1.9-3.6,0.6-2.9-1.3c1.2-3.2,3-6.1,5.2-8.5l-1.1-1.3c-4.2,1.9-7.5,4.8-10.1,8.9
						c-1.1,1.7-3.5-0.3-2.5-2c2.6-4.1,6.2-7.3,10.4-9.4l-0.9-1.1c-5.2,1.8-9.3,5-12.2,9.7C496.6,428.4,494.2,426.4,495.3,424.7z"/>
				</g>
				<path class="st18" d="M558.6,459.1c-4.3,1.6-47.3,100.3-50.1,109c-2.9,8.6-22.8,120.9-22.8,120.9l12-3.2l29.2-78.6v-34.3
					l77-90.7L558.6,459.1z"/>
			</g>
			<path class="st19" d="M472,702.8l12.9-11.4l13.3-3.3l8.2,12.5l-48.2,16.1c0,0-1.2-1.5,1.5-5.2S472,702.8,472,702.8z"/>
			<g>
				<g>
					<g>
						<polygon class="st20" points="517.6,707.3 512.5,707.7 493.6,446.1 498.7,445.7 						"/>
						<polygon class="st20" points="328.7,707.3 333.8,707.7 352.7,446.1 347.6,445.7 						"/>
					</g>
					<rect x="308.1" y="436.9" class="st21" width="230.1" height="6.3"/>
					<rect x="329.2" y="443.2" class="st22" width="187.9" height="6.3"/>
					<g>
						<polygon class="st22" points="539.3,727.8 533,728.3 509.7,446.1 516,445.7 						"/>
						<polygon class="st22" points="307,727.8 313.3,728.3 336.6,446.1 330.3,445.7 						"/>
					</g>
				</g>
			</g>
			<g>
				<path class="st23" d="M575.1,343.4c-6.8-5.8-12.7-12.4-18.6-19c-3.5-4-7.1-7.9-10.6-11.9c-4.3-4.8-8.7-9.7-11.7-15.4
					c-5.1-9.3-6.3-19.9-7.5-30.3c-1.4-12.5-2.8-25-4.2-37.6c-0.3-2.5-0.5-5.1,0.4-7.4c0.9-2.3,3.4-4.4,6-4
					c-4.6-3.5-5.1-10.3-2.3-15.2c2.8-4.9,8.1-8.1,13.6-10.2c17.1-6.8,37.7-5.1,53.2,4.3s25.7,26.4,26.2,43.7
					c0.2,8.2-1.3,17.4,4,23.9c4.8,6,14.5,8.5,16.4,15.8c1.6,6.4-4,12.6-3.7,19.2c0.3,7.5,7.9,12.8,11.9,19.3
					c6.1,10.1,2.9,23.8-6,31.9c-8.9,8.1-22.4,10.8-34.6,8.7S584.2,351.2,575.1,343.4z"/>
				<g>
					<g>
						<path class="st24" d="M653.4,711.4v4.5c0,6.4-22.8,11.6-50.9,11.6c-28.1,0-50.9-5.2-50.9-11.6v-4.5c0-6.4,22.8-11.6,50.9-11.6
							C630.6,699.9,653.4,705,653.4,711.4z"/>
						
							<linearGradient id="SVGID_7_" gradientUnits="userSpaceOnUse" x1="7281.9131" y1="711.3623" x2="7347.4214" y2="711.3623" gradientTransform="matrix(-1 0 0 1 7935.3501 0)">
							<stop  offset="0" style="stop-color:#159FD5"/>
							<stop  offset="1" style="stop-color:#3F7DBA"/>
						</linearGradient>
						<path class="st25" d="M653.4,711.4c0-6.4-22.8-11.6-50.9-11.6c-5.1,0-10,0.2-14.6,0.5l22.5,22.5
							C634.8,722,653.4,717.2,653.4,711.4z"/>
						<path class="st15" d="M551.6,711.4c0,6.4,22.8,11.6,50.9,11.6c2.7,0,5.4,0,8-0.1l-22.5-22.5
							C566.9,701.8,551.6,706.2,551.6,711.4z"/>
					</g>
					<rect x="599.2" y="482.2" class="st24" width="5.3" height="225.7"/>
					<g>
						<path class="st24" d="M602.1,649.9c-22.7,0-45.6-5.3-45.6-15.6c0-10.2,23-15.6,45.6-15.6c22.7,0,45.6,5.3,45.6,15.6
							C647.7,644.6,624.7,649.9,602.1,649.9z M602.1,623.6c-24.9,0-40.8,6.4-40.8,10.7s15.9,10.7,40.8,10.7
							c24.9,0,40.8-6.4,40.8-10.7S627,623.6,602.1,623.6z"/>
					</g>
					<g>
						<path class="st15" d="M537.4,480.2v16.1c0,6.4,29.1,11.6,65.1,11.6s65.1-5.2,65.1-11.6v-16.1H537.4z"/>
						
							<linearGradient id="SVGID_8_" gradientUnits="userSpaceOnUse" x1="7267.7368" y1="480.1927" x2="7397.9399" y2="480.1927" gradientTransform="matrix(-1 0 0 1 7935.3501 0)">
							<stop  offset="0" style="stop-color:#159FD5"/>
							<stop  offset="1" style="stop-color:#3F7DBA"/>
						</linearGradient>
						<ellipse class="st26" cx="602.5" cy="480.2" rx="65.1" ry="11.6"/>
					</g>
				</g>
				<g>
					<path class="st27" d="M619.8,438.5c12.1,0.8,24.6-10,33.1-7.9c4.9,1.2,7.5,10.4,7.3,14.2c-0.4,9.6-1.2,22.4-6.7,29.9
						c-15.5,20.7-141.9,36.5-141.9,36.5s21.8,22,26.7,31.3c4.9,9.3,29.2,83.9,29.2,83.9l-8.8,7.9c0,0-83.1-134-82.1-139.3
						C477.6,489.8,587,436.3,619.8,438.5z"/>
					<path class="st19" d="M553.9,653.1l5.9-16.2l10-9.3l13.2,7l-34.6,37.2c0,0-2.4-0.6-1.2-5.3
						C548.3,661.9,553.9,653.1,553.9,653.1z"/>
				</g>
				
					<linearGradient id="SVGID_9_" gradientUnits="userSpaceOnUse" x1="7331.3784" y1="449.5276" x2="7331.3784" y2="275.7985" gradientTransform="matrix(-1 0 0 1 7935.3501 0)">
					<stop  offset="1.762821e-02" style="stop-color:#A52A7A"/>
					<stop  offset="1" style="stop-color:#CC0A60"/>
				</linearGradient>
				<path class="st28" d="M563.8,298.4c4.9-7.5,6.9-21.2,16.6-22.4c23.1-2.8,35.9,19.8,38.2,38.9c1.5,12.5,2.4,25.1,3.6,37.7
					c0.7,7.6,0.1,18.6,3.9,25.4c6.7,12.1,23,39.2,32.3,54.6c3.1,5.2,4.4,11-1.6,11.4l-81.8,5.4c0,0-2-33.2,0-51.7
					c1.4-13-4-21.1-7.8-33.4c-1.7-5.7-2.3-8.6-6.5-13.3c-4.1-4.5-11.7-9.9-13.2-16.2C544.4,321.6,556.6,309.4,563.8,298.4z"/>
				<g>
					
						<linearGradient id="SVGID_10_" gradientUnits="userSpaceOnUse" x1="7340.1372" y1="253.006" x2="7395.9644" y2="253.006" gradientTransform="matrix(-1 0 0 1 7935.3501 0)">
						<stop  offset="0" style="stop-color:#FDDEDC"/>
						<stop  offset="1" style="stop-color:#FDBCB8"/>
					</linearGradient>
					<path class="st29" d="M542.8,247.1c2.9-2.4,3.3-6.7,2.5-10.4c-0.8-3.7-2.1-5.3-2.6-9c-0.5-3.7,2.4-8.7,5.7-10.5
						c0,0,21.3-0.9,25.5,10.3c2.7,7.1,7.7,12.1,7.7,12.1c-0.2-8.9,7.6-6.6,9.5-4.7c1.9,1.9,2.3,5.2,1,7.5c-1.3,2.4-3.9,4.2-6.6,3.9
						l9.8,34c-5.3,3.1-10.8,5.7-16.2,8.5c-1-1.2-9.9-18.7-12.2-18c-4.6,1.3-9,5.6-13.4,3.7c-3.4-1.5-4.2-5.9-4.4-9.6
						c-0.2-3.7-0.8-8.1-4.1-9.8c-2.1-1.1-5.5-1.5-5.6-3.9C539.3,249.3,541.4,248.3,542.8,247.1z"/>
				</g>
				<g>
					
						<linearGradient id="SVGID_11_" gradientUnits="userSpaceOnUse" x1="7440.1885" y1="450.7782" x2="7440.1885" y2="417.8857" gradientTransform="matrix(-0.9806 0.196 0.196 0.9806 7721.5459 -1441.521)">
						<stop  offset="0" style="stop-color:#FDDEDC"/>
						<stop  offset="1" style="stop-color:#FDBCB8"/>
					</linearGradient>
					<path class="st30" d="M497.3,448.9c-0.9,1.9-3.7,0.2-2.8-1.7c2.3-5.1,6.2-9,11.3-11.4l13.1-11.5l7.3,6.9l-0.4,9.9l-1.8,1.9
						c-0.1,0.2-0.3,0.4-0.5,0.6c-0.1,0.1-0.1,0.1-0.2,0.2l-5.6,5.9c-1.6,2.5-2.8,5.2-3.4,8.2c-0.5,2.1-3.6,1.2-3.2-0.9
						c0.8-3.5,2.2-6.6,4.1-9.4l-1.3-1.1c-4,2.5-7,6.1-9,10.5c-0.9,1.9-3.7,0.2-2.8-1.7c2.1-4.6,5.2-8.4,9.2-11.1l-1.1-1
						c-5,2.6-8.7,6.5-11.1,11.7c-0.9,1.9-3.7,0.2-2.8-1.7c2.4-5.3,6.3-9.6,11.3-12.4l-1.6-1.4C502,441.6,499.1,444.8,497.3,448.9z"
						/>
					
						<linearGradient id="SVGID_12_" gradientUnits="userSpaceOnUse" x1="7319.3945" y1="369.5396" x2="7428.7148" y2="369.5396" gradientTransform="matrix(-0.9806 0.196 0.196 0.9806 7721.5459 -1441.521)">
						<stop  offset="0" style="stop-color:#FDDEDC"/>
						<stop  offset="1" style="stop-color:#FDBCB8"/>
					</linearGradient>
					<path class="st31" d="M518.8,424.3l72.8-26l-17.9-80c0.2-11,8-22.1,18.8-20.1l0,0c9.4,1.7,17.8,14.2,16.5,23.6
						c0,0,9.3,89.7,7,95c-2.4,5.3-89.9,15.9-89.9,15.9L518.8,424.3z"/>
				</g>
			</g>
			<g>
				<path class="st19" d="M264.6,205c1.7,3.3,6.1,4.9,9.5,3.5c3.4-1.4,5.4-5.7,4.2-9.2c4.3,1.1,9.2-1.9,10.3-6.2
					c1-4.3-2-9.2-6.3-10.2c4.3-3.9,4.9-11.2,1.3-15.8c-3.6-4.6-10.9-5.7-15.7-2.4c0.1-5.3-3.9-10.5-9.1-11.6
					c-5.2-1.1-11,1.8-13.2,6.8c-3.7-3.5-9.6-4.4-14.2-2.3c-4.6,2.1-7.7,7.2-7.5,12.3c-4.2-0.8-8.8,1.1-11.2,4.7s-2.4,8.5-0.1,12.1
					c-3.9,0.7-7,4.3-7.2,8.2c-0.2,3.9,2.5,7.8,6.3,8.9c-2.7,1.7-4,5.2-3.2,8.3c0.8,3,3.8,5.4,7,5.5c-2,2.1-1.2,5.9,1.1,7.7
					c2.3,1.9,5.4,2.2,8.4,2.1c2.9-0.1,5.9-0.5,8.8,0.1L264.6,205z"/>
				<g>
					<g>
						<path class="st24" d="M241.3,710.3v4.5c0,6.4-23,11.7-51.3,11.7c-28.3,0-51.3-5.2-51.3-11.7v-4.5c0-6.4,23-11.7,51.3-11.7
							C218.4,698.7,241.3,703.9,241.3,710.3z"/>
						
							<linearGradient id="SVGID_13_" gradientUnits="userSpaceOnUse" x1="7694.0059" y1="710.2643" x2="7759.9629" y2="710.2643" gradientTransform="matrix(-1 0 0 1 7935.3501 0)">
							<stop  offset="1.762821e-02" style="stop-color:#A52A7A"/>
							<stop  offset="1" style="stop-color:#CC0A60"/>
						</linearGradient>
						<path class="st32" d="M241.3,710.3c0-6.4-23-11.7-51.3-11.7c-5.1,0-10,0.2-14.7,0.5l22.7,22.7
							C222.6,721,241.3,716.2,241.3,710.3z"/>
						
							<linearGradient id="SVGID_14_" gradientUnits="userSpaceOnUse" x1="7737.2803" y1="710.5794" x2="7796.5532" y2="710.5794" gradientTransform="matrix(-1 0 0 1 7935.3501 0)">
							<stop  offset="0" style="stop-color:#921468"/>
							<stop  offset="1" style="stop-color:#AD0A60"/>
						</linearGradient>
						<path class="st33" d="M138.8,710.3c0,6.4,23,11.7,51.3,11.7c2.7,0,5.4,0,8-0.1l-22.7-22.7
							C154.2,700.6,138.8,705.1,138.8,710.3z"/>
					</g>
					<path class="st24" d="M189.4,706.8L189.4,706.8c-1.5,0-2.6-1.2-2.6-2.6V479.5h5.3v224.6C192,705.6,190.9,706.8,189.4,706.8z"/>
					<g>
						<path class="st24" d="M189.6,648.4c-22.8,0-45.9-5.4-45.9-15.7s23.1-15.7,45.9-15.7c22.8,0,45.9,5.4,45.9,15.7
							S212.5,648.4,189.6,648.4z M189.6,621.9c-25.1,0-41.1,6.4-41.1,10.8c0,4.4,16,10.8,41.1,10.8c25.1,0,41.1-6.4,41.1-10.8
							C230.7,628.3,214.7,621.9,189.6,621.9z"/>
					</g>
					<g>
						
							<linearGradient id="SVGID_15_" gradientUnits="userSpaceOnUse" x1="7676.9331" y1="491.4344" x2="7813.6274" y2="491.4344" gradientTransform="matrix(-1 0 0 1 7935.3501 0)">
							<stop  offset="0" style="stop-color:#921468"/>
							<stop  offset="1" style="stop-color:#AD0A60"/>
						</linearGradient>
						<path class="st34" d="M121.7,477.5v16.2c0,6.4,30.6,11.7,68.3,11.7c37.7,0,68.3-5.2,68.3-11.7v-16.2H121.7z"/>
						
							<linearGradient id="SVGID_16_" gradientUnits="userSpaceOnUse" x1="7676.9331" y1="477.5116" x2="7813.6274" y2="477.5116" gradientTransform="matrix(-1 0 0 1 7935.3501 0)">
							<stop  offset="0" style="stop-color:#C01468"/>
							<stop  offset="1" style="stop-color:#CC0A60"/>
						</linearGradient>
						<ellipse class="st35" cx="190.1" cy="477.5" rx="68.3" ry="11.7"/>
					</g>
				</g>
				<g>
					<g>
						<path class="st18" d="M236.5,414c-12.3,0.8-52.1-4.4-60.7-2.3c-5,1.2-7.6,10.6-7.4,14.4c0.4,9.8,1.2,22.7,6.8,30.3
							c15.7,21,135.9,35.9,135.9,35.9l-23,22.5l-25.8,95.3l8.9,8c0,0,84.9-133.9,83.2-141.1c-1.7-7.2-72.7-38.7-118.3-52.6
							L236.5,414z"/>
						<path class="st19" d="M276.1,637.1l-5.9-16.4l-10.2-9.4l-13.4,7.1l35.1,37.7c0,0,1.2-1.2,1.2-5.4
							C282.9,646.7,276.1,637.1,276.1,637.1z"/>
					</g>
					<g>
						<path class="st27" d="M209.2,420.7c-12.3,0.8-52.1-4.4-60.7-2.3c-5,1.2-7.6,10.6-7.4,14.4c0.4,9.8,1.2,22.7,6.8,30.3
							c15.7,21,135.9,35.9,135.9,35.9s-20.5,16.9-23,22.5c-2.5,5.6-25.8,95.3-25.8,95.3l8.9,8c0,0,84.5-134.9,83.2-141.1
							c-1.3-6.2-72.7-38.7-118.3-52.6L209.2,420.7z"/>
						<path class="st19" d="M248.8,643.8l-5.9-16.4l-10.2-9.4l-13.4,7.1l35.1,37.7c0,0,3,3.7,1.2-5.4S248.8,643.8,248.8,643.8z"/>
					</g>
					<g>
						<g>
							
								<linearGradient id="SVGID_17_" gradientUnits="userSpaceOnUse" x1="-6643.4233" y1="282.892" x2="-6643.4233" y2="427.1069" gradientTransform="matrix(1 0 0 1 6837.9634 0)">
								<stop  offset="0" style="stop-color:#159FD5"/>
								<stop  offset="1" style="stop-color:#3F7DBA"/>
							</linearGradient>
							<path class="st36" d="M219.9,239.5c-11.3,0.5-21.5,6.8-28.7,14.7c-7.1,8-11.6,17.6-15.7,27.1
								c-14.3,32.9-40.9,140.4-34.2,151.1l96.3-8.7c2.1-12.9,4.9-82.1,9.3-120.2c2-17.7,4.9-37.3-6.8-51.6L219.9,239.5z"/>
							<g>
								<g>
									
										<linearGradient id="SVGID_18_" gradientUnits="userSpaceOnUse" x1="-6626.1631" y1="227.4714" x2="-6566.5811" y2="227.4714" gradientTransform="matrix(1 0 0 1 6837.9634 0)">
										<stop  offset="0" style="stop-color:#FDDEDC"/>
										<stop  offset="1" style="stop-color:#FDBCB8"/>
									</linearGradient>
									<path class="st37" d="M265.5,192.6c2.8,1.6,3.7,5.3,3.3,8.5c-0.4,3.2-1.9,6.2-2.6,9.4c-0.7,3.2-0.3,6.9,2.2,9
										c1.2,1,3,1.8,3,3.4c0,2.1-3,2.4-4.8,3.4c-2.8,1.5-3.3,5.3-3.5,8.5c-0.2,3.2-0.9,7-3.8,8.3c-3.8,1.7-7.6-2.1-11.6-3.2
										c-3.7-1-7.7,0.5-10.7,2.9c-3,2.4-10.8,16.6-12.8,19.8c-6.7-0.8-12.3-10.5-12.4-20.5l19.8-23.3c-2.3,0.3-4.6-1.3-5.7-3.3
										c-1.1-2.1-0.8-4.8,0.8-6.5c1.6-1.7,8.3-3.7,8.2,4c0,0,4.6-4.3,6.6-10.5C245.9,189,265.5,192.6,265.5,192.6z"/>
								</g>
							</g>
							<g>
								<path class="st15" d="M226.9,297c1.8-9.2,0.2-21.6-6.9-28.7c-10.3-10.3-20.4-2.6-26.8,7.4c-3,4.6-5.2,9.8-6.4,13.8
									c-0.8,2.9-5.1,17.9-10.1,35.5c12.6,2,25.2,4.7,37.6,7.9C219.6,321.2,224.5,309.3,226.9,297z"/>
								
									<linearGradient id="SVGID_19_" gradientUnits="userSpaceOnUse" x1="-6696.6748" y1="1777.2649" x2="-6573.0688" y2="1777.2649" gradientTransform="matrix(0.9273 0.3743 -0.3743 0.9273 7041.1323 1209.8127)">
									<stop  offset="0" style="stop-color:#FDDEDC"/>
									<stop  offset="1" style="stop-color:#FDBCB8"/>
								</linearGradient>
								<path class="st38" d="M271.7,402.4c0,0-25.4-10.9-47.4-20.4c-14.6-6.3-26.8-11.5-26.8-11.5c4.7-12.6,11-25,16.8-37.6
									c-12.4-3.1-24.9-5.9-37.6-7.9c-6.5,23.1-20.6,55.8-16.2,61.6c4.4,5.8,28,7,56.1,14.1c28.4,7.1,57,14.3,57,14.3L271.7,402.4z
									"/>
								
									<linearGradient id="SVGID_20_" gradientUnits="userSpaceOnUse" x1="-6563.6699" y1="1812.1492" x2="-6563.6699" y2="1784.7423" gradientTransform="matrix(0.9273 0.3743 -0.3743 0.9273 7041.1323 1209.8127)">
									<stop  offset="0" style="stop-color:#FDDEDC"/>
									<stop  offset="1" style="stop-color:#FDBCB8"/>
								</linearGradient>
								<path class="st39" d="M298.1,428.4c-3-5.1-7.3-8.9-12.7-11.2l1.5-1.6c4.1,1.7,7.3,4.6,9.6,8.5c1.1,1.8,3.7-0.2,2.6-2
									c-2.9-4.9-7.4-8.5-12.8-10.2c0,0-0.1,0-0.1,0l-14.6-9.4l-6.1,7.2l1.5,9.9l2,1.7c0.1,0.2,0.3,0.4,0.6,0.6
									c0.1,0,0.1,0.1,0.2,0.1l6.3,5.3c1.9,2.3,3.4,4.9,4.4,7.9c0.7,2,3.7,0.8,3.1-1.2c-1.2-3.4-2.9-6.4-5.2-9l1.2-1.3
									c4.3,2.1,7.7,5.3,10.2,9.6c1.1,1.8,3.7-0.2,2.6-2c-2.6-4.4-6.2-7.8-10.5-10.1l1-1.1c5.3,2,9.5,5.6,12.4,10.5
									C296.6,432.2,299.2,430.2,298.1,428.4z"/>
							</g>
						</g>
					</g>
				</g>
			</g>
		</g>
	</g>
</g>
<path class="st40" d="M337.8,329.7h14.9c1,0,1.8-0.8,1.8-1.8v-25.3c0-1-0.8-1.8-1.8-1.8h-14.9c-1,0-1.8,0.8-1.8,1.8v25.3
	C336,328.9,336.8,329.7,337.8,329.7z"/>
<path class="st3" d="M472.3,321.7h-108c-0.9,0-1.7-0.8-1.7-1.7v-17.6c0-0.9,0.8-1.7,1.7-1.7h108c0.9,0,1.7,0.8,1.7,1.7v17.6
	C474,321,473.3,321.7,472.3,321.7z"/>
<text transform="matrix(1.0217 0 0 1 398.8086 317.2875)" class="st41 st42 st43">HIRE</text>
<path class="st41" d="M429.3,382.6h-22c-0.3,0-0.6,0.3-0.6,0.6v0.5c0,0.3,0.3,0.6,0.6,0.6h22c0.3,0,0.6-0.3,0.6-0.6v-0.5
	C429.9,382.9,429.6,382.6,429.3,382.6z"/>
<path class="st41" d="M429.3,385.4h-22c-0.3,0-0.6,0.3-0.6,0.6v0.5c0,0.3,0.3,0.6,0.6,0.6h22c0.3,0,0.6-0.3,0.6-0.6V386
	C429.9,385.7,429.6,385.4,429.3,385.4z"/>
<text transform="matrix(1.0217 0 0 1 379.9512 355.5242)" class="st3 st42 st44">$ $ $</text>
<path class="st3" d="M415.3,376.9h-50.4c-0.9,0-1.7-0.8-1.7-1.7v-5.6c0-0.9,0.8-1.7,1.7-1.7h50.4c0.9,0,1.7,0.8,1.7,1.7v5.6
	C417,376.2,416.3,376.9,415.3,376.9z"/>
<text transform="matrix(1.0217 0 0 1 370.9985 374.5059)" class="st45 st42 st46">FREELANCE</text>
<path class="st3" d="M475.5,376.9h-50.4c-0.9,0-1.7-0.8-1.7-1.7v-5.6c0-0.9,0.8-1.7,1.7-1.7h50.4c0.9,0,1.7,0.8,1.7,1.7v5.6
	C477.2,376.2,476.4,376.9,475.5,376.9z"/>
<text transform="matrix(1.0217 0 0 1 429.9495 374.5059)" class="st45 st42 st46">GREAT DEAL</text>
<path class="st40" d="M486.8,329.7h14.9c1,0,1.8-0.8,1.8-1.8v-25.3c0-1-0.8-1.8-1.8-1.8h-14.9c-1,0-1.8,0.8-1.8,1.8v25.3
	C485,328.9,485.8,329.7,486.8,329.7z"/>
<path class="st47" d="M337.8,359.2h14.9c1,0,1.8-0.8,1.8-1.8v-25.3c0-1-0.8-1.8-1.8-1.8h-14.9c-1,0-1.8,0.8-1.8,1.8v25.3
	C336,358.4,336.8,359.2,337.8,359.2z"/>
<path class="st47" d="M486.8,359.2h14.9c1,0,1.8-0.8,1.8-1.8v-25.3c0-1-0.8-1.8-1.8-1.8h-14.9c-1,0-1.8,0.8-1.8,1.8v25.3
	C485,358.4,485.8,359.2,486.8,359.2z"/>
<path class="st48" d="M337.8,388.7h14.9c1,0,1.8-0.8,1.8-1.8v-25.3c0-1-0.8-1.8-1.8-1.8h-14.9c-1,0-1.8,0.8-1.8,1.8v25.3
	C336,387.9,336.8,388.7,337.8,388.7z"/>
<path class="st48" d="M486.8,388.7h14.9c1,0,1.8-0.8,1.8-1.8v-25.3c0-1-0.8-1.8-1.8-1.8h-14.9c-1,0-1.8,0.8-1.8,1.8v25.3
	C485,387.9,485.8,388.7,486.8,388.7z"/>
<g>
	
		<linearGradient id="SVGID_21_" gradientUnits="userSpaceOnUse" x1="658.5167" y1="631.6667" x2="669.6503" y2="631.6667" gradientTransform="matrix(-1 0 0 1 1228.2 0)">
		<stop  offset="0" style="stop-color:#FDDEDC"/>
		<stop  offset="1" style="stop-color:#FDBCB8"/>
	</linearGradient>
	<polygon class="st49" points="559.7,636.9 558.6,634.4 567.3,626.4 569.7,627.6 	"/>
	
		<linearGradient id="SVGID_22_" gradientUnits="userSpaceOnUse" x1="730.1166" y1="688.6167" x2="743.371" y2="688.6167" gradientTransform="matrix(-1 0 0 1 1228.2 0)">
		<stop  offset="0" style="stop-color:#FDDEDC"/>
		<stop  offset="1" style="stop-color:#FDBCB8"/>
	</linearGradient>
	<polyline class="st50" points="485.6,689 484.9,691.4 498.1,688.1 497.6,685.8 	"/>
	
		<linearGradient id="SVGID_23_" gradientUnits="userSpaceOnUse" x1="956.9809" y1="615.4167" x2="968.2621" y2="615.4167" gradientTransform="matrix(-1 0 0 1 1228.2 0)">
		<stop  offset="0" style="stop-color:#FDDEDC"/>
		<stop  offset="1" style="stop-color:#FDBCB8"/>
	</linearGradient>
	<polyline class="st51" points="262.4,610.1 260,611.3 270.1,620.7 271.2,618.1 	"/>
	
		<linearGradient id="SVGID_24_" gradientUnits="userSpaceOnUse" x1="984.2564" y1="622.1167" x2="995.5375" y2="622.1167" gradientTransform="matrix(-1 0 0 1 1228.2 0)">
		<stop  offset="0" style="stop-color:#FDDEDC"/>
		<stop  offset="1" style="stop-color:#FDBCB8"/>
	</linearGradient>
	<polyline class="st52" points="235.1,616.8 232.7,618 242.9,627.4 244,624.8 	"/>
</g>
</svg>
