<?xml version="1.0" encoding="utf-8"?>
<!-- Generator: Adobe Illustrator 21.0.0, SVG Export Plug-In . SVG Version: 6.00 Build 0)  -->
<svg version="1.1" id="Layer_1" xmlns="http://www.w3.org/2000/svg" xmlns:xlink="http://www.w3.org/1999/xlink" x="0px" y="0px"
	 viewBox="0 0 800 800" style="enable-background:new 0 0 800 800;" xml:space="preserve">
<style type="text/css">
	.st0{opacity:0.2;fill:#2E5175;enable-background:new    ;}
	.st1{opacity:0.77;}
	.st2{fill:#D9D9DA;}
	.st3{fill:#EFEFF0;}
	.st4{fill:#B3BDC3;}
	.st5{fill:url(#SVGID_1_);}
	.st6{fill:url(#SVGID_2_);}
	.st7{fill:#0770AA;}
	.st8{fill:url(#SVGID_3_);}
	.st9{fill:url(#SVGID_4_);}
	.st10{fill:#1C1C1C;}
	.st11{fill:#231F20;}
	.st12{fill:url(#SVGID_5_);}
	.st13{fill:#141414;}
	.st14{fill:#705105;}
	.st15{fill:#303030;}
	.st16{fill:url(#SVGID_6_);}
	.st17{fill:url(#SVGID_7_);}
	.st18{fill:url(#SVGID_8_);}
	.st19{fill:#6C6C6C;}
	.st20{fill:#212121;}
	.st21{fill:#4DD0E1;}
	.st22{fill:#FFB300;}
	.st23{fill:#D81B60;}
	.st24{fill:none;stroke:#AD1457;stroke-width:0.4044;stroke-miterlimit:10;}
	.st25{fill:none;stroke:#D81B60;stroke-width:0.4044;stroke-miterlimit:10;}
	.st26{fill:none;stroke:#EC407A;stroke-width:0.4044;stroke-miterlimit:10;}
	.st27{fill:#FFF3E0;}
	.st28{fill:#3B405F;}
	.st29{fill:#101537;}
	.st30{opacity:0.2;fill:#231F20;}
	.st31{fill:url(#SVGID_9_);}
	.st32{fill:#E2795A;}
	.st33{fill:#424242;}
	.st34{fill:url(#SVGID_10_);}
	.st35{fill:url(#SVGID_11_);}
	.st36{fill:#2D2D2D;}
	.st37{fill:url(#SVGID_12_);}
	.st38{fill:url(#SVGID_13_);}
	.st39{fill:url(#SVGID_14_);}
	.st40{fill:url(#SVGID_15_);}
	.st41{fill:url(#SVGID_16_);}
	.st42{fill:url(#SVGID_17_);}
	.st43{fill:url(#SVGID_18_);}
	.st44{fill:url(#SVGID_19_);}
	.st45{fill:url(#SVGID_20_);}
	.st46{fill:url(#SVGID_21_);}
	.st47{fill:url(#SVGID_22_);}
	.st48{fill:url(#SVGID_23_);}
	.st49{fill:url(#SVGID_24_);}
	.st50{fill:url(#SVGID_25_);}
	.st51{fill:url(#SVGID_26_);}
	.st52{fill:url(#SVGID_27_);}
	.st53{fill:url(#SVGID_28_);}
</style>
<g>
	<path class="st0" d="M670.9,719c-45-2.6-90.2-3.9-135.3-4.6c6.7-1.8,6.8-7.4-1.5-8.1c-3.8-0.3-7.9-0.6-12.2-0.8
		c-2-0.4-4.2-0.5-6.5-0.5c-0.9,0-1.8,0-2.8,0.1c-30.9-1.3-72.2-1.1-112.7-0.7c-40.5-0.4-81.7-0.6-112.7,0.7c-0.9,0-1.9,0-2.8-0.1
		c-2.3,0-4.4,0.1-6.5,0.5c-4.3,0.2-8.4,0.5-12.2,0.8c-8.2,0.7-8.2,6.3-1.5,8.1c-45.1,0.7-90.4,1.9-135.3,4.6
		c-17.9,1.1-19.2,16.8-1.1,17.1c62,1.3,124.7,0,187-1.8c14-0.4,156-0.4,170,0c62.3,1.9,125,3.1,187,1.8
		C690.1,735.8,688.8,720.1,670.9,719z"/>
	<g>
		<g>
			<g class="st1">
				<rect x="517.4" y="145.7" class="st2" width="187" height="340.7"/>
				<rect x="517.4" y="67.3" class="st2" width="187" height="45.2"/>
				<rect x="95.2" y="67.3" class="st2" width="188.5" height="45.2"/>
				<rect x="95.2" y="145.7" class="st2" width="188.5" height="340.7"/>
				<rect x="307.1" y="67.3" class="st2" width="187" height="45.2"/>
				<rect x="307.1" y="145.7" class="st2" width="187" height="340.7"/>
			</g>
			<polygon class="st3" points="283.5,112.5 283.5,67.4 190.2,67.4 145.1,112.5 			"/>
			<polygon class="st3" points="111.9,145.7 95.9,161.7 95.9,330 280.1,145.7 			"/>
			<polygon class="st3" points="283.5,210.9 95.9,398.5 95.9,485.9 159.1,485.9 283.5,361.5 			"/>
			<polygon class="st3" points="313.4,112.5 358.4,67.4 306.5,67.4 306.5,112.5 			"/>
			<polygon class="st3" points="494.1,112.5 494.1,67.4 427,67.4 381.9,112.5 			"/>
			<polygon class="st3" points="348.7,145.7 306.5,187.9 306.5,338.5 494.1,150.9 494.1,145.7 			"/>
			<polygon class="st3" points="494.1,261 306.5,448.6 306.5,485.9 376.2,485.9 494.1,367.9 			"/>
			<polygon class="st3" points="532.5,112.5 577.6,67.4 517.1,67.4 517.1,112.5 			"/>
			<polygon class="st3" points="609.4,145.7 517.1,238 517.1,344.9 704.8,157.3 704.8,145.7 			"/>
			<polygon class="st3" points="704.8,112.5 704.8,67.4 687.7,67.4 642.6,112.5 			"/>
			<polygon class="st3" points="704.8,379.6 598.5,485.9 704.8,485.9 			"/>
			<polygon class="st3" points="704.8,242.5 517.1,430.1 517.1,485.9 552.8,485.9 704.8,333.9 			"/>
		</g>
		<g>
			<rect x="56.9" y="475.4" class="st4" width="686.2" height="20.8"/>
		</g>
	</g>
	<g>
		<g>
			
				<linearGradient id="SVGID_1_" gradientUnits="userSpaceOnUse" x1="548.3885" y1="521.1592" x2="672.616" y2="521.1592" gradientTransform="matrix(-0.8345 -0.5511 0.5511 -0.8345 733.3683 1073.8724)">
				<stop  offset="0" style="stop-color:#FDDEDC"/>
				<stop  offset="1" style="stop-color:#FDBCB8"/>
			</linearGradient>
			<path class="st5" d="M458.9,276.6c0,0,25.4,15.9,45.6,28.7c13.5,8.5,24.7,15.5,24.7,15.5c7.4-10.5,13.8-22.3,20.6-33.7
				c10.8,6.7,21.4,13.7,32.2,20.8c-15.9,19.2-41,52.5-45.1,52.5s-21.7-19.1-43.5-38.2c-22-19.4-44.1-38.8-44.1-38.8L458.9,276.6z"/>
			
				<linearGradient id="SVGID_2_" gradientUnits="userSpaceOnUse" x1="663.7305" y1="497.9016" x2="698.5343" y2="497.9016" gradientTransform="matrix(-0.8345 -0.5511 0.5511 -0.8345 733.3683 1073.8724)">
				<stop  offset="0" style="stop-color:#FDDEDC"/>
				<stop  offset="1" style="stop-color:#FDBCB8"/>
			</linearGradient>
			<path class="st6" d="M438.6,279.1v-2.2c-4.2-1.4-8.5-1.5-12.8-0.1c-2,0.6-2.6-2.6-0.6-3.2c5.4-1.7,11-1.4,16.2,0.8l17.5,2.1
				l-0.2,6.9c-0.1,2-1,4-2.6,5.2l-5.2,4.3l-2.7-0.1c-0.2,0.1-0.5,0.1-0.8,0c-0.1,0-0.2,0-0.3,0l-8.2-0.3c-2.9,0.4-5.8,1.4-8.5,3
				c-1.9,1-3.3-1.9-1.5-3c3.1-1.8,6.5-2.8,9.9-3.3v-1.7c-4.6-1.3-9.3-1.2-14,0.3c-2,0.6-2.6-2.6-0.6-3.2c4.8-1.5,9.8-1.7,14.6-0.6
				v-1.5c-5.3-2-10.8-2.2-16.3-0.4c-2,0.6-2.6-2.6-0.6-3.2C427.3,277.2,433.1,277.3,438.6,279.1z"/>
			<g>
				<path class="st7" d="M564.2,267.9c6.6-6.7,17.7-12.4,27.5-10.6c14.4,2.6,13.7,15.3,9.1,26.3c-2.1,5.1-5.1,9.8-7.8,13.1
					c-1.8,2.1-9.9,12-20,24.2c-10.8-7.1-21.4-14.1-32.2-20.8C547.8,288.5,555.1,277.3,564.2,267.9z"/>
			</g>
		</g>
		<g>
			<g>
				
					<linearGradient id="SVGID_3_" gradientUnits="userSpaceOnUse" x1="254.678" y1="454.1981" x2="236.1053" y2="405.7967" gradientTransform="matrix(0.9816 0.191 0.191 -0.9816 -77.5634 728.1535)">
					<stop  offset="0" style="stop-color:#FDDEDC"/>
					<stop  offset="1" style="stop-color:#FDBCB8"/>
				</linearGradient>
				<path class="st8" d="M278.3,401.1l-49.6-15c0.3-1.7,0.5-3.4,0.8-5.1c0.6-4.2,1.3-8.5,1.9-12.7c0.9-5.6,1.7-11.1,2.6-16.7
					c0.7-4.5,1.3-8.9,2.1-13.4s1.5-9.1,2.1-13.7c0.3-2.3,0.6-4.6,0.8-6.9c0.1-1.2,0.2-2.3,0.3-3.5c0.1-0.9-0.1-1.5-0.4-2.3
					c-1.1-3.4-2.9-6.4-5.7-8.6c-1-0.8-2-1.5-3.2-2c-0.1,0-0.1-0.1-0.2-0.1c-2-0.9-4.3-1.5-6.5-1.5c-2-0.1-4.7,0.1-6.5,1.2
					c-0.8,0.5-1.4,1.3-2.1,1.9c-1.3,1.3-2.5,2.8-3.5,4.3c-2.2,3.4-3.8,7.2-4.5,11.2c-0.4,2.4-0.3,4.7-0.3,7.1
					c0,4.1,0.1,8.1,0.1,12.2c0.1,5.1,0.1,10.3,0.2,15.4c0.1,5.4,0.1,10.8,0.2,16.3c0.1,4.9,0.1,9.8,0.2,14.7c0,3.6,0.1,7.1,0.1,10.7
					c0,1.4,0,2.8,0,4.2c0.7,3.6,65.3,11.5,65.3,11.5L278.3,401.1z"/>
				
					<linearGradient id="SVGID_4_" gradientUnits="userSpaceOnUse" x1="282.4214" y1="374.0872" x2="317.2985" y2="374.0872" gradientTransform="matrix(0.9816 0.191 0.191 -0.9816 -77.5634 728.1535)">
					<stop  offset="0" style="stop-color:#FDDEDC"/>
					<stop  offset="1" style="stop-color:#FDBCB8"/>
				</linearGradient>
				<path class="st9" d="M304.1,425.7c-3-4.8-7.3-8.3-12.5-10.3l1.3-1.6c4,1.5,7.1,4.1,9.5,7.8c1.1,1.7,3.5-0.3,2.5-2
					c-2.9-4.6-7.2-7.8-12.4-9.3l-14.1-9.2l-6,7.6l1.8,9.4l2,1.6c0.1,0.2,0.3,0.4,0.6,0.5c0.1,0,0.1,0.1,0.2,0.1l6.2,4.9
					c1.9,2.1,3.4,4.6,4.4,7.4c0.7,1.9,3.6,0.6,2.9-1.3c-1.2-3.2-3-6.1-5.2-8.5l1.1-1.3c4.2,1.9,7.5,4.8,10.1,8.9
					c1.1,1.7,3.5-0.3,2.5-2c-2.6-4.1-6.2-7.3-10.4-9.4l0.9-1.1c5.2,1.8,9.3,5,12.2,9.7C302.7,429.4,305.2,427.4,304.1,425.7z"/>
			</g>
			<path class="st10" d="M240.7,460.1c4.3,1.6,47.3,100.3,50.1,109c2.9,8.6,22.8,120.9,22.8,120.9l-12-3.2l-29.2-78.6v-34.3
				l-77-90.7L240.7,460.1z"/>
		</g>
		<path class="st11" d="M327.4,703.8l-12.9-11.4l-13.3-3.3l-8.2,12.5l48.2,16.1c0,0,1.2-1.5-1.5-5.2
			C337,708.7,327.4,703.8,327.4,703.8z"/>
		
			<linearGradient id="SVGID_5_" gradientUnits="userSpaceOnUse" x1="436.6776" y1="517.9437" x2="458.7904" y2="517.9437" gradientTransform="matrix(1 0 0 -1 0 800)">
			<stop  offset="0" style="stop-color:#FDDEDC"/>
			<stop  offset="1" style="stop-color:#FDBCB8"/>
		</linearGradient>
		<path class="st12" d="M458.7,281.1c0,0,0.3,4.7-6.1,4.7s-4.9-1.7-4.9-1.7l-6,0.6l-2.4,3.5c-0.5,0.7-1.4,0.8-2,0.3l0,0
			c-0.5-0.4-0.7-1.2-0.3-1.8l3.7-6l8.7-5.4l9.5,1.1L458.7,281.1z"/>
		<g>
			<g>
				<g>
					<polygon class="st13" points="281.7,708.3 286.8,708.7 305.8,447.1 300.6,446.7 					"/>
					<polygon class="st13" points="470.7,708.3 465.5,708.7 446.6,447.1 451.7,446.7 					"/>
				</g>
				<rect x="261.2" y="437.9" class="st14" width="230.1" height="6.3"/>
				<rect x="282.3" y="444.2" class="st15" width="187.9" height="6.3"/>
				<g>
					<polygon class="st15" points="260,728.8 266.4,729.3 289.6,447.1 283.3,446.7 					"/>
					<polygon class="st15" points="492.3,728.8 486,729.3 462.7,447.1 469,446.7 					"/>
				</g>
			</g>
			<g>
				<g>
					<g>
						<g>
							<g>
								
									<linearGradient id="SVGID_6_" gradientUnits="userSpaceOnUse" x1="358.2661" y1="289.719" x2="209.0153" y2="115.3605" gradientTransform="matrix(0.741 -0.6715 -0.6715 -0.741 324.8458 754.9602)">
									<stop  offset="0" style="stop-color:#C01468"/>
									<stop  offset="1" style="stop-color:#CC0A60"/>
								</linearGradient>
								<polygon class="st16" points="410.4,391 386.3,412 382,437.7 387.2,437.7 404.9,419.2 416.7,414.6 								"/>
								
									<linearGradient id="SVGID_7_" gradientUnits="userSpaceOnUse" x1="409.5808" y1="245.7908" x2="260.3372" y2="71.4406" gradientTransform="matrix(0.741 -0.6715 -0.6715 -0.741 324.8458 754.9602)">
									<stop  offset="0" style="stop-color:#C01468"/>
									<stop  offset="1" style="stop-color:#CC0A60"/>
								</linearGradient>
								<polygon class="st17" points="456.8,391.6 480.4,413.2 484,439 478.8,438.9 461.6,419.9 449.9,415 								"/>
							</g>
							
								<linearGradient id="SVGID_8_" gradientUnits="userSpaceOnUse" x1="383.7774" y1="260.2752" x2="535.332" y2="427.5157" gradientTransform="matrix(0.741 -0.6715 -0.6715 -0.741 324.8458 754.9602)">
								<stop  offset="0" style="stop-color:#C01468"/>
								<stop  offset="1" style="stop-color:#CC0A60"/>
							</linearGradient>
							<path class="st18" d="M435,281.7c-10.1-0.1-19.2,20.4-24.8,38.6l48.5,0.6C453.7,302.7,445.1,281.9,435,281.7z"/>
							
								<image style="overflow:visible;enable-background:new    ;" width="250" height="483" xlink:href="66FF039E18681C47.png"  transform="matrix(0.2386 0 0 0.2386 404.2139 320.256)">
							</image>
						</g>
					</g>
				</g>
				<g>
					<g>
						<rect x="430.2" y="361.4" class="st19" width="26" height="19.4"/>
						<rect x="430.2" y="361.4" class="st20" width="24.5" height="19.4"/>
					</g>
					<g>
						<circle class="st21" cx="452.3" cy="367.4" r="0.7"/>
						<circle class="st22" cx="452.3" cy="370.8" r="0.7"/>
						<circle class="st23" cx="452.3" cy="374.1" r="0.7"/>
					</g>
					<g>
						<path class="st24" d="M439.9,380.6v-7.9c0-0.8,0.6-1.4,1.4-1.4h2.3c0.8,0,1.4,0.6,1.4,1.4v7.9"/>
						<path class="st25" d="M436.3,380.6v-7.9c0-0.8,0.6-1.4,1.4-1.4h2.3c0.8,0,1.4,0.6,1.4,1.4v7.9"/>
						<path class="st26" d="M433.2,380.6v-7.9c0-0.8,0.6-1.4,1.4-1.4h2.3c0.8,0,1.4,0.6,1.4,1.4v7.9"/>
					</g>
					<rect x="432.3" y="363.5" class="st27" width="14.3" height="0.5"/>
					<rect x="432.3" y="364.6" class="st27" width="14.3" height="0.5"/>
					<rect x="432.3" y="365.8" class="st27" width="14.3" height="0.5"/>
				</g>
			</g>
			<g>
				<g>
					<path class="st28" d="M387.2,381.4c1.2,1.6,1.7,3.6,1.2,5.7l-11.5,47.4h-42.7L387.2,381.4z"/>
					<path class="st28" d="M264.4,434.5h66.7l-3.9,3.9h-66.7C260.5,436.3,262.2,434.5,264.4,434.5z"/>
					<path class="st28" d="M376.8,434.5c0,2.2-1.7,3.9-3.9,3.9h-45.7l3.9-3.9H376.8z"/>
					<path class="st28" d="M260.5,438.4h35.1c2.2,0,3.9-1.7,3.9-3.9h-35.1C262.2,434.5,260.5,436.3,260.5,438.4z"/>
					<g>
						<path class="st28" d="M299.5,434.5l12.3-50.6c0.8-3.1,3.5-5.3,6.7-5.3h63.1c2.3,0,4.3,1.1,5.6,2.8l-53.1,53.1H299.5z"/>
					</g>
					<path class="st29" d="M296.2,434.5h77.3l12.2-49.9c0.7-3-1.6-6-4.7-6h-65.7c-3.2,0-6,2.2-6.7,5.3L296.2,434.5z"/>
					<path class="st2" d="M379,380.8h-62.5c-3,0-5.7,2-6.4,5l-2,8.1l-1.4,5.8l-4.8,20.1l-3.5,14.6h73.4l0.3-1.2l3.4-14.1l2.7-11.4
						l5.1-21.3C384.1,383.4,381.9,380.8,379,380.8z"/>
					<polygon class="st30" points="317.1,384.5 312.4,404 310.1,413.6 358.5,413.6 365.5,384.5 					"/>
					<polygon class="st30" points="338.6,404.8 335.2,419.2 333.5,426.3 369.2,426.3 374.4,404.8 					"/>
					<polygon class="st30" points="368.4,384.5 367.9,386.7 367.6,387.8 373,387.8 373.8,384.5 					"/>
					<polygon class="st30" points="375.2,384.5 374.7,386.7 374.4,387.8 379.8,387.8 380.6,384.5 					"/>
					<path class="st30" d="M315.3,429.7l-0.5,2.2l-0.3,1.1h5.4l0.8-3.3H315.3z M341,429.7l-0.5,2.2l-0.3,1.1h5.4l0.8-3.3H341z
						 M320.7,429.7H341l-0.8,3.3H320L320.7,429.7z"/>
				</g>
				<g>
					
						<linearGradient id="SVGID_9_" gradientUnits="userSpaceOnUse" x1="375.3" y1="392.75" x2="453.4" y2="392.75" gradientTransform="matrix(1 0 0 -1 0 800)">
						<stop  offset="0" style="stop-color:#159FD5"/>
						<stop  offset="0.1635" style="stop-color:#2D8BC6"/>
						<stop  offset="0.5093" style="stop-color:#6B599E"/>
						<stop  offset="1" style="stop-color:#CC0A60"/>
					</linearGradient>
					<path class="st31" d="M447,435.1h-8.2c-3.5,0-6.4-2.9-6.4-6.4v-13.3c0-2.2-1.8-4-4-4h-6.5c-2.2,0-4,1.8-4,4V427
						c0,3.5-2.9,6.4-6.4,6.4h-35c-0.7,0-1.2-0.5-1.2-1.2s0.5-1.2,1.2-1.2h35c2.2,0,4-1.8,4-4v-11.6c0-3.5,2.9-6.4,6.4-6.4h6.5
						c3.5,0,6.4,2.9,6.4,6.4v13.3c0,2.2,1.8,4,4,4h8.2c2.2,0,4-1.8,4-4v-48.1c0-0.7,0.5-1.2,1.2-1.2s1.2,0.5,1.2,1.2v48.1
						C453.4,432.2,450.6,435.1,447,435.1z"/>
				</g>
			</g>
		</g>
		<g>
			<path class="st32" d="M224.3,344.4c6.8-5.8,12.7-12.4,18.6-19c3.5-4,7.1-7.9,10.6-11.9c4.3-4.8,8.7-9.7,11.7-15.4
				c5.1-9.3,6.3-19.9,7.5-30.3c1.4-12.5,2.8-25,4.2-37.6c0.3-2.5,0.5-5.1-0.4-7.4c-0.9-2.3-3.4-4.4-6-4c4.6-3.5,5.1-10.3,2.3-15.2
				c-2.8-4.9-8.1-8.1-13.6-10.2c-17.1-6.8-37.7-5.1-53.2,4.3s-25.7,26.4-26.2,43.7c-0.2,8.2,1.3,17.4-4,23.9
				c-4.8,6-14.5,8.5-16.4,15.8c-1.6,6.4,4,12.6,3.7,19.2c-0.3,7.5-7.9,12.8-11.9,19.3c-6.1,10.1-2.9,23.8,6,31.9s22.4,10.8,34.6,8.7
				S215.1,352.2,224.3,344.4z"/>
			<g>
				<g>
					<path class="st33" d="M145.9,712.4v4.5c0,6.4,22.8,11.6,50.9,11.6s50.9-5.2,50.9-11.6v-4.5c0-6.4-22.8-11.6-50.9-11.6
						C168.7,700.9,145.9,706,145.9,712.4z"/>
					
						<linearGradient id="SVGID_10_" gradientUnits="userSpaceOnUse" x1="145.9" y1="87.7" x2="211.4" y2="87.7" gradientTransform="matrix(1 0 0 -1 0 800)">
						<stop  offset="0" style="stop-color:#159FD5"/>
						<stop  offset="1" style="stop-color:#3F7DBA"/>
					</linearGradient>
					<path class="st34" d="M145.9,712.4c0-6.4,22.8-11.6,50.9-11.6c5.1,0,10,0.2,14.6,0.5l-22.5,22.5
						C164.5,723,145.9,718.2,145.9,712.4z"/>
					<path class="st7" d="M247.8,712.4c0,6.4-22.8,11.6-50.9,11.6c-2.7,0-5.4,0-8-0.1l22.5-22.5
						C232.4,702.8,247.8,707.2,247.8,712.4z"/>
				</g>
				<rect x="194.8" y="483.2" class="st33" width="5.3" height="225.7"/>
				<g>
					<path class="st33" d="M151.7,635.4c0-10.2,23-15.6,45.6-15.6c22.7,0,45.6,5.3,45.6,15.6c0,10.2-23,15.6-45.6,15.6
						C174.6,650.9,151.7,645.6,151.7,635.4z M156.5,635.4c0,4.4,15.9,10.7,40.8,10.7s40.8-6.4,40.8-10.7s-15.9-10.7-40.8-10.7
						C172.4,624.6,156.5,631,156.5,635.4z"/>
				</g>
				<g>
					<path class="st7" d="M261.9,481.2v16.1c0,6.4-29.1,11.6-65.1,11.6s-65.1-5.2-65.1-11.6v-16.1H261.9z"/>
					
						<linearGradient id="SVGID_11_" gradientUnits="userSpaceOnUse" x1="131.7" y1="318.8" x2="261.9" y2="318.8" gradientTransform="matrix(1 0 0 -1 0 800)">
						<stop  offset="0" style="stop-color:#159FD5"/>
						<stop  offset="1" style="stop-color:#3F7DBA"/>
					</linearGradient>
					<ellipse class="st35" cx="196.8" cy="481.2" rx="65.1" ry="11.6"/>
				</g>
			</g>
			<g>
				<path class="st36" d="M179.6,439.5c-12.1,0.8-24.6-10-33.1-7.9c-4.9,1.2-7.5,10.4-7.3,14.2c0.4,9.6,1.2,22.4,6.7,29.9
					c15.5,20.7,141.9,36.5,141.9,36.5s-21.8,22-26.7,31.3c-4.9,9.3-29.2,83.9-29.2,83.9l8.8,7.9c0,0,83.1-134,82.1-139.3
					C321.8,490.8,212.4,437.3,179.6,439.5z"/>
				<path class="st11" d="M245.5,654.1l-5.9-16.2l-10-9.3l-13.2,7l34.6,37.2c0,0,2.4-0.6,1.2-5.3S245.5,654.1,245.5,654.1z"/>
			</g>
			
				<linearGradient id="SVGID_12_" gradientUnits="userSpaceOnUse" x1="195.3906" y1="349.6" x2="195.3906" y2="523.2366" gradientTransform="matrix(1 0 0 -1 0 800)">
				<stop  offset="1.762821e-02" style="stop-color:#A52A7A"/>
				<stop  offset="1" style="stop-color:#CC0A60"/>
			</linearGradient>
			<path class="st37" d="M235.6,299.4c-4.9-7.5-6.9-21.2-16.6-22.4c-23.1-2.8-35.9,19.8-38.2,38.9c-1.5,12.5-2.4,25.1-3.6,37.7
				c-0.7,7.6-0.1,18.6-3.9,25.4c-6.7,12.1-23,39.2-32.3,54.6c-3.1,5.2-4.4,11,1.6,11.4l81.8,5.4c0,0,2-33.2,0-51.7
				c-1.4-13,4-21.1,7.8-33.4c1.7-5.7,2.3-8.6,6.5-13.3c4.1-4.5,11.7-9.9,13.2-16.2C255,322.6,242.8,310.4,235.6,299.4z"/>
			<g>
				
					<linearGradient id="SVGID_13_" gradientUnits="userSpaceOnUse" x1="204.137" y1="546.0086" x2="259.9644" y2="546.0086" gradientTransform="matrix(1 0 0 -1 0 800)">
					<stop  offset="0" style="stop-color:#FDDEDC"/>
					<stop  offset="1" style="stop-color:#FDBCB8"/>
				</linearGradient>
				<path class="st38" d="M256.5,248.1c-2.9-2.4-3.3-6.7-2.5-10.4s2.1-5.3,2.6-9s-2.4-8.7-5.7-10.5c0,0-21.3-0.9-25.5,10.3
					c-2.7,7.1-7.7,12.1-7.7,12.1c0.2-8.9-7.6-6.6-9.5-4.7c-1.9,1.9-2.3,5.2-1,7.5c1.3,2.4,3.9,4.2,6.6,3.9l-9.8,34
					c5.3,3.1,10.8,5.7,16.2,8.5c1-1.2,9.9-18.7,12.2-18c4.6,1.3,9,5.6,13.4,3.7c3.4-1.5,4.2-5.9,4.4-9.6s0.8-8.1,4.1-9.8
					c2.1-1.1,5.5-1.5,5.6-3.9C260,250.3,257.9,249.3,256.5,248.1z"/>
			</g>
			<g>
				
					<linearGradient id="SVGID_14_" gradientUnits="userSpaceOnUse" x1="305.7635" y1="368.0219" x2="305.7635" y2="400.9" gradientTransform="matrix(1 0 0 -1 0 800)">
					<stop  offset="0" style="stop-color:#FDDEDC"/>
					<stop  offset="1" style="stop-color:#FDBCB8"/>
				</linearGradient>
				<path class="st39" d="M320.3,418.9c1.2,1.7,3.6-0.5,2.4-2.2c-3.2-4.6-7.9-7.6-13.3-8.9l-15.1-8.7l-5.8,8.2l2.4,9.6l2.2,1.5
					c0.2,0.2,0.4,0.4,0.6,0.5c0.1,0,0.2,0.1,0.2,0.1l6.7,4.7c2.1,2.1,3.8,4.6,5,7.4c0.9,1.9,3.8,0.4,2.9-1.5
					c-1.4-3.3-3.4-6.1-5.9-8.4l1-1.4c4.4,1.7,8.1,4.6,10.9,8.6c1.2,1.7,3.6-0.5,2.4-2.2c-2.9-4.1-6.8-7.2-11.3-9.1l0.9-1.2
					c5.4,1.5,9.8,4.7,13.2,9.3c1.2,1.7,3.6-0.5,2.4-2.2c-3.4-4.7-8-8.1-13.5-9.9l1.3-1.7C314.3,412.7,317.7,415.2,320.3,418.9z"/>
				
					<linearGradient id="SVGID_15_" gradientUnits="userSpaceOnUse" x1="185.0189" y1="449.2048" x2="294.3" y2="449.2048" gradientTransform="matrix(1 0 0 -1 0 800)">
					<stop  offset="0" style="stop-color:#FDDEDC"/>
					<stop  offset="1" style="stop-color:#FDBCB8"/>
				</linearGradient>
				<path class="st40" d="M294.3,399.1l-76.5-11.2l1.9-81.9c-2.3-10.7-12.1-20.1-22.3-16l0,0c-8.8,3.5-14.7,17.4-11.5,26.4
					c0,0,8.5,89.8,11.8,94.5c3.3,4.7,91.3-2,91.3-2L294.3,399.1z"/>
			</g>
		</g>
		<g>
			<g>
				<path class="st11" d="M534.7,206c-1.7,3.3-6.1,4.9-9.5,3.5s-5.4-5.7-4.2-9.2c-4.3,1.1-9.2-1.9-10.3-6.2c-1-4.3,2-9.2,6.3-10.2
					c-4.3-3.9-4.9-11.2-1.3-15.8c3.6-4.6,10.9-5.7,15.7-2.4c-0.1-5.3,3.9-10.5,9.1-11.6c5.2-1.1,11,1.8,13.2,6.8
					c3.7-3.5,9.6-4.4,14.2-2.3c4.6,2.1,7.7,7.2,7.5,12.3c4.2-0.8,8.8,1.1,11.2,4.7s2.4,8.5,0.1,12.1c3.9,0.7,7,4.3,7.2,8.2
					s-2.5,7.8-6.3,8.9c2.7,1.7,4,5.2,3.2,8.3c-0.8,3-3.8,5.4-7,5.5c2,2.1,1.2,5.9-1.1,7.7c-2.3,1.9-5.4,2.2-8.4,2.1
					c-2.9-0.1-5.9-0.5-8.8,0.1L534.7,206z"/>
				<g>
					<g>
						<path class="st33" d="M558,711.3v4.5c0,6.4,23,11.7,51.3,11.7s51.3-5.2,51.3-11.7v-4.5c0-6.4-23-11.7-51.3-11.7
							C581,699.7,558,704.9,558,711.3z"/>
						
							<linearGradient id="SVGID_16_" gradientUnits="userSpaceOnUse" x1="558" y1="88.8" x2="624" y2="88.8" gradientTransform="matrix(1 0 0 -1 0 800)">
							<stop  offset="1.762821e-02" style="stop-color:#A52A7A"/>
							<stop  offset="1" style="stop-color:#CC0A60"/>
						</linearGradient>
						<path class="st41" d="M558,711.3c0-6.4,23-11.7,51.3-11.7c5.1,0,10,0.2,14.7,0.5l-22.7,22.7C576.8,722,558,717.2,558,711.3z"
							/>
						
							<linearGradient id="SVGID_17_" gradientUnits="userSpaceOnUse" x1="601.3" y1="88.4" x2="660.6" y2="88.4" gradientTransform="matrix(1 0 0 -1 0 800)">
							<stop  offset="0" style="stop-color:#921468"/>
							<stop  offset="1" style="stop-color:#AD0A60"/>
						</linearGradient>
						<path class="st42" d="M660.6,711.3c0,6.4-23,11.7-51.3,11.7c-2.7,0-5.4,0-8-0.1l22.7-22.7
							C645.1,701.6,660.6,706.1,660.6,711.3z"/>
					</g>
					<path class="st33" d="M610,707.8L610,707.8c1.5,0,2.6-1.2,2.6-2.6V480.5h-5.3v224.6C607.3,706.6,608.5,707.8,610,707.8z"/>
					<g>
						<path class="st33" d="M563.8,633.7c0-10.3,23.1-15.7,45.9-15.7c22.8,0,45.9,5.4,45.9,15.7s-23.1,15.7-45.9,15.7
							C586.9,649.4,563.8,644,563.8,633.7z M568.6,633.7c0,4.4,16,10.8,41.1,10.8s41.1-6.4,41.1-10.8c0-4.4-16-10.8-41.1-10.8
							S568.6,629.3,568.6,633.7z"/>
					</g>
					<g>
						
							<linearGradient id="SVGID_18_" gradientUnits="userSpaceOnUse" x1="541" y1="307.55" x2="677.6" y2="307.55" gradientTransform="matrix(1 0 0 -1 0 800)">
							<stop  offset="0" style="stop-color:#921468"/>
							<stop  offset="1" style="stop-color:#AD0A60"/>
						</linearGradient>
						<path class="st43" d="M677.6,478.5v16.2c0,6.4-30.6,11.7-68.3,11.7s-68.3-5.2-68.3-11.7v-16.2H677.6z"/>
						
							<linearGradient id="SVGID_19_" gradientUnits="userSpaceOnUse" x1="541" y1="321.5" x2="677.6" y2="321.5" gradientTransform="matrix(1 0 0 -1 0 800)">
							<stop  offset="0" style="stop-color:#C01468"/>
							<stop  offset="1" style="stop-color:#CC0A60"/>
						</linearGradient>
						<ellipse class="st44" cx="609.3" cy="478.5" rx="68.3" ry="11.7"/>
					</g>
				</g>
				<g>
					<g>
						<path class="st10" d="M562.8,415c12.3,0.8,52.1-4.4,60.7-2.3c5,1.2,7.6,10.6,7.4,14.4c-0.4,9.8-1.2,22.7-6.8,30.3
							c-15.7,21-135.9,35.9-135.9,35.9l23,22.5l25.8,95.3l-8.9,8c0,0-84.9-133.9-83.2-141.1c1.7-7.2,72.7-38.7,118.3-52.6L562.8,415
							z"/>
						<path class="st11" d="M523.2,638.1l5.9-16.4l10.2-9.4l13.4,7.1l-35.1,37.7c0,0-1.2-1.2-1.2-5.4
							C516.4,647.7,523.2,638.1,523.2,638.1z"/>
					</g>
					<g>
						<path class="st36" d="M590.1,421.7c12.3,0.8,52.1-4.4,60.7-2.3c5,1.2,7.6,10.6,7.4,14.4c-0.4,9.8-1.2,22.7-6.8,30.3
							C635.7,485,515.5,500,515.5,500s20.5,16.9,23,22.5s25.8,95.3,25.8,95.3l-8.9,8c0,0-84.5-134.9-83.2-141.1
							s72.7-38.7,118.3-52.6L590.1,421.7z"/>
						<path class="st11" d="M550.5,644.8l5.9-16.4l10.2-9.4l13.4,7.1l-35.1,37.7c0,0-3,3.7-1.2-5.4
							C545.5,649.4,550.5,644.8,550.5,644.8z"/>
					</g>
					<g>
						<g>
							
								<linearGradient id="SVGID_20_" gradientUnits="userSpaceOnUse" x1="494.5791" y1="516.108" x2="494.5791" y2="371.8931" gradientTransform="matrix(-1 0 0 -1 1099.3867 800)">
								<stop  offset="0" style="stop-color:#159FD5"/>
								<stop  offset="1" style="stop-color:#3F7DBA"/>
							</linearGradient>
							<path class="st45" d="M579.4,240.5c11.3,0.5,21.5,6.8,28.7,14.7c7.1,8,11.6,17.6,15.7,27.1c14.3,32.9,40.9,140.4,34.2,151.1
								l-96.3-8.7c-2.1-12.9-4.9-82.1-9.3-120.2c-2-17.7-4.9-37.3,6.8-51.6L579.4,240.5z"/>
							<g>
								<g>
									
										<linearGradient id="SVGID_21_" gradientUnits="userSpaceOnUse" x1="511.7867" y1="571.6178" x2="571.3867" y2="571.6178" gradientTransform="matrix(-1 0 0 -1 1099.3867 800)">
										<stop  offset="0" style="stop-color:#FDDEDC"/>
										<stop  offset="1" style="stop-color:#FDBCB8"/>
									</linearGradient>
									<path class="st46" d="M533.9,193.6c-2.8,1.6-3.7,5.3-3.3,8.5s1.9,6.2,2.6,9.4c0.7,3.2,0.3,6.9-2.2,9c-1.2,1-3,1.8-3,3.4
										c0,2.1,3,2.4,4.8,3.4c2.8,1.5,3.3,5.3,3.5,8.5s0.9,7,3.8,8.3c3.8,1.7,7.6-2.1,11.6-3.2c3.7-1,7.7,0.5,10.7,2.9
										s10.8,16.6,12.8,19.8c6.7-0.8,12.3-10.5,12.4-20.5l-19.8-23.3c2.3,0.3,4.6-1.3,5.7-3.3c1.1-2.1,0.8-4.8-0.8-6.5
										s-8.3-3.7-8.2,4c0,0-4.6-4.3-6.6-10.5C553.5,190,533.9,193.6,533.9,193.6z"/>
								</g>
							</g>
							<g>
								<path class="st7" d="M580.9,287.3c1.8-9.2,7.9-20.1,17.1-24c13.4-5.7,19.9,5.2,22.1,16.9c1,5.4,1.2,11,0.7,15.2
									c-0.3,3-1.9,18.5-3.9,36.7c-12.4-2.9-25.1-5-37.8-6.8C578.5,312.5,578.5,299.7,580.9,287.3z"/>
								
									<linearGradient id="SVGID_22_" gradientUnits="userSpaceOnUse" x1="482.5868" y1="439.2107" x2="606.1868" y2="439.2107" gradientTransform="matrix(-1 0 0 -1 1099.3867 800)">
									<stop  offset="0" style="stop-color:#FDDEDC"/>
									<stop  offset="1" style="stop-color:#FDBCB8"/>
								</linearGradient>
								<path class="st47" d="M499.8,368.3c0,0,27.7-0.6,51.6-1.2c15.9-0.4,29.1-0.7,29.1-0.7c0.4-13.4-0.9-27.3-1.5-41.1
									c12.7,1.7,25.3,3.8,37.8,6.8c-2.6,23.8-1.8,59.4-8.1,63.2c-6.3,3.7-28.6-4-57.3-8c-29-4-58.2-8.1-58.2-8.1L499.8,368.3z"/>
								
									<linearGradient id="SVGID_23_" gradientUnits="userSpaceOnUse" x1="615.5914" y1="404.2659" x2="615.5914" y2="431.6727" gradientTransform="matrix(-1 0 0 -1 1099.3867 800)">
									<stop  offset="0" style="stop-color:#FDDEDC"/>
									<stop  offset="1" style="stop-color:#FDBCB8"/>
								</linearGradient>
								<path class="st48" d="M465.6,382.5c4.7-3.6,10.1-5.5,15.9-5.6l-0.8-2c-4.4,0.1-8.5,1.5-12.1,4.3c-1.7,1.3-3.4-1.6-1.7-2.8
									c4.5-3.5,10-5.1,15.7-4.7h0.1l17.1-3.3l2.9,8.9l-5.1,8.6l-2.5,0.8c-0.2,0.1-0.5,0.2-0.8,0.3c-0.1,0-0.2,0-0.3,0l-7.8,2.6
									c-2.6,1.4-5,3.3-7,5.7c-1.4,1.6-3.8-0.7-2.4-2.3c2.4-2.7,5.1-4.9,8.2-6.4l-0.6-1.6c-4.7,0.4-9.1,2-13.1,5.1
									c-1.7,1.3-3.4-1.6-1.7-2.8c4-3.1,8.6-4.9,13.5-5.5l-0.5-1.4c-5.7-0.1-10.9,1.6-15.5,5.1
									C465.6,386.6,463.9,383.8,465.6,382.5z"/>
							</g>
						</g>
					</g>
				</g>
			</g>
			
				<linearGradient id="SVGID_24_" gradientUnits="userSpaceOnUse" x1="436.6776" y1="517.9437" x2="458.7904" y2="517.9437" gradientTransform="matrix(1 0 0 -1 0 800)">
				<stop  offset="0" style="stop-color:#FDDEDC"/>
				<stop  offset="1" style="stop-color:#FDBCB8"/>
			</linearGradient>
			<path class="st49" d="M458.7,281.1c0,0,0.3,4.7-6.1,4.7s-4.9-1.7-4.9-1.7l-6,0.6l-2.4,3.5c-0.5,0.7-1.4,0.8-2,0.3l0,0
				c-0.5-0.4-0.7-1.2-0.3-1.8l3.7-6l8.7-5.4l9.5,1.1L458.7,281.1z"/>
		</g>
	</g>
</g>
<g>
	
		<linearGradient id="SVGID_25_" gradientUnits="userSpaceOnUse" x1="229.6" y1="167.35" x2="240.7337" y2="167.35" gradientTransform="matrix(1 0 0 -1 0 800)">
		<stop  offset="0" style="stop-color:#FDDEDC"/>
		<stop  offset="1" style="stop-color:#FDBCB8"/>
	</linearGradient>
	<polygon class="st50" points="229.6,628.6 232,627.4 240.7,635.4 239.6,637.9 	"/>
	
		<linearGradient id="SVGID_26_" gradientUnits="userSpaceOnUse" x1="301.2" y1="110.4" x2="314.4543" y2="110.4" gradientTransform="matrix(1 0 0 -1 0 800)">
		<stop  offset="0" style="stop-color:#FDDEDC"/>
		<stop  offset="1" style="stop-color:#FDBCB8"/>
	</linearGradient>
	<polyline class="st51" points="301.7,686.8 301.2,689.1 314.4,692.4 313.7,690 	"/>
	
		<linearGradient id="SVGID_27_" gradientUnits="userSpaceOnUse" x1="528.056" y1="183.6" x2="539.3372" y2="183.6" gradientTransform="matrix(1 0 0 -1 0 800)">
		<stop  offset="0" style="stop-color:#FDDEDC"/>
		<stop  offset="1" style="stop-color:#FDBCB8"/>
	</linearGradient>
	<polyline class="st52" points="528.1,619.1 529.2,621.7 539.3,612.3 536.9,611.1 	"/>
	
		<linearGradient id="SVGID_28_" gradientUnits="userSpaceOnUse" x1="555.3315" y1="176.9" x2="566.6127" y2="176.9" gradientTransform="matrix(1 0 0 -1 0 800)">
		<stop  offset="0" style="stop-color:#FDDEDC"/>
		<stop  offset="1" style="stop-color:#FDBCB8"/>
	</linearGradient>
	<polyline class="st53" points="555.3,625.8 556.4,628.4 566.6,619 564.2,617.8 	"/>
</g>
</svg>
