<?xml version="1.0" encoding="utf-8"?>
<!-- Generator: Adobe Illustrator 21.0.0, SVG Export Plug-In . SVG Version: 6.00 Build 0)  -->
<svg version="1.1" id="Layer_1" xmlns="http://www.w3.org/2000/svg" xmlns:xlink="http://www.w3.org/1999/xlink" x="0px" y="0px"
	 viewBox="0 0 800 800" style="enable-background:new 0 0 800 800;" xml:space="preserve">
<style type="text/css">
	.st0{opacity:0.2;fill:#2E5175;enable-background:new    ;}
	.st1{opacity:0.77;}
	.st2{fill:#D9D9DA;}
	.st3{fill:#EFEFF0;}
	.st4{fill:#B3BDC3;}
	.st5{fill:url(#SVGID_1_);}
	.st6{fill:url(#SVGID_2_);}
	.st7{fill:#0770AA;}
	.st8{fill:url(#SVGID_3_);}
	.st9{fill:url(#SVGID_4_);}
	.st10{fill:#1C1C1C;}
	.st11{fill:#231F20;}
	.st12{fill:#141414;}
	.st13{fill:#705105;}
	.st14{fill:#303030;}
	.st15{fill:#3B405F;}
	.st16{fill:#101537;}
	.st17{fill:#FFFFFF;}
	.st18{fill:#2D304F;}
	.st19{fill:none;}
	.st20{fill:#F18A00;}
	.st21{opacity:0.1;fill:#231F20;enable-background:new    ;}
	.st22{fill:#424242;}
	.st23{fill:url(#SVGID_5_);}
	.st24{fill:url(#SVGID_6_);}
	.st25{fill:url(#SVGID_7_);}
	.st26{fill:url(#SVGID_8_);}
	.st27{fill:#2D2D2D;}
	.st28{fill:url(#SVGID_9_);}
	.st29{fill:url(#SVGID_10_);}
	.st30{fill:url(#SVGID_11_);}
	.st31{fill:url(#SVGID_12_);}
	.st32{fill:#E2795A;}
	.st33{fill:url(#SVGID_13_);}
	.st34{fill:url(#SVGID_14_);}
	.st35{fill:url(#SVGID_15_);}
	.st36{fill:url(#SVGID_16_);}
	.st37{fill:url(#SVGID_17_);}
	.st38{fill:url(#SVGID_18_);}
	.st39{fill:url(#SVGID_19_);}
	.st40{fill:url(#SVGID_20_);}
	.st41{fill:url(#SVGID_21_);}
	.st42{fill:url(#SVGID_22_);}
	.st43{fill:url(#SVGID_23_);}
	.st44{fill:url(#SVGID_24_);}
	.st45{fill:url(#SVGID_25_);}
</style>
<path class="st0" d="M670.9,719c-45-2.6-90.2-3.9-135.3-4.6c6.7-1.8,6.8-7.4-1.5-8.1c-3.8-0.3-7.9-0.6-12.2-0.8
	c-2-0.4-4.2-0.5-6.5-0.5c-0.9,0-1.8,0-2.8,0.1c-30.9-1.3-72.2-1.1-112.7-0.7c-40.5-0.4-81.7-0.6-112.7,0.7c-0.9,0-1.9,0-2.8-0.1
	c-2.3,0-4.4,0.1-6.5,0.5c-4.3,0.2-8.4,0.5-12.2,0.8c-8.2,0.7-8.2,6.3-1.5,8.1c-45.1,0.7-90.4,1.9-135.3,4.6
	c-17.9,1.1-19.2,16.8-1.1,17.1c62,1.3,124.7,0,187-1.8c14-0.4,156-0.4,170,0c62.3,1.9,125,3.1,187,1.8
	C690.1,735.8,688.8,720.1,670.9,719z"/>
<g>
	<g>
		<g class="st1">
			<rect x="517.4" y="145.7" class="st2" width="187" height="340.7"/>
			<rect x="517.4" y="67.3" class="st2" width="187" height="45.2"/>
			<rect x="95.2" y="67.3" class="st2" width="188.5" height="45.2"/>
			<rect x="95.2" y="145.7" class="st2" width="188.5" height="340.7"/>
			<rect x="307.1" y="67.3" class="st2" width="187" height="45.2"/>
			<rect x="307.1" y="145.7" class="st2" width="187" height="340.7"/>
		</g>
		<polygon class="st3" points="283.5,112.5 283.5,67.4 190.2,67.4 145.1,112.5 		"/>
		<polygon class="st3" points="111.9,145.7 95.9,161.7 95.9,330 280.1,145.7 		"/>
		<polygon class="st3" points="283.5,210.9 95.9,398.5 95.9,485.9 159.1,485.9 283.5,361.5 		"/>
		<polygon class="st3" points="313.4,112.5 358.4,67.4 306.5,67.4 306.5,112.5 		"/>
		<polygon class="st3" points="494.1,112.5 494.1,67.4 427,67.4 381.9,112.5 		"/>
		<polygon class="st3" points="348.7,145.7 306.5,187.9 306.5,338.5 494.1,150.9 494.1,145.7 		"/>
		<polygon class="st3" points="494.1,261 306.5,448.6 306.5,485.9 376.2,485.9 494.1,367.9 		"/>
		<polygon class="st3" points="532.5,112.5 577.6,67.4 517.1,67.4 517.1,112.5 		"/>
		<polygon class="st3" points="609.4,145.7 517.1,238 517.1,344.9 704.8,157.3 704.8,145.7 		"/>
		<polygon class="st3" points="704.8,112.5 704.8,67.4 687.7,67.4 642.6,112.5 		"/>
		<polygon class="st3" points="704.8,379.6 598.5,485.9 704.8,485.9 		"/>
		<polygon class="st3" points="704.8,242.5 517.1,430.1 517.1,485.9 552.8,485.9 704.8,333.9 		"/>
	</g>
	<g>
		<rect x="56.9" y="475.4" class="st4" width="686.2" height="20.8"/>
	</g>
</g>
<linearGradient id="SVGID_1_" gradientUnits="userSpaceOnUse" x1="4784.3247" y1="1170.5789" x2="4893.688" y2="1170.5789" gradientTransform="matrix(-0.9412 0.3377 -0.3377 -0.9412 5505.6582 -149.7206)">
	<stop  offset="0" style="stop-color:#FDDEDC"/>
	<stop  offset="1" style="stop-color:#FDBCB8"/>
</linearGradient>
<path class="st5" d="M520.5,446.7l68.2-36.4l-29.4-76.5c-1.4-10.9,4.6-23,15.6-22.6l0,0c9.5,0.3,19.7,11.5,19.8,21
	c0,0,22.4,87.4,20.8,92.9c-1.6,5.6-86.6,28.9-86.6,28.9L520.5,446.7z"/>
<g>
	<g>
		
			<linearGradient id="SVGID_2_" gradientUnits="userSpaceOnUse" x1="569.7211" y1="442.013" x2="544.3485" y2="432.9091" gradientTransform="matrix(1 0 0 -1 0 800)">
			<stop  offset="0" style="stop-color:#FDDEDC"/>
			<stop  offset="1" style="stop-color:#FDBCB8"/>
		</linearGradient>
		<polygon class="st6" points="560.4,412 546.3,312.5 553.4,312.5 565.2,413.5 		"/>
		<g>
			<g>
				<path class="st7" d="M545.3,276.4c1.1-9.3,6.5-20.6,15.4-25.2c13-6.7,20.2,3.7,23.3,15.3c1.4,5.3,2,10.9,1.8,15.1
					c-0.1,2.7-0.5,15.5-1.1,31.3c-12.9,0.9-25.6,1.9-38.2,3.1C544.9,302.7,543.8,289.4,545.3,276.4z"/>
			</g>
		</g>
		<g>
			<g>
				
					<linearGradient id="SVGID_3_" gradientUnits="userSpaceOnUse" x1="1399.7605" y1="-396.8562" x2="1381.1879" y2="-445.2575" gradientTransform="matrix(0.6838 0.7297 0.7297 -0.6838 -416.095 -932.9515)">
					<stop  offset="0" style="stop-color:#FDDEDC"/>
					<stop  offset="1" style="stop-color:#FDBCB8"/>
				</linearGradient>
				<path class="st8" d="M225.9,427.9l-31.4-41.2c1.2-1.2,2.4-2.4,3.6-3.7c3-3.1,6-6.1,9-9.2c4-4,7.9-8,11.9-12
					c3.2-3.2,6.3-6.5,9.5-9.6c3.3-3.2,6.6-6.5,9.7-9.9c1.6-1.7,3.2-3.4,4.7-5.2c0.8-0.9,1.5-1.7,2.3-2.6c0.6-0.7,0.8-1.2,1-2.1
					c1.1-3.4,1.4-6.8,0.4-10.3c-0.3-1.2-0.8-2.4-1.4-3.5c0-0.1-0.1-0.1-0.1-0.2c-1.1-2-2.6-3.7-4.4-5c-1.6-1.2-3.9-2.7-5.9-2.9
					c-0.9-0.1-1.9,0.2-2.8,0.3c-1.8,0.3-3.6,0.8-5.4,1.5c-3.8,1.4-7.3,3.6-10.2,6.5c-1.7,1.7-3,3.6-4.4,5.6c-2.3,3.3-4.7,6.6-7,9.9
					c-3,4.2-5.9,8.4-8.9,12.6c-3.1,4.4-6.3,8.9-9.4,13.3c-2.8,4-5.6,8-8.5,12c-2.1,2.9-4.1,5.8-6.2,8.7c-0.8,1.2-1.6,2.3-2.4,3.5
					c-1.5,3.4,46.2,47.6,46.2,47.6L225.9,427.9z"/>
				
					<linearGradient id="SVGID_4_" gradientUnits="userSpaceOnUse" x1="1438.1323" y1="-484.8448" x2="1451.0587" y2="-467.0424" gradientTransform="matrix(0.6838 0.7297 0.7297 -0.6838 -416.095 -932.9515)">
					<stop  offset="0" style="stop-color:#FDDEDC"/>
					<stop  offset="1" style="stop-color:#FDBCB8"/>
				</linearGradient>
				<path class="st9" d="M232.3,462.9c0.3-5.6-1.1-11-4.1-15.7l2-0.5c2.3,3.6,3.4,7.5,3.1,11.9c-0.1,2,3,1.8,3.2-0.2
					c0.3-5.4-1.3-10.5-4.6-14.8l-6.1-15.8l-9.3,2.6l-4.1,8.7l0.7,2.5c0,0.2,0,0.5,0.2,0.7c0,0.1,0.1,0.2,0.1,0.2l2.2,7.6
					c0.3,2.8,0,5.7-0.7,8.6c-0.5,2,2.6,2.6,3.1,0.6c0.9-3.3,1.1-6.7,0.7-9.9l1.6-0.4c2.3,4,3.3,8.3,3,13.1c-0.1,2,3,1.8,3.2-0.2
					c0.3-4.9-0.7-9.5-2.9-13.7l1.4-0.3c3.1,4.5,4.6,9.5,4.2,15C229.1,465.1,232.2,464.9,232.3,462.9z"/>
			</g>
			<path class="st10" d="M240.7,460.1c4.3,1.6,47.3,100.3,50.1,109S313.6,690,313.6,690l-12-3.2l-29.2-78.6v-34.3l-77-90.7
				L240.7,460.1z"/>
		</g>
		<path class="st11" d="M327.3,703.8l-12.9-11.4l-13.3-3.3l-8.2,12.5l48.2,16.1c0,0,1.2-1.5-1.5-5.2
			C337,708.7,327.3,703.8,327.3,703.8z"/>
		<g>
			<g>
				<g>
					<polygon class="st12" points="281.7,708.2 286.8,708.7 305.8,447.1 300.6,446.6 					"/>
					<polygon class="st12" points="470.7,708.2 465.5,708.7 446.6,447.1 451.7,446.6 					"/>
				</g>
				<rect x="261.2" y="437.9" class="st13" width="230.1" height="6.3"/>
				<rect x="282.3" y="444.2" class="st14" width="187.9" height="6.3"/>
				<g>
					<polygon class="st14" points="260,728.8 266.3,729.3 289.6,447.1 283.3,446.6 					"/>
					<polygon class="st14" points="492.3,728.8 486,729.3 462.7,447.1 469,446.6 					"/>
				</g>
			</g>
			<g>
				<path class="st15" d="M358.6,391.8c12.2,0,24.4,0,36.7,0c0.3,0,0.6,0.2,0.6,0.5l6.6,45c0,0.3-0.2,0.5-0.5,0.5
					c-28.4,0-21.7,0-50.1,0c-0.3,0-0.5-0.2-0.5-0.5l6.6-45C358,392.1,358.3,391.8,358.6,391.8z"/>
				<path class="st15" d="M282.4,286.4h188.7c1.5,0,2.8,1.2,2.8,2.8v120c0,1.5-1.2,2.8-2.8,2.8H282.4c-1.5,0-2.8-1.2-2.8-2.8v-120
					C279.6,287.6,280.9,286.4,282.4,286.4z"/>
				<path class="st16" d="M284.4,290h185c1,0,1.8,0.8,1.8,1.8v107.6c0,0.6-0.5,1.1-1.1,1.1H283.8c-0.6,0-1.1-0.5-1.1-1.1V291.8
					C282.6,290.8,283.4,290,284.4,290z"/>
				<rect x="287.8" y="295.1" class="st17" width="178.3" height="100.3"/>
				<path class="st2" d="M425.2,395.4H311.1c-0.8,0-1.4-0.6-1.4-1.4v-26.5c0-0.8,0.6-1.4,1.4-1.4h114.1c0.8,0,1.4,0.6,1.4,1.4V394
					C426.6,394.8,425.9,395.4,425.2,395.4z"/>
				<rect x="309.6" y="387.5" class="st2" width="116.9" height="7.9"/>
				<g>
					<path class="st2" d="M311,299.5h114.2c0.8,0,1.4,0.7,1.4,1.6v4.9c0,0.9-0.6,1.6-1.4,1.6H311c-0.8,0-1.4-0.7-1.4-1.6v-4.9
						C309.6,300.2,310.3,299.5,311,299.5z"/>
					<g>
						<circle class="st2" cx="435.4" cy="303.5" r="3.1"/>
						<circle class="st2" cx="447.2" cy="303.5" r="3.1"/>
						<circle class="st2" cx="459" cy="303.5" r="3.1"/>
					</g>
				</g>
				<path class="st18" d="M391.4,416.8l1.7,12.3h8l-2.4-17.1h-41.1h-2.3l-0.6,4.3c0.8,0,1.5,0,2.3,0c11.3,0,22.5,0,33.8,0
					C391,416.2,391.3,416.5,391.4,416.8z"/>
				<path class="st2" d="M423.6,360.8H312.3c-1.6,0-2.9-1.3-2.9-2.9v-41.2c0-1.6,1.3-2.9,2.9-2.9h111.2c1.6,0,2.9,1.3,2.9,2.9V358
					C426.4,359.5,425.1,360.8,423.6,360.8z"/>
				<path class="st2" d="M303.4,395.4h-7.1c-1.7,0-3-1.4-3-3v-75.7c0-1.7,1.4-3,3-3h7.1c1.7,0,3,1.4,3,3v75.7
					C306.4,394,305,395.4,303.4,395.4z"/>
				<line class="st19" x1="288.9" y1="342.8" x2="287.1" y2="346.1"/>
				<path class="st2" d="M435.3,395.4h23.3c1.9,0,3.5-1.6,3.5-3.5v-71.2c0-1.9-1.6-3.5-3.5-3.5h-23.3c-1.9,0-3.5,1.6-3.5,3.5v71.2
					C431.9,393.8,433.5,395.4,435.3,395.4z"/>
				<path class="st2" d="M431.9,395.4H462l0,0v-7.8l0,0h-30.1l0,0V395.4L431.9,395.4z"/>
				<path class="st20" d="M303.5,307.6H296c-1.6,0-2.9-1.3-2.9-2.9v-2.3c0-1.6,1.3-2.9,2.9-2.9h7.5c1.6,0,2.9,1.3,2.9,2.9v2.3
					C306.4,306.3,305.1,307.6,303.5,307.6z"/>
				<path class="st21" d="M406.8,324.1h-87c-0.9,0-1.6-0.7-1.6-1.6l0,0c0-0.9,0.7-1.6,1.6-1.6h87c0.9,0,1.6,0.7,1.6,1.6l0,0
					C408.4,323.4,407.7,324.1,406.8,324.1z"/>
				<path class="st21" d="M415.7,333.6h-95.9c-0.9,0-1.6-0.7-1.6-1.6l0,0c0-0.9,0.7-1.6,1.6-1.6h95.9c0.9,0,1.6,0.7,1.6,1.6l0,0
					C417.4,332.9,416.6,333.6,415.7,333.6z"/>
				<path class="st21" d="M397.6,342.8h-77.7c-0.9,0-1.6-0.7-1.6-1.6l0,0c0-0.9,0.7-1.6,1.6-1.6h77.7c0.9,0,1.6,0.7,1.6,1.6l0,0
					C399.2,342,398.5,342.8,397.6,342.8z"/>
				<path class="st21" d="M357.1,352.8h-37.2c-0.9,0-1.6-0.7-1.6-1.6l0,0c0-0.9,0.7-1.6,1.6-1.6h37.2c0.9,0,1.6,0.7,1.6,1.6l0,0
					C358.7,352.1,358,352.8,357.1,352.8z"/>
				<path class="st21" d="M413.1,376.6H320c-0.9,0-1.6-0.7-1.6-1.6l0,0c0-0.9,0.7-1.6,1.6-1.6h93.1c0.9,0,1.6,0.7,1.6,1.6l0,0
					C414.8,375.9,414,376.6,413.1,376.6z"/>
				<path class="st21" d="M367.2,383.4h-44.9c-0.9,0-1.6-0.7-1.6-1.6l0,0c0-0.9,0.7-1.6,1.6-1.6h44.9c0.9,0,1.6,0.7,1.6,1.6l0,0
					C368.9,382.7,368.1,383.4,367.2,383.4z"/>
				<path class="st21" d="M360,305.2h-45c-0.9,0-1.6-0.7-1.6-1.6l0,0c0-0.9,0.7-1.6,1.6-1.6h45c0.9,0,1.6,0.7,1.6,1.6l0,0
					C361.6,304.4,360.9,305.2,360,305.2z"/>
				<circle class="st21" cx="437.6" cy="325" r="1.8"/>
				
					<ellipse transform="matrix(0.999 -4.570926e-02 4.570926e-02 0.999 -14.8194 20.3526)" class="st21" cx="437.6" cy="334.2" rx="1.8" ry="1.8"/>
				
					<ellipse transform="matrix(0.999 -4.570926e-02 4.570926e-02 0.999 -15.1942 20.3611)" class="st21" cx="437.6" cy="342.4" rx="1.8" ry="1.8"/>
			</g>
		</g>
		<g>
			<g>
				<path class="st11" d="M534.7,205.9c-1.7,3.3-6.1,4.9-9.5,3.5s-5.4-5.7-4.2-9.2c-4.3,1.1-9.2-1.9-10.3-6.2c-1-4.3,2-9.2,6.3-10.2
					c-4.3-3.9-4.9-11.2-1.3-15.8c3.6-4.6,10.9-5.7,15.7-2.4c-0.1-5.3,3.9-10.5,9.1-11.6c5.2-1.1,11,1.8,13.2,6.8
					c3.7-3.5,9.6-4.4,14.2-2.3c4.6,2.1,7.7,7.2,7.5,12.3c4.2-0.8,8.8,1.1,11.2,4.7s2.4,8.5,0.1,12.1c3.9,0.7,7,4.3,7.2,8.2
					s-2.5,7.8-6.3,8.9c2.7,1.7,4,5.2,3.2,8.3c-0.8,3-3.8,5.4-7,5.5c2,2.1,1.2,5.9-1.1,7.7c-2.3,1.9-5.4,2.2-8.4,2.1
					c-2.9-0.1-5.9-0.5-8.8,0.1L534.7,205.9z"/>
				<g>
					<g>
						<path class="st22" d="M558,711.3v4.5c0,6.4,23,11.7,51.3,11.7s51.3-5.2,51.3-11.7v-4.5c0-6.4-23-11.7-51.3-11.7
							S558,704.9,558,711.3z"/>
						
							<linearGradient id="SVGID_5_" gradientUnits="userSpaceOnUse" x1="558" y1="88.8" x2="624" y2="88.8" gradientTransform="matrix(1 0 0 -1 0 800)">
							<stop  offset="1.762821e-02" style="stop-color:#A52A7A"/>
							<stop  offset="1" style="stop-color:#CC0A60"/>
						</linearGradient>
						<path class="st23" d="M558,711.3c0-6.4,23-11.7,51.3-11.7c5.1,0,10,0.2,14.7,0.5l-22.7,22.7C576.7,721.9,558,717.1,558,711.3z
							"/>
						
							<linearGradient id="SVGID_6_" gradientUnits="userSpaceOnUse" x1="601.2709" y1="88.4" x2="660.5709" y2="88.4" gradientTransform="matrix(1 0 0 -1 0 800)">
							<stop  offset="0" style="stop-color:#921468"/>
							<stop  offset="1" style="stop-color:#AD0A60"/>
						</linearGradient>
						<path class="st24" d="M660.5,711.3c0,6.4-23,11.7-51.3,11.7c-2.7,0-5.4,0-8-0.1l22.7-22.7C645.1,701.6,660.5,706,660.5,711.3z
							"/>
					</g>
					<path class="st22" d="M609.9,707.7L609.9,707.7c1.5,0,2.6-1.2,2.6-2.6V480.4h-5.3V705C607.3,706.5,608.5,707.7,609.9,707.7z"/>
					<g>
						<path class="st22" d="M563.8,633.7c0-10.3,23.1-15.7,45.9-15.7c22.8,0,45.9,5.4,45.9,15.7s-23.1,15.7-45.9,15.7
							C586.9,649.4,563.8,644,563.8,633.7z M568.6,633.7c0,4.4,16,10.8,41.1,10.8s41.1-6.4,41.1-10.8c0-4.4-16-10.8-41.1-10.8
							S568.6,629.3,568.6,633.7z"/>
					</g>
					<g>
						
							<linearGradient id="SVGID_7_" gradientUnits="userSpaceOnUse" x1="541" y1="307.55" x2="677.6" y2="307.55" gradientTransform="matrix(1 0 0 -1 0 800)">
							<stop  offset="0" style="stop-color:#921468"/>
							<stop  offset="1" style="stop-color:#AD0A60"/>
						</linearGradient>
						<path class="st25" d="M677.6,478.5v16.2c0,6.4-30.6,11.7-68.3,11.7s-68.3-5.2-68.3-11.7v-16.2H677.6z"/>
						
							<linearGradient id="SVGID_8_" gradientUnits="userSpaceOnUse" x1="541" y1="321.5" x2="677.6" y2="321.5" gradientTransform="matrix(1 0 0 -1 0 800)">
							<stop  offset="0" style="stop-color:#C01468"/>
							<stop  offset="1" style="stop-color:#CC0A60"/>
						</linearGradient>
						<ellipse class="st26" cx="609.3" cy="478.5" rx="68.3" ry="11.7"/>
					</g>
				</g>
				<g>
					<g>
						<path class="st10" d="M562.8,414.9c12.3,0.8,52.1-4.4,60.7-2.3c5,1.2,7.6,10.6,7.4,14.4c-0.4,9.8-1.2,22.7-6.8,30.3
							c-15.7,21-135.9,35.9-135.9,35.9l23,22.5L537,611l-8.9,8c0,0-84.9-133.9-83.2-141.1c1.7-7.2,72.7-38.7,118.3-52.6L562.8,414.9
							z"/>
						<path class="st11" d="M523.2,638.1l5.9-16.4l10.2-9.4l13.4,7.1l-35.1,37.7c0,0-1.2-1.2-1.2-5.4
							C516.4,647.6,523.2,638.1,523.2,638.1z"/>
					</g>
					<g>
						<path class="st27" d="M590.1,421.6c12.3,0.8,52.1-4.4,60.7-2.3c5,1.2,7.6,10.6,7.4,14.4c-0.4,9.8-1.2,22.7-6.8,30.3
							c-15.7,21-135.9,35.9-135.9,35.9s20.5,16.9,23,22.5c2.5,5.6,25.8,95.3,25.8,95.3l-8.9,8c0,0-84.5-134.9-83.2-141.1
							s72.7-38.7,118.3-52.6L590.1,421.6z"/>
						<path class="st11" d="M550.5,644.8l5.9-16.4l10.2-9.4l13.4,7.1l-35.1,37.7c0,0-3,3.7-1.2-5.4
							C545.5,649.4,550.5,644.8,550.5,644.8z"/>
					</g>
					<g>
						<g>
							
								<linearGradient id="SVGID_9_" gradientUnits="userSpaceOnUse" x1="494.5791" y1="516.1497" x2="494.5791" y2="371.9348" gradientTransform="matrix(-1 0 0 -1 1099.3867 800)">
								<stop  offset="0" style="stop-color:#159FD5"/>
								<stop  offset="1" style="stop-color:#3F7DBA"/>
							</linearGradient>
							<path class="st28" d="M579.4,240.5c11.3,0.5,21.5,6.8,28.7,14.7c7.1,8,11.6,17.6,15.7,27.1c14.3,32.9,40.9,140.4,34.2,151.1
								l-96.3-8.7c-2.1-12.9-4.9-82.1-9.3-120.2c-2-17.7-4.9-37.3,6.8-51.6L579.4,240.5z"/>
							<g>
								<g>
									
										<linearGradient id="SVGID_10_" gradientUnits="userSpaceOnUse" x1="511.7867" y1="571.6178" x2="571.3867" y2="571.6178" gradientTransform="matrix(-1 0 0 -1 1099.3867 800)">
										<stop  offset="0" style="stop-color:#FDDEDC"/>
										<stop  offset="1" style="stop-color:#FDBCB8"/>
									</linearGradient>
									<path class="st29" d="M533.9,193.6c-2.8,1.6-3.7,5.3-3.3,8.5s1.9,6.2,2.6,9.4c0.7,3.2,0.3,6.9-2.2,9c-1.2,1-3,1.8-3,3.4
										c0,2.1,3,2.4,4.8,3.4c2.8,1.5,3.3,5.3,3.5,8.5s0.9,7,3.8,8.3c3.8,1.7,7.6-2.1,11.6-3.2c3.7-1,7.7,0.5,10.7,2.9
										s10.8,16.6,12.8,19.8c6.7-0.8,12.3-10.5,12.4-20.5l-19.8-23.3c2.3,0.3,4.6-1.3,5.7-3.3c1.1-2.1,0.8-4.8-0.8-6.5
										s-8.3-3.7-8.2,4c0,0-4.6-4.3-6.6-10.5C553.5,190,533.9,193.6,533.9,193.6z"/>
								</g>
							</g>
							<g>
								
									<linearGradient id="SVGID_11_" gradientUnits="userSpaceOnUse" x1="4538.7725" y1="454.9048" x2="4648.0537" y2="454.9048" gradientTransform="matrix(-1 0 0 -1 5154.3535 800)">
									<stop  offset="0" style="stop-color:#FDDEDC"/>
									<stop  offset="1" style="stop-color:#FDBCB8"/>
								</linearGradient>
								<path class="st30" d="M506.3,393.4l76.5-11.2l-1.9-81.9c2.3-10.7,12.1-20.1,22.3-16l0,0c8.8,3.5,14.7,17.4,11.5,26.4
									c0,0-8.5,89.8-11.8,94.5c-3.3,4.7-91.3-2-91.3-2L506.3,393.4z"/>
								
									<linearGradient id="SVGID_12_" gradientUnits="userSpaceOnUse" x1="2242.8906" y1="-895.3058" x2="2242.8906" y2="-862.4212" gradientTransform="matrix(-0.2913 -0.9566 0.9566 -0.2913 1998.8914 2278.9397)">
									<stop  offset="0" style="stop-color:#FDDEDC"/>
									<stop  offset="1" style="stop-color:#FDBCB8"/>
								</linearGradient>
								<path class="st31" d="M497.3,376.6c-2-0.7-0.6-3.6,1.4-3c5.3,1.8,9.6,5.3,12.4,10.1l12.7,11.9l-6.2,7.9l-9.9,0.5l-2.1-1.6
									c-0.2-0.1-0.4-0.2-0.6-0.5c-0.1-0.1-0.1-0.1-0.2-0.2l-6.4-5c-2.6-1.4-5.5-2.3-8.5-2.6c-2.1-0.3-1.5-3.5,0.6-3.2
									c3.5,0.4,6.8,1.5,9.8,3.2l1-1.4c-2.9-3.7-6.7-6.4-11.4-7.9c-2-0.7-0.6-3.6,1.4-3c4.8,1.6,8.8,4.4,12,8.1l0.9-1.2
									c-3.1-4.7-7.3-8.1-12.8-9.9c-2-0.7-0.6-3.6,1.4-3c5.5,1.9,10.1,5.3,13.4,10l1.2-1.7C505,380.6,501.6,378.1,497.3,376.6z"/>
							</g>
							<g>
								<path class="st7" d="M580.8,287.3c1.8-9.2,7.9-20.1,17.1-24c13.4-5.7,19.9,5.2,22.1,16.9c1,5.4,1.2,11,0.7,15.2
									c-0.3,3-1.9,18.5-3.9,36.7c-12.4-2.9-25.1-5-37.8-6.8C578.5,312.5,578.5,299.6,580.8,287.3z"/>
							</g>
						</g>
					</g>
				</g>
			</g>
		</g>
		<g>
			<path class="st32" d="M224.3,345.5c6.8-5.8,12.7-12.4,18.6-19c3.5-4,7.1-7.9,10.6-11.9c4.3-4.8,8.7-9.7,11.7-15.4
				c5.1-9.3,6.3-19.9,7.5-30.3c1.4-12.5,2.8-25,4.2-37.6c0.3-2.5,0.5-5.1-0.4-7.4c-0.9-2.3-3.4-4.4-6-4c4.6-3.5,5.1-10.3,2.3-15.2
				c-2.8-4.9-8.1-8.1-13.6-10.2c-17.1-6.8-37.7-5.1-53.2,4.3c-15.6,9.4-25.7,26.4-26.2,43.7c-0.2,8.2,1.3,17.4-4,23.9
				c-4.8,6-14.5,8.5-16.4,15.8c-1.6,6.4,4,12.6,3.7,19.2c-0.3,7.5-7.9,12.8-11.9,19.3c-6.1,10.1-2.9,23.8,6,31.9s22.4,10.8,34.6,8.7
				S215.1,353.3,224.3,345.5z"/>
			<g>
				<g>
					<path class="st22" d="M145.9,713.5v4.5c0,6.4,22.8,11.6,50.9,11.6s50.9-5.2,50.9-11.6v-4.5c0-6.4-22.8-11.6-50.9-11.6
						C168.7,702,145.9,707.2,145.9,713.5z"/>
					
						<linearGradient id="SVGID_13_" gradientUnits="userSpaceOnUse" x1="145.9" y1="86.55" x2="211.4" y2="86.55" gradientTransform="matrix(1 0 0 -1 0 800)">
						<stop  offset="0" style="stop-color:#159FD5"/>
						<stop  offset="1" style="stop-color:#3F7DBA"/>
					</linearGradient>
					<path class="st33" d="M145.9,713.5c0-6.4,22.8-11.6,50.9-11.6c5.1,0,10,0.2,14.6,0.5L188.9,725
						C164.5,724.1,145.9,719.3,145.9,713.5z"/>
					<path class="st7" d="M247.8,713.5c0,6.4-22.8,11.6-50.9,11.6c-2.7,0-5.4,0-8-0.1l22.5-22.5
						C232.4,703.9,247.8,708.3,247.8,713.5z"/>
				</g>
				<rect x="194.8" y="484.3" class="st22" width="5.3" height="225.7"/>
				<g>
					<path class="st22" d="M151.6,636.5c0-10.2,23-15.6,45.6-15.6c22.7,0,45.6,5.3,45.6,15.6c0,10.2-23,15.6-45.6,15.6
						C174.6,652,151.6,646.7,151.6,636.5z M156.5,636.5c0,4.4,15.9,10.7,40.8,10.7s40.8-6.4,40.8-10.7c0-4.4-15.9-10.7-40.8-10.7
						C172.4,625.7,156.5,632.1,156.5,636.5z"/>
				</g>
				<g>
					<path class="st7" d="M261.9,482.3v16.1c0,6.4-29.1,11.6-65.1,11.6s-65.1-5.2-65.1-11.6v-16.1H261.9z"/>
					
						<linearGradient id="SVGID_14_" gradientUnits="userSpaceOnUse" x1="131.7" y1="317.7" x2="261.9" y2="317.7" gradientTransform="matrix(1 0 0 -1 0 800)">
						<stop  offset="0" style="stop-color:#159FD5"/>
						<stop  offset="1" style="stop-color:#3F7DBA"/>
					</linearGradient>
					<ellipse class="st34" cx="196.8" cy="482.3" rx="65.1" ry="11.6"/>
				</g>
			</g>
			<g>
				<path class="st27" d="M179.6,440.6c-12.1,0.8-24.6-10-33.1-7.9c-4.9,1.2-7.5,10.4-7.3,14.2c0.4,9.6,1.2,22.4,6.7,29.9
					c15.5,20.7,141.9,36.5,141.9,36.5s-21.8,22-26.7,31.3c-4.9,9.3-29.2,83.9-29.2,83.9l8.8,7.9c0,0,83.1-134,82.1-139.3
					C321.7,491.9,212.3,438.4,179.6,440.6z"/>
				<path class="st11" d="M245.5,655.2l-5.9-16.2l-10-9.3l-13.2,7L251,674c0,0,2.4-0.6,1.2-5.3S245.5,655.2,245.5,655.2z"/>
			</g>
			
				<linearGradient id="SVGID_15_" gradientUnits="userSpaceOnUse" x1="195.3906" y1="348.5" x2="195.3906" y2="522.1366" gradientTransform="matrix(1 0 0 -1 0 800)">
				<stop  offset="1.762821e-02" style="stop-color:#A52A7A"/>
				<stop  offset="1" style="stop-color:#CC0A60"/>
			</linearGradient>
			<path class="st35" d="M235.6,300.5c-4.9-7.5-6.9-21.2-16.6-22.4c-23.1-2.8-35.9,19.8-38.2,38.9c-1.5,12.5-2.4,25.1-3.6,37.7
				c-0.7,7.6-0.1,18.6-3.9,25.4c-6.7,12.1-23,39.2-32.3,54.6c-3.1,5.2-4.4,11,1.6,11.4l81.8,5.4c0,0,2-33.2,0-51.7
				c-1.4-13,4-21.1,7.8-33.4c1.7-5.7,2.3-8.6,6.5-13.3c4.1-4.5,11.7-9.9,13.2-16.2C255,323.7,242.8,311.5,235.6,300.5z"/>
			<g>
				
					<linearGradient id="SVGID_16_" gradientUnits="userSpaceOnUse" x1="204.1277" y1="544.9086" x2="259.9551" y2="544.9086" gradientTransform="matrix(1 0 0 -1 0 800)">
					<stop  offset="0" style="stop-color:#FDDEDC"/>
					<stop  offset="1" style="stop-color:#FDBCB8"/>
				</linearGradient>
				<path class="st36" d="M256.5,249.2c-2.9-2.4-3.3-6.7-2.5-10.4s2.1-5.3,2.6-9s-2.4-8.7-5.7-10.5c0,0-21.3-0.9-25.5,10.3
					c-2.7,7.1-7.7,12.1-7.7,12.1c0.2-8.9-7.6-6.6-9.5-4.7c-1.9,1.9-2.3,5.2-1,7.5c1.3,2.4,3.9,4.2,6.6,3.9l-9.8,34
					c5.3,3.1,10.8,5.7,16.2,8.5c1-1.2,9.9-18.7,12.2-18c4.6,1.3,9,5.6,13.4,3.7c3.4-1.5,4.2-5.9,4.4-9.6s0.8-8.1,4.1-9.8
					c2.1-1.1,5.5-1.5,5.6-3.9C260,251.4,257.9,250.4,256.5,249.2z"/>
			</g>
			<g>
				
					<linearGradient id="SVGID_17_" gradientUnits="userSpaceOnUse" x1="520.5049" y1="-31.2181" x2="520.5049" y2="1.6744" gradientTransform="matrix(0.9936 0.1133 0.1133 -0.9936 -262.0984 391.4877)">
					<stop  offset="0" style="stop-color:#FDDEDC"/>
					<stop  offset="1" style="stop-color:#FDBCB8"/>
				</linearGradient>
				<path class="st37" d="M267.4,470.1c1,1.8,3.7-0.1,2.7-1.9c-2.7-4.9-7-8.5-12.2-10.4l-14-10.4l-6.7,7.5l1.3,9.8l2,1.8
					c0.1,0.2,0.3,0.4,0.6,0.5c0.1,0,0.1,0.1,0.2,0.1l6.1,5.4c1.8,2.3,3.2,5,4.1,7.9c0.6,2,3.7,0.8,3.1-1.2c-1.1-3.4-2.7-6.4-4.9-9.1
					l1.2-1.2c4.2,2.2,7.5,5.5,9.9,9.7c1,1.8,3.7-0.1,2.7-1.9c-2.4-4.4-5.9-7.9-10.1-10.3l1-1.1c5.2,2.1,9.2,5.7,12,10.8
					c1,1.8,3.7-0.1,2.7-1.9c-2.8-5.1-7-9-12.2-11.4l1.5-1.5C262.1,463.3,265.2,466.2,267.4,470.1z"/>
				
					<linearGradient id="SVGID_18_" gradientUnits="userSpaceOnUse" x1="1039.2264" y1="-554.2769" x2="1148.5276" y2="-554.2769" gradientTransform="matrix(0.8791 0.4767 0.4767 -0.8791 -476.8233 -628.4264)">
					<stop  offset="0" style="stop-color:#FDDEDC"/>
					<stop  offset="1" style="stop-color:#FDBCB8"/>
				</linearGradient>
				<path class="st38" d="M245.6,448.8l-61.9-46.3l40.7-71.1c3.1-10.5-1.1-23.4-12-24.7l0,0c-9.4-1.1-21.2,8.3-22.7,17.7
					c0,0-35.4,82.9-34.7,88.7c0.7,5.7,81.2,41.7,81.2,41.7l9-5.7L245.6,448.8z"/>
			</g>
		</g>
	</g>
</g>
<g>
	
		<linearGradient id="SVGID_19_" gradientUnits="userSpaceOnUse" x1="387.5" y1="581.9" x2="506.9" y2="581.9" gradientTransform="matrix(1 0 0 -1 0 800)">
		<stop  offset="1.762821e-02" style="stop-color:#A52A7A"/>
		<stop  offset="1" style="stop-color:#CC0A60"/>
	</linearGradient>
	<path class="st39" d="M494.4,167.2H400c-6.9,0-12.5,5.6-12.5,12.5v51.4v3.8v32.7c0,0.6,0.3,1.1,0.9,1.3c0.5,0.2,1.1,0.1,1.5-0.3
		l21.2-21.2h83.3c6.9,0,12.5-5.6,12.5-12.5v-55.2C506.9,172.8,501.3,167.2,494.4,167.2z"/>
	<g>
		<path class="st17" d="M475,214.1c3.8,0,6.9-3.1,6.9-6.9c0-3.8-3.1-6.9-6.9-6.9s-6.9,3.1-6.9,6.9
			C468.1,211.1,471.2,214.1,475,214.1z"/>
		<path class="st17" d="M447.2,214.1c3.8,0,6.9-3.1,6.9-6.9c0-3.8-3.1-6.9-6.9-6.9s-6.9,3.1-6.9,6.9
			C440.3,211.1,443.4,214.1,447.2,214.1z"/>
		<path class="st17" d="M419.4,214.1c3.8,0,6.9-3.1,6.9-6.9c0-3.8-3.1-6.9-6.9-6.9s-6.9,3.1-6.9,6.9
			C412.5,211.1,415.6,214.1,419.4,214.1z"/>
	</g>
	
		<linearGradient id="SVGID_20_" gradientUnits="userSpaceOnUse" x1="285.8097" y1="560.348" x2="371.7115" y2="560.348" gradientTransform="matrix(1 0 0 -1 0 800)">
		<stop  offset="0" style="stop-color:#159FD5"/>
		<stop  offset="1" style="stop-color:#3F7DBA"/>
	</linearGradient>
	<path class="st40" d="M294.8,203h68c4.9,0,9,4,9,9v37v2.7v23.6c0,0.4-0.2,0.8-0.6,0.9c-0.4,0.2-0.8,0.1-1.1-0.2l-15.3-15.3h-59.9
		c-4.9,0-9-4-9-9V212C285.8,207,289.8,203,294.8,203z"/>
	<path class="st17" d="M311.2,215.1c-2.8,2.8-4.2,6.5-4.2,10.1c0,3.7,1.4,7.3,4.2,10.1c2.8,2.8,6.5,4.2,10.1,4.2
		c2.8,0,5.5-0.8,7.9-2.4l3.6,3.6c0.1,0.9,0.4,1.8,1.1,2.5l10.1,10.1c1.5,1.5,3.9,1.5,5.4,0s1.5-3.9,0-5.4l-10.1-10.1
		c-0.7-0.7-1.6-1.1-2.5-1.1l-3.6-3.6c1.6-2.4,2.4-5.1,2.4-7.9c0-3.7-1.4-7.3-4.2-10.1c-2.8-2.8-6.5-4.2-10.1-4.2
		C317.6,210.9,314,212.3,311.2,215.1L311.2,215.1z M312.7,225.3c0-2.2,0.8-4.4,2.5-6c1.7-1.7,3.9-2.5,6-2.5c2.2,0,4.4,0.8,6,2.5
		c1.7,1.7,2.5,3.9,2.5,6c0,2.2-0.8,4.4-2.5,6.1c-1.7,1.7-3.9,2.5-6.1,2.5s-4.4-0.8-6-2.5C313.6,229.6,312.7,227.5,312.7,225.3z"/>
</g>
<path class="st16" d="M405.3,437.9H351c-2.4,0-4.4-2-4.4-4.4l0,0c0-2.4,2-4.4,4.4-4.4h54.4c2.4,0,4.4,2,4.4,4.4l0,0
	C409.7,435.9,407.7,437.9,405.3,437.9z"/>
<linearGradient id="SVGID_21_" gradientUnits="userSpaceOnUse" x1="237.6" y1="345.6695" x2="237.6" y2="351.7695" gradientTransform="matrix(1 0 0 -1 0 800)">
	<stop  offset="0" style="stop-color:#FDDEDC"/>
	<stop  offset="0" style="stop-color:#FDC0BD"/>
	<stop  offset="1" style="stop-color:#FDBCB8"/>
</linearGradient>
<polygon class="st41" points="234,454.3 232.9,453.3 242.3,448.2 "/>
<ellipse transform="matrix(0.999 -4.570926e-02 4.570926e-02 0.999 -15.7245 19.573)" class="st21" cx="420.1" cy="353.6" rx="4.3" ry="4.3"/>
<ellipse transform="matrix(0.866 -0.5 0.5 0.866 -139.4752 262.5052)" class="st21" cx="420.1" cy="391.5" rx="4.3" ry="4.3"/>
<g>
	
		<linearGradient id="SVGID_22_" gradientUnits="userSpaceOnUse" x1="229.6" y1="167.35" x2="240.7337" y2="167.35" gradientTransform="matrix(1 0 0 -1 0 800)">
		<stop  offset="0" style="stop-color:#FDDEDC"/>
		<stop  offset="1" style="stop-color:#FDBCB8"/>
	</linearGradient>
	<polygon class="st42" points="229.6,628.6 232,627.4 240.7,635.4 239.6,637.9 	"/>
	
		<linearGradient id="SVGID_23_" gradientUnits="userSpaceOnUse" x1="301.2" y1="110.4" x2="314.4543" y2="110.4" gradientTransform="matrix(1 0 0 -1 0 800)">
		<stop  offset="0" style="stop-color:#FDDEDC"/>
		<stop  offset="1" style="stop-color:#FDBCB8"/>
	</linearGradient>
	<polyline class="st43" points="301.7,686.8 301.2,689.1 314.4,692.4 313.7,690 	"/>
	
		<linearGradient id="SVGID_24_" gradientUnits="userSpaceOnUse" x1="528.056" y1="183.6" x2="539.3372" y2="183.6" gradientTransform="matrix(1 0 0 -1 0 800)">
		<stop  offset="0" style="stop-color:#FDDEDC"/>
		<stop  offset="1" style="stop-color:#FDBCB8"/>
	</linearGradient>
	<polyline class="st44" points="528.1,619.1 529.2,621.7 539.3,612.3 536.9,611.1 	"/>
	
		<linearGradient id="SVGID_25_" gradientUnits="userSpaceOnUse" x1="555.3315" y1="176.9" x2="566.6127" y2="176.9" gradientTransform="matrix(1 0 0 -1 0 800)">
		<stop  offset="0" style="stop-color:#FDDEDC"/>
		<stop  offset="1" style="stop-color:#FDBCB8"/>
	</linearGradient>
	<polyline class="st45" points="555.3,625.8 556.4,628.4 566.6,619 564.2,617.8 	"/>
</g>
</svg>
