<?xml version="1.0" encoding="utf-8"?>
<!-- Generator: Adobe Illustrator 21.0.0, SVG Export Plug-In . SVG Version: 6.00 Build 0)  -->
<svg version="1.1" id="Layer_1" xmlns="http://www.w3.org/2000/svg" xmlns:xlink="http://www.w3.org/1999/xlink" x="0px" y="0px"
	 viewBox="0 0 400 400" style="enable-background:new 0 0 400 400;" xml:space="preserve">
<style type="text/css">
	.st0{fill:#FFFFFF;}
	.st1{fill:none;stroke:url(#SVGID_1_);stroke-width:33;stroke-miterlimit:10;}
</style>
<g>
	<path class="st0" d="M61.2,235.5c0-26.9-1.2-54,0.3-80.6c3.2-65.1,52-119.7,115.9-132c67.7-12.8,131.4,23.4,154.4,87.6
		c28.9,80-26,168.4-110.6,178.1c-8.2,0.9-16.1,1.5-24.2,1.2c-7.3-0.3-10.2,3.2-10.2,9.9c0,10.5,0.9,20.7-1.8,30.9
		c-7.6,30.9-37.1,52.3-67.1,48.5c-33-3.8-56.6-29.5-57.2-62.5c-0.3-27.2,0-54.3,0-81.5C60.9,235.5,60.9,235.5,61.2,235.5z"/>
</g>
<g>
	
		<linearGradient id="SVGID_1_" gradientUnits="userSpaceOnUse" x1="26.2593" y1="-251.5059" x2="310.6377" y2="32.8724" gradientTransform="matrix(1 0 0 -1 0 80)">
		<stop  offset="0" style="stop-color:#159FD5"/>
		<stop  offset="1" style="stop-color:#CC0A60"/>
	</linearGradient>
	<path class="st1" d="M61.2,235.5c0-26.9-1.2-54,0.3-80.6c3.2-65.1,52-119.7,115.9-132c67.7-12.8,131.4,23.4,154.4,87.6
		c28.9,80-26,168.4-110.6,178.1c-8.2,0.9-16.1,1.5-24.2,1.2c-7.3-0.3-10.2,3.2-10.2,9.9c0,10.5,0.9,20.7-1.8,30.9
		c-7.6,30.9-37.1,52.3-67.1,48.5c-33-3.8-56.6-29.5-57.2-62.5c-0.3-27.2,0-54.3,0-81.5C60.9,235.5,60.9,235.5,61.2,235.5z"/>
</g>
</svg>
