<?xml version="1.0" encoding="utf-8"?>
<!-- Generator: Adobe Illustrator 21.0.0, SVG Export Plug-In . SVG Version: 6.00 Build 0)  -->
<svg version="1.1" id="Layer_1" xmlns="http://www.w3.org/2000/svg" xmlns:xlink="http://www.w3.org/1999/xlink" x="0px" y="0px"
	 viewBox="0 0 800 800" style="enable-background:new 0 0 800 800;" xml:space="preserve">
<style type="text/css">
	.st0{opacity:0.2;fill:#2E5175;}
	.st1{opacity:0.77;}
	.st2{fill:#D9D9DA;}
	.st3{fill:#EFEFF0;}
	.st4{fill:#B3BDC3;}
	.st5{fill:url(#SVGID_1_);}
	.st6{fill:url(#SVGID_2_);}
	.st7{fill:#0770AA;}
	.st8{fill:url(#SVGID_3_);}
	.st9{fill:url(#SVGID_4_);}
	.st10{fill:#1C1C1C;}
	.st11{fill:#231F20;}
	.st12{fill:url(#SVGID_5_);}
	.st13{fill:#141414;}
	.st14{fill:#705105;}
	.st15{fill:#303030;}
	.st16{fill:url(#SVGID_6_);}
	.st17{fill:url(#SVGID_7_);}
	.st18{fill:url(#SVGID_8_);}
	.st19{fill:#6C6C6C;}
	.st20{fill:#212121;}
	.st21{fill:#4DD0E1;}
	.st22{fill:#FFB300;}
	.st23{fill:#D81B60;}
	.st24{fill:none;stroke:#AD1457;stroke-width:0.4044;stroke-miterlimit:10;}
	.st25{fill:none;stroke:#D81B60;stroke-width:0.4044;stroke-miterlimit:10;}
	.st26{fill:none;stroke:#EC407A;stroke-width:0.4044;stroke-miterlimit:10;}
	.st27{fill:#FFF3E0;}
	.st28{fill:#494949;}
	.st29{fill:#4D4D4F;}
	.st30{fill:url(#SVGID_9_);}
	.st31{opacity:0.52;fill:#FFFFFF;}
	.st32{fill:url(#SVGID_10_);}
	.st33{fill:#E2795A;}
	.st34{fill:#424242;}
	.st35{fill:url(#SVGID_11_);}
	.st36{fill:url(#SVGID_12_);}
	.st37{fill:#2D2D2D;}
	.st38{fill:url(#SVGID_13_);}
	.st39{fill:url(#SVGID_14_);}
	.st40{fill:url(#SVGID_15_);}
	.st41{fill:url(#SVGID_16_);}
	.st42{fill:url(#SVGID_17_);}
	.st43{fill:url(#SVGID_18_);}
	.st44{fill:url(#SVGID_19_);}
	.st45{fill:url(#SVGID_20_);}
	.st46{fill:url(#SVGID_21_);}
	.st47{fill:url(#SVGID_22_);}
	.st48{fill:url(#SVGID_23_);}
	.st49{fill:url(#SVGID_24_);}
	.st50{fill:url(#SVGID_25_);}
</style>
<g>
	<path class="st0" d="M652.7,715.5c-42.1-2.5-84.3-3.6-126.5-4.3c6.3-1.6,6.3-6.9-1.4-7.6c-3.5-0.3-7.4-0.6-11.4-0.8
		c-1.9-0.3-3.9-0.5-6-0.5c-0.9,0-1.7,0-2.6,0c-28.9-1.2-67.5-1-105.4-0.6c-37.8-0.4-76.4-0.6-105.4,0.6c-0.9,0-1.8,0-2.6,0
		c-2.1,0-4.1,0.1-6,0.5c-4.1,0.2-7.9,0.5-11.4,0.8c-7.7,0.6-7.7,5.9-1.4,7.6c-42.2,0.6-84.5,1.8-126.5,4.3c-16.7,1-17.9,15.7-1,16
		c58,1.2,116.6,0,174.9-1.7c13.1-0.4,145.9-0.4,159,0c58.2,1.7,116.9,2.9,174.9,1.7C670.6,731.1,669.4,716.4,652.7,715.5z"/>
	<g>
		<g>
			<g class="st1">
				<rect x="513.6" y="146.2" class="st2" width="187" height="340.7"/>
				<rect x="513.6" y="67.7" class="st2" width="187" height="45.2"/>
				<rect x="91.4" y="67.7" class="st2" width="188.5" height="45.2"/>
				<rect x="91.4" y="146.2" class="st2" width="188.5" height="340.7"/>
				<rect x="303.3" y="67.7" class="st2" width="187" height="45.2"/>
				<rect x="303.3" y="146.2" class="st2" width="187" height="340.7"/>
			</g>
			<polygon class="st3" points="279.6,112.9 279.6,67.8 186.3,67.8 141.2,112.9 			"/>
			<polygon class="st3" points="108,146.2 92,162.1 92,330.4 276.3,146.2 			"/>
			<polygon class="st3" points="279.6,211.3 92,399 92,486.3 155.3,486.3 279.6,361.9 			"/>
			<polygon class="st3" points="309.5,112.9 354.6,67.8 302.6,67.8 302.6,112.9 			"/>
			<polygon class="st3" points="490.3,112.9 490.3,67.8 423.1,67.8 378,112.9 			"/>
			<polygon class="st3" points="344.8,146.2 302.6,188.3 302.6,338.9 490.3,151.3 490.3,146.2 			"/>
			<polygon class="st3" points="490.3,261.4 302.6,449 302.6,486.3 372.3,486.3 490.3,368.4 			"/>
			<polygon class="st3" points="528.6,112.9 573.7,67.8 513.3,67.8 513.3,112.9 			"/>
			<polygon class="st3" points="605.5,146.2 513.3,238.4 513.3,345.4 700.9,157.7 700.9,146.2 			"/>
			<polygon class="st3" points="700.9,112.9 700.9,67.8 683.8,67.8 638.7,112.9 			"/>
			<polygon class="st3" points="700.9,380 594.6,486.3 700.9,486.3 			"/>
			<polygon class="st3" points="700.9,242.9 513.3,430.5 513.3,486.3 548.9,486.3 700.9,334.3 			"/>
		</g>
		<g>
			<rect x="56.5" y="475.8" class="st4" width="686.2" height="20.8"/>
		</g>
	</g>
	<g>
		<g>
			
				<linearGradient id="SVGID_1_" gradientUnits="userSpaceOnUse" x1="548.2618" y1="279.1926" x2="672.466" y2="279.1926" gradientTransform="matrix(-0.8345 -0.5511 -0.5511 0.8345 1174.2483 406.2724)">
				<stop  offset="0" style="stop-color:#FDDEDC"/>
				<stop  offset="1" style="stop-color:#FDBCB8"/>
			</linearGradient>
			<path class="st5" d="M458.9,277c0,0,25.4,15.9,45.6,28.7c13.5,8.5,24.7,15.5,24.7,15.5c7.4-10.5,13.8-22.3,20.6-33.7
				c10.8,6.7,21.4,13.7,32.2,20.8c-15.9,19.2-41,52.5-45.1,52.5s-21.7-19.1-43.5-38.2c-22-19.4-44.1-38.8-44.1-38.8L458.9,277z"/>
			
				<linearGradient id="SVGID_2_" gradientUnits="userSpaceOnUse" x1="663.5289" y1="302.5853" x2="698.3097" y2="302.5853" gradientTransform="matrix(-0.8345 -0.5511 -0.5511 0.8345 1174.2483 406.2724)">
				<stop  offset="0" style="stop-color:#FDDEDC"/>
				<stop  offset="1" style="stop-color:#FDBCB8"/>
			</linearGradient>
			<path class="st6" d="M438.6,279.6l0-2.2c-4.2-1.4-8.5-1.5-12.8-0.1c-2,0.6-2.6-2.6-0.6-3.2c5.4-1.7,11-1.4,16.2,0.8l17.5,2.1
				l-0.2,6.9c-0.1,2-1,4-2.6,5.2l-5.2,4.3l-2.7-0.1c-0.2,0.1-0.5,0.1-0.8,0c-0.1,0-0.2,0-0.3,0l-8.2-0.3c-2.9,0.4-5.8,1.4-8.5,3
				c-1.9,1-3.3-1.9-1.5-3c3.1-1.8,6.5-2.8,9.9-3.3l0-1.7c-4.6-1.3-9.3-1.2-14,0.3c-2,0.6-2.6-2.6-0.6-3.2c4.8-1.5,9.8-1.7,14.6-0.6
				l0-1.5c-5.3-2-10.8-2.2-16.3-0.4c-2,0.6-2.6-2.6-0.6-3.2C427.3,277.7,433.1,277.7,438.6,279.6z"/>
			<g>
				<path class="st7" d="M564.2,268.4c6.6-6.7,17.7-12.4,27.5-10.6c14.4,2.6,13.7,15.3,9.1,26.3c-2.1,5.1-5.1,9.8-7.8,13.1
					c-1.8,2.1-9.9,12-20,24.2c-10.8-7.1-21.4-14.1-32.2-20.8C547.8,289,555.1,277.7,564.2,268.4z"/>
			</g>
		</g>
		<g>
			<g>
				
					<linearGradient id="SVGID_3_" gradientUnits="userSpaceOnUse" x1="254.777" y1="346.2354" x2="236.2043" y2="394.6367" gradientTransform="matrix(0.9816 0.191 -0.191 0.9816 75.2366 -57.1265)">
					<stop  offset="0" style="stop-color:#FDDEDC"/>
					<stop  offset="1" style="stop-color:#FDBCB8"/>
				</linearGradient>
				<path class="st8" d="M278.3,401.5l-49.6-15c0.3-1.7,0.5-3.4,0.8-5.1c0.6-4.2,1.3-8.5,1.9-12.7c0.9-5.6,1.7-11.1,2.6-16.7
					c0.7-4.5,1.3-8.9,2.1-13.4c0.8-4.5,1.5-9.1,2.1-13.7c0.3-2.3,0.6-4.6,0.8-6.9c0.1-1.2,0.2-2.3,0.3-3.5c0.1-0.9-0.1-1.5-0.4-2.3
					c-1.1-3.4-2.9-6.4-5.7-8.6c-1-0.8-2-1.5-3.2-2c-0.1,0-0.1-0.1-0.2-0.1c-2-0.9-4.3-1.5-6.5-1.5c-2-0.1-4.7,0.1-6.5,1.2
					c-0.8,0.5-1.4,1.3-2.1,1.9c-1.3,1.3-2.5,2.8-3.5,4.3c-2.2,3.4-3.8,7.2-4.5,11.2c-0.4,2.4-0.3,4.7-0.3,7.1
					c0,4.1,0.1,8.1,0.1,12.2c0.1,5.1,0.1,10.3,0.2,15.4c0.1,5.4,0.1,10.8,0.2,16.3c0.1,4.9,0.1,9.8,0.2,14.7c0,3.6,0.1,7.1,0.1,10.7
					c0,1.4,0,2.8,0,4.2c0.7,3.6,65.3,11.5,65.3,11.5L278.3,401.5z"/>
				
					<linearGradient id="SVGID_4_" gradientUnits="userSpaceOnUse" x1="282.4958" y1="426.3151" x2="317.3729" y2="426.3151" gradientTransform="matrix(0.9816 0.191 -0.191 0.9816 75.2366 -57.1265)">
					<stop  offset="0" style="stop-color:#FDDEDC"/>
					<stop  offset="1" style="stop-color:#FDBCB8"/>
				</linearGradient>
				<path class="st9" d="M304.1,426.1c-3-4.8-7.3-8.3-12.5-10.3l1.3-1.6c4,1.5,7.1,4.1,9.5,7.8c1.1,1.7,3.5-0.3,2.5-2
					c-2.9-4.6-7.2-7.8-12.4-9.3l-14.1-9.2l-6,7.6l1.8,9.4l2,1.6c0.1,0.2,0.3,0.4,0.6,0.5c0.1,0,0.1,0.1,0.2,0.1l6.2,4.9
					c1.9,2.1,3.4,4.6,4.4,7.4c0.7,1.9,3.6,0.6,2.9-1.3c-1.2-3.2-3-6.1-5.2-8.5l1.1-1.3c4.2,1.9,7.5,4.8,10.1,8.9
					c1.1,1.7,3.5-0.3,2.5-2c-2.6-4.1-6.2-7.3-10.4-9.4l0.9-1.1c5.2,1.8,9.3,5,12.2,9.7C302.7,429.8,305.1,427.8,304.1,426.1z"/>
			</g>
			<path class="st10" d="M240.7,460.5c4.3,1.6,47.3,100.3,50.1,109c2.9,8.6,22.8,120.9,22.8,120.9l-12-3.2l-29.2-78.6v-34.3
				l-77-90.7L240.7,460.5z"/>
		</g>
		<path class="st11" d="M327.3,704.3l-12.9-11.4l-13.3-3.3L293,702l48.2,16.1c0,0,1.2-1.5-1.5-5.2
			C337,709.1,327.3,704.3,327.3,704.3z"/>
		<linearGradient id="SVGID_5_" gradientUnits="userSpaceOnUse" x1="436.6696" y1="282.5797" x2="458.7778" y2="282.5797">
			<stop  offset="0" style="stop-color:#FDDEDC"/>
			<stop  offset="1" style="stop-color:#FDBCB8"/>
		</linearGradient>
		<path class="st12" d="M458.7,281.6c0,0,0.3,4.7-6.1,4.7c-6.4,0-4.9-1.7-4.9-1.7l-6,0.6l-2.4,3.5c-0.5,0.7-1.4,0.8-2,0.3l0,0
			c-0.5-0.4-0.7-1.2-0.3-1.8l3.7-6l8.7-5.4l9.5,1.1L458.7,281.6z"/>
		<g>
			<g>
				<g>
					<polygon class="st13" points="281.7,708.7 286.8,709.1 305.8,447.5 300.6,447.1 					"/>
					<polygon class="st13" points="470.7,708.7 465.5,709.1 446.6,447.5 451.7,447.1 					"/>
				</g>
				
					<rect x="261.1" y="438.3" transform="matrix(-1 -1.224647e-16 1.224647e-16 -1 752.3566 882.9513)" class="st14" width="230.1" height="6.3"/>
				
					<rect x="282.2" y="444.6" transform="matrix(-1 -1.224647e-16 1.224647e-16 -1 752.3566 895.5947)" class="st15" width="187.9" height="6.3"/>
				<g>
					<polygon class="st15" points="260,729.3 266.3,729.7 289.6,447.6 283.3,447.1 					"/>
					<polygon class="st15" points="492.3,729.3 486,729.7 462.7,447.6 469,447.1 					"/>
				</g>
			</g>
			<g>
				<g>
					<g>
						<g>
							<g>
								
									<linearGradient id="SVGID_6_" gradientUnits="userSpaceOnUse" x1="357.9936" y1="510.6137" x2="208.7427" y2="684.9723" gradientTransform="matrix(0.741 -0.6715 0.6715 0.741 -212.3542 162.1602)">
									<stop  offset="0" style="stop-color:#C01468"/>
									<stop  offset="1" style="stop-color:#CC0A60"/>
								</linearGradient>
								<polygon class="st16" points="410.4,391.4 386.3,412.4 382,438.1 387.2,438.2 404.9,419.7 416.7,415 								"/>
								
									<linearGradient id="SVGID_7_" gradientUnits="userSpaceOnUse" x1="409.2746" y1="554.5133" x2="260.031" y2="728.8634" gradientTransform="matrix(0.741 -0.6715 0.6715 0.741 -212.3542 162.1602)">
									<stop  offset="0" style="stop-color:#C01468"/>
									<stop  offset="1" style="stop-color:#CC0A60"/>
								</linearGradient>
								<polygon class="st17" points="456.8,392 480.4,413.6 484,439.4 478.8,439.3 461.5,420.4 449.9,415.4 								"/>
							</g>
							
								<linearGradient id="SVGID_8_" gradientUnits="userSpaceOnUse" x1="383.5143" y1="540.0672" x2="535.0689" y2="372.8267" gradientTransform="matrix(0.741 -0.6715 0.6715 0.741 -212.3542 162.1602)">
								<stop  offset="0" style="stop-color:#C01468"/>
								<stop  offset="1" style="stop-color:#CC0A60"/>
							</linearGradient>
							<path class="st18" d="M435,282.2c-10.1-0.1-19.2,20.4-24.8,38.6l48.5,0.6C453.7,303.1,445,282.3,435,282.2z"/>
							
								<image style="overflow:visible;" width="247" height="480" xlink:href="82911BE753404BA0.png"  transform="matrix(0.24 0 0 0.24 404.4 320.64)">
							</image>
						</g>
					</g>
				</g>
				<g>
					<g>
						<rect x="430.2" y="361.8" class="st19" width="26" height="19.4"/>
						<rect x="430.2" y="361.8" class="st20" width="24.5" height="19.4"/>
					</g>
					<g>
						<circle class="st21" cx="452.3" cy="367.8" r="0.7"/>
						<circle class="st22" cx="452.3" cy="371.2" r="0.7"/>
						<circle class="st23" cx="452.3" cy="374.6" r="0.7"/>
					</g>
					<g>
						<path class="st24" d="M439.9,381.1v-7.9c0-0.8,0.6-1.4,1.4-1.4h2.3c0.8,0,1.4,0.6,1.4,1.4v7.9"/>
						<path class="st25" d="M436.3,381.1v-7.9c0-0.8,0.6-1.4,1.4-1.4h2.3c0.8,0,1.4,0.6,1.4,1.4v7.9"/>
						<path class="st26" d="M433.2,381.1v-7.9c0-0.8,0.6-1.4,1.4-1.4h2.3c0.8,0,1.4,0.6,1.4,1.4v7.9"/>
					</g>
					<rect x="432.3" y="363.9" class="st27" width="14.3" height="0.5"/>
					<rect x="432.3" y="365.1" class="st27" width="14.3" height="0.5"/>
					<rect x="432.3" y="366.2" class="st27" width="14.3" height="0.5"/>
				</g>
			</g>
			<g>
				<g>
					<path class="st28" d="M387.1,381.9c1.2,1.6,1.7,3.6,1.2,5.7L376.8,435h-42.7L387.1,381.9z"/>
					<path class="st28" d="M264.4,435H331l-3.9,3.9h-66.7C260.5,436.7,262.2,435,264.4,435z"/>
					<path class="st28" d="M376.8,435c0,2.2-1.7,3.9-3.9,3.9h-45.7l3.9-3.9H376.8z"/>
					<path class="st28" d="M260.5,438.9h35.1c2.2,0,3.9-1.7,3.9-3.9h-35.1C262.2,435,260.5,436.7,260.5,438.9z"/>
					<g>
						<path class="st28" d="M299.5,435l12.3-50.6c0.8-3.1,3.5-5.3,6.7-5.3h63.1c2.3,0,4.3,1.1,5.6,2.8L334.1,435H299.5z"/>
					</g>
					<path class="st29" d="M296.2,435h77.3l12.2-49.9c0.7-3-1.6-6-4.7-6h-65.7c-3.2,0-6,2.2-6.7,5.3L296.2,435z"/>
					<linearGradient id="SVGID_9_" gradientUnits="userSpaceOnUse" x1="307.1644" y1="443.5428" x2="375.1946" y2="375.5126">
						<stop  offset="0" style="stop-color:#159FD5"/>
						<stop  offset="0.1635" style="stop-color:#2D8BC6"/>
						<stop  offset="0.5093" style="stop-color:#6B599E"/>
						<stop  offset="1" style="stop-color:#CC0A60"/>
					</linearGradient>
					<path class="st30" d="M379,381.2h-62.5c-3,0-5.7,2-6.4,5l-2,8.1l-1.4,5.8l-4.8,20.1l-3.5,14.6h73.4l0.3-1.2l3.4-14.1l2.7-11.4
						l5.1-21.3C384,383.8,381.9,381.2,379,381.2z"/>
					<polygon class="st31" points="317.1,384.9 312.4,404.4 310.1,414.1 358.5,414.1 365.5,384.9 					"/>
					<polygon class="st31" points="338.6,408.9 335.2,423.3 333.5,430.4 369.2,430.4 374.4,408.9 					"/>
				</g>
				<g>
					<linearGradient id="SVGID_10_" gradientUnits="userSpaceOnUse" x1="375.2627" y1="407.7139" x2="453.4285" y2="407.7139">
						<stop  offset="0" style="stop-color:#159FD5"/>
						<stop  offset="0.1635" style="stop-color:#2D8BC6"/>
						<stop  offset="0.5093" style="stop-color:#6B599E"/>
						<stop  offset="1" style="stop-color:#CC0A60"/>
					</linearGradient>
					<path class="st32" d="M447,435.5h-8.2c-3.5,0-6.4-2.9-6.4-6.4v-13.3c0-2.2-1.8-4-4-4h-6.5c-2.2,0-4,1.8-4,4v11.6
						c0,3.5-2.9,6.4-6.4,6.4h-35c-0.7,0-1.2-0.5-1.2-1.2s0.5-1.2,1.2-1.2h35c2.2,0,4-1.8,4-4v-11.6c0-3.5,2.9-6.4,6.4-6.4h6.5
						c3.5,0,6.4,2.9,6.4,6.4v13.3c0,2.2,1.8,4,4,4h8.2c2.2,0,4-1.8,4-4v-48.1c0-0.7,0.5-1.2,1.2-1.2c0.7,0,1.2,0.5,1.2,1.2v48.1
						C453.4,432.7,450.6,435.5,447,435.5z"/>
				</g>
			</g>
		</g>
		<g>
			<path class="st33" d="M224.3,344.8c6.8-5.8,12.7-12.4,18.6-19c3.5-4,7.1-7.9,10.6-11.9c4.3-4.8,8.7-9.7,11.7-15.4
				c5.1-9.3,6.3-19.9,7.5-30.3c1.4-12.5,2.8-25,4.2-37.6c0.3-2.5,0.5-5.1-0.4-7.4c-0.9-2.3-3.4-4.4-6-4c4.6-3.5,5.1-10.3,2.3-15.2
				c-2.8-4.9-8.1-8.1-13.6-10.2c-17.1-6.8-37.7-5.1-53.2,4.3s-25.7,26.4-26.2,43.7c-0.2,8.2,1.3,17.4-4,23.9
				c-4.8,6-14.5,8.5-16.4,15.8c-1.6,6.4,4,12.6,3.7,19.2c-0.3,7.5-7.9,12.8-11.9,19.3c-6.1,10.1-2.9,23.8,6,31.9
				c8.9,8.1,22.4,10.8,34.6,8.7S215.1,352.6,224.3,344.8z"/>
			<g>
				<g>
					<path class="st34" d="M145.9,712.9v4.5c0,6.4,22.8,11.6,50.9,11.6c28.1,0,50.9-5.2,50.9-11.6v-4.5c0-6.4-22.8-11.6-50.9-11.6
						C168.7,701.3,145.9,706.5,145.9,712.9z"/>
					<linearGradient id="SVGID_11_" gradientUnits="userSpaceOnUse" x1="145.9049" y1="712.7928" x2="211.4133" y2="712.7928">
						<stop  offset="0" style="stop-color:#159FD5"/>
						<stop  offset="1" style="stop-color:#3F7DBA"/>
					</linearGradient>
					<path class="st35" d="M145.9,712.9c0-6.4,22.8-11.6,50.9-11.6c5.1,0,10,0.2,14.6,0.5l-22.5,22.5
						C164.5,723.4,145.9,718.6,145.9,712.9z"/>
					<path class="st7" d="M247.8,712.9c0,6.4-22.8,11.6-50.9,11.6c-2.7,0-5.4,0-8-0.1l22.5-22.5
						C232.4,703.2,247.8,707.6,247.8,712.9z"/>
				</g>
				
					<rect x="194.9" y="483.6" transform="matrix(-1 -1.224647e-16 1.224647e-16 -1 395.0056 1192.9119)" class="st34" width="5.3" height="225.7"/>
				<g>
					<path class="st34" d="M151.6,635.8c0-10.2,23-15.6,45.6-15.6c22.7,0,45.6,5.3,45.6,15.6c0,10.2-23,15.6-45.6,15.6
						C174.6,651.4,151.6,646,151.6,635.8z M156.5,635.8c0,4.4,15.9,10.7,40.8,10.7c24.9,0,40.8-6.4,40.8-10.7S222.2,625,197.3,625
						C172.4,625,156.5,631.4,156.5,635.8z"/>
				</g>
				<g>
					<path class="st7" d="M261.9,481.6v16.1c0,6.4-29.1,11.6-65.1,11.6s-65.1-5.2-65.1-11.6v-16.1H261.9z"/>
					<linearGradient id="SVGID_12_" gradientUnits="userSpaceOnUse" x1="131.7287" y1="481.6231" x2="261.932" y2="481.6231">
						<stop  offset="0" style="stop-color:#159FD5"/>
						<stop  offset="1" style="stop-color:#3F7DBA"/>
					</linearGradient>
					<ellipse class="st36" cx="196.8" cy="481.6" rx="65.1" ry="11.6"/>
				</g>
			</g>
			<g>
				<path class="st37" d="M179.6,439.9c-12.1,0.8-24.6-10-33.1-7.9c-4.9,1.2-7.5,10.4-7.3,14.2c0.4,9.6,1.2,22.4,6.7,29.9
					c15.5,20.7,141.9,36.5,141.9,36.5s-21.8,22-26.7,31.3s-29.2,83.9-29.2,83.9l8.8,7.9c0,0,83.1-134,82.1-139.3
					C321.8,491.2,212.3,437.7,179.6,439.9z"/>
				<path class="st11" d="M245.5,654.5l-5.9-16.2l-10-9.3l-13.2,7l34.6,37.2c0,0,2.4-0.6,1.2-5.3C251,663.3,245.5,654.5,245.5,654.5
					z"/>
			</g>
			<linearGradient id="SVGID_13_" gradientUnits="userSpaceOnUse" x1="195.3703" y1="450.9581" x2="195.3703" y2="277.229">
				<stop  offset="1.762821e-02" style="stop-color:#A52A7A"/>
				<stop  offset="1" style="stop-color:#CC0A60"/>
			</linearGradient>
			<path class="st38" d="M235.6,299.8c-4.9-7.5-6.9-21.2-16.6-22.4c-23.1-2.8-35.9,19.8-38.2,38.9c-1.5,12.5-2.4,25.1-3.6,37.7
				c-0.7,7.6-0.1,18.6-3.9,25.4c-6.7,12.1-23,39.2-32.3,54.6c-3.1,5.2-4.4,11,1.6,11.4l81.8,5.4c0,0,2-33.2,0-51.7
				c-1.4-13,4-21.1,7.8-33.4c1.7-5.7,2.3-8.6,6.5-13.3c4.1-4.5,11.7-9.9,13.2-16.2C255,323,242.8,310.9,235.6,299.8z"/>
			<g>
				<linearGradient id="SVGID_14_" gradientUnits="userSpaceOnUse" x1="204.129" y1="254.4365" x2="259.9564" y2="254.4365">
					<stop  offset="0" style="stop-color:#FDDEDC"/>
					<stop  offset="1" style="stop-color:#FDBCB8"/>
				</linearGradient>
				<path class="st39" d="M256.5,248.6c-2.9-2.4-3.3-6.7-2.5-10.4c0.8-3.7,2.1-5.3,2.6-9c0.5-3.7-2.4-8.7-5.7-10.5
					c0,0-21.3-0.9-25.5,10.3c-2.7,7.1-7.7,12.1-7.7,12.1c0.2-8.9-7.6-6.6-9.5-4.7c-1.9,1.9-2.3,5.2-1,7.5c1.3,2.4,3.9,4.2,6.6,3.9
					l-9.8,34c5.3,3.1,10.8,5.7,16.2,8.5c1-1.2,9.9-18.7,12.2-18c4.6,1.3,9,5.6,13.4,3.7c3.4-1.5,4.2-5.9,4.4-9.6
					c0.2-3.7,0.8-8.1,4.1-9.8c2.1-1.1,5.5-1.5,5.6-3.9C260,250.7,257.9,249.7,256.5,248.6z"/>
			</g>
			<g>
				<linearGradient id="SVGID_15_" gradientUnits="userSpaceOnUse" x1="305.8059" y1="432.3951" x2="305.8059" y2="399.5027">
					<stop  offset="0" style="stop-color:#FDDEDC"/>
					<stop  offset="1" style="stop-color:#FDBCB8"/>
				</linearGradient>
				<path class="st40" d="M320.3,419.3c1.2,1.7,3.6-0.5,2.4-2.2c-3.2-4.6-7.9-7.6-13.3-8.9l-15.1-8.7l-5.8,8.2l2.4,9.6l2.2,1.5
					c0.2,0.2,0.4,0.4,0.6,0.5c0.1,0,0.2,0.1,0.2,0.1l6.7,4.7c2.1,2.1,3.8,4.6,5,7.4c0.9,1.9,3.8,0.4,2.9-1.5
					c-1.4-3.3-3.4-6.1-5.9-8.4l1-1.4c4.4,1.7,8.1,4.6,10.9,8.6c1.2,1.7,3.6-0.5,2.4-2.2c-2.9-4.1-6.8-7.2-11.3-9.1l0.9-1.2
					c5.4,1.5,9.8,4.7,13.2,9.3c1.2,1.7,3.6-0.5,2.4-2.2c-3.4-4.7-8-8.1-13.5-9.9l1.3-1.7C314.3,413.1,317.7,415.7,320.3,419.3z"/>
				<linearGradient id="SVGID_16_" gradientUnits="userSpaceOnUse" x1="185.0122" y1="351.1565" x2="294.3326" y2="351.1565">
					<stop  offset="0" style="stop-color:#FDDEDC"/>
					<stop  offset="1" style="stop-color:#FDBCB8"/>
				</linearGradient>
				<path class="st41" d="M294.3,399.5l-76.5-11.2l1.9-81.9c-2.3-10.7-12.1-20.1-22.3-16l0,0c-8.8,3.5-14.7,17.4-11.5,26.4
					c0,0,8.5,89.8,11.8,94.5c3.3,4.7,91.3-2,91.3-2L294.3,399.5z"/>
			</g>
		</g>
		<g>
			<g>
				<path class="st11" d="M534.7,206.4c-1.7,3.3-6.1,4.9-9.5,3.5c-3.4-1.4-5.4-5.7-4.2-9.2c-4.3,1.1-9.2-1.9-10.3-6.2
					c-1-4.3,2-9.2,6.3-10.2c-4.3-3.9-4.9-11.2-1.3-15.8c3.6-4.6,10.9-5.7,15.7-2.4c-0.1-5.3,3.9-10.5,9.1-11.6s11,1.8,13.2,6.8
					c3.7-3.5,9.6-4.4,14.2-2.3c4.6,2.1,7.7,7.2,7.5,12.3c4.2-0.8,8.8,1.1,11.2,4.7s2.4,8.5,0.1,12.1c3.9,0.7,7,4.3,7.2,8.2
					c0.2,3.9-2.5,7.8-6.3,8.9c2.7,1.7,4,5.2,3.2,8.3c-0.8,3-3.8,5.4-7,5.5c2,2.1,1.2,5.9-1.1,7.7c-2.3,1.9-5.4,2.2-8.4,2.1
					c-2.9-0.1-5.9-0.5-8.8,0.1L534.7,206.4z"/>
				<g>
					<g>
						<path class="st34" d="M558,711.8v4.5c0,6.4,23,11.7,51.3,11.7c28.3,0,51.3-5.2,51.3-11.7v-4.5c0-6.4-23-11.7-51.3-11.7
							C581,700.1,558,705.3,558,711.8z"/>
						<linearGradient id="SVGID_17_" gradientUnits="userSpaceOnUse" x1="557.9981" y1="711.6948" x2="623.9549" y2="711.6948">
							<stop  offset="1.762821e-02" style="stop-color:#A52A7A"/>
							<stop  offset="1" style="stop-color:#CC0A60"/>
						</linearGradient>
						<path class="st42" d="M558,711.8c0-6.4,23-11.7,51.3-11.7c5.1,0,10,0.2,14.7,0.5l-22.7,22.7C576.8,722.4,558,717.6,558,711.8z
							"/>
						<linearGradient id="SVGID_18_" gradientUnits="userSpaceOnUse" x1="601.2722" y1="712.0098" x2="660.5453" y2="712.0098">
							<stop  offset="0" style="stop-color:#921468"/>
							<stop  offset="1" style="stop-color:#AD0A60"/>
						</linearGradient>
						<path class="st43" d="M660.5,711.8c0,6.4-23,11.7-51.3,11.7c-2.7,0-5.4,0-8-0.1l22.7-22.7C645.1,702,660.5,706.5,660.5,711.8z
							"/>
					</g>
					<path class="st34" d="M609.9,708.2L609.9,708.2c1.5,0,2.6-1.2,2.6-2.6V480.9h-5.3v224.6C607.3,707,608.5,708.2,609.9,708.2z"/>
					<g>
						<path class="st34" d="M563.8,634.2c0-10.3,23.1-15.7,45.9-15.7c22.8,0,45.9,5.4,45.9,15.7s-23.1,15.7-45.9,15.7
							C586.9,649.8,563.8,644.5,563.8,634.2z M568.6,634.2c0,4.4,16,10.8,41.1,10.8c25.1,0,41.1-6.4,41.1-10.8
							c0-4.4-16-10.8-41.1-10.8C584.6,623.3,568.6,629.8,568.6,634.2z"/>
					</g>
					<g>
						<linearGradient id="SVGID_19_" gradientUnits="userSpaceOnUse" x1="540.9252" y1="492.8649" x2="677.6195" y2="492.8649">
							<stop  offset="0" style="stop-color:#921468"/>
							<stop  offset="1" style="stop-color:#AD0A60"/>
						</linearGradient>
						<path class="st44" d="M677.6,478.9v16.2c0,6.4-30.6,11.7-68.3,11.7c-37.7,0-68.3-5.2-68.3-11.7v-16.2H677.6z"/>
						<linearGradient id="SVGID_20_" gradientUnits="userSpaceOnUse" x1="540.9252" y1="478.942" x2="677.6195" y2="478.942">
							<stop  offset="0" style="stop-color:#C01468"/>
							<stop  offset="1" style="stop-color:#CC0A60"/>
						</linearGradient>
						<ellipse class="st45" cx="609.3" cy="478.9" rx="68.3" ry="11.7"/>
					</g>
				</g>
				<g>
					<g>
						<path class="st10" d="M562.8,415.4c12.3,0.8,52.1-4.4,60.7-2.3c5,1.2,7.6,10.6,7.4,14.4c-0.4,9.8-1.2,22.7-6.8,30.3
							c-15.7,21-135.9,35.9-135.9,35.9l23,22.5l25.8,95.3l-8.9,8c0,0-84.9-133.9-83.2-141.1c1.7-7.2,72.7-38.7,118.3-52.6
							L562.8,415.4z"/>
						<path class="st11" d="M523.2,638.6l5.9-16.4l10.2-9.4l13.4,7.1l-35.1,37.7c0,0-1.2-1.2-1.2-5.4
							C516.4,648.1,523.2,638.6,523.2,638.6z"/>
					</g>
					<g>
						<path class="st37" d="M590.1,422.1c12.3,0.8,52.1-4.4,60.7-2.3c5,1.2,7.6,10.6,7.4,14.4c-0.4,9.8-1.2,22.7-6.8,30.3
							c-15.7,21-135.9,35.9-135.9,35.9s20.5,16.9,23,22.5c2.5,5.6,25.8,95.3,25.8,95.3l-8.9,8c0,0-84.5-134.9-83.2-141.1
							c1.3-6.2,72.7-38.7,118.3-52.6L590.1,422.1z"/>
						<path class="st11" d="M550.5,645.3l5.9-16.4l10.2-9.4l13.4,7.1l-35.1,37.7c0,0-3,3.7-1.2-5.4
							C545.5,649.8,550.5,645.3,550.5,645.3z"/>
					</g>
					<g>
						<g>
							
								<linearGradient id="SVGID_21_" gradientUnits="userSpaceOnUse" x1="494.5846" y1="284.3224" x2="494.5846" y2="428.5374" gradientTransform="matrix(-1 0 0 1 1099.3867 0)">
								<stop  offset="0" style="stop-color:#159FD5"/>
								<stop  offset="1" style="stop-color:#3F7DBA"/>
							</linearGradient>
							<path class="st46" d="M579.4,241c11.3,0.5,21.5,6.8,28.7,14.7c7.1,8,11.6,17.6,15.7,27.1c14.3,32.9,40.9,140.4,34.2,151.1
								l-96.3-8.7c-2.1-12.9-4.9-82.1-9.3-120.2c-2-17.7-4.9-37.3,6.8-51.6L579.4,241z"/>
							<g>
								<g>
									
										<linearGradient id="SVGID_22_" gradientUnits="userSpaceOnUse" x1="511.8449" y1="228.9019" x2="571.427" y2="228.9019" gradientTransform="matrix(-1 0 0 1 1099.3867 0)">
										<stop  offset="0" style="stop-color:#FDDEDC"/>
										<stop  offset="1" style="stop-color:#FDBCB8"/>
									</linearGradient>
									<path class="st47" d="M533.9,194.1c-2.8,1.6-3.7,5.3-3.3,8.5c0.4,3.2,1.9,6.2,2.6,9.4c0.7,3.2,0.3,6.9-2.2,9
										c-1.2,1-3,1.8-3,3.4c0,2.1,3,2.4,4.8,3.4c2.8,1.5,3.3,5.3,3.5,8.5c0.2,3.2,0.9,7,3.8,8.3c3.8,1.7,7.6-2.1,11.6-3.2
										c3.7-1,7.7,0.5,10.7,2.9c3,2.4,10.8,16.6,12.8,19.8c6.7-0.8,12.3-10.5,12.4-20.5l-19.8-23.3c2.3,0.3,4.6-1.3,5.7-3.3
										c1.1-2.1,0.8-4.8-0.8-6.5c-1.6-1.7-8.3-3.7-8.2,4c0,0-4.6-4.3-6.6-10.5C553.5,190.5,533.9,194.1,533.9,194.1z"/>
								</g>
							</g>
							<g>
								<path class="st7" d="M580.8,287.8c1.8-9.2,7.9-20.1,17.1-24c13.4-5.7,19.9,5.2,22.1,16.9c1,5.4,1.2,11,0.7,15.2
									c-0.3,3-1.9,18.5-3.9,36.7c-12.4-2.9-25.1-5-37.8-6.8C578.5,312.9,578.5,300.1,580.8,287.8z"/>
								
									<linearGradient id="SVGID_23_" gradientUnits="userSpaceOnUse" x1="482.5563" y1="361.2802" x2="606.1624" y2="361.2802" gradientTransform="matrix(-1 0 0 1 1099.3867 0)">
									<stop  offset="0" style="stop-color:#FDDEDC"/>
									<stop  offset="1" style="stop-color:#FDBCB8"/>
								</linearGradient>
								<path class="st48" d="M499.8,368.8c0,0,27.7-0.6,51.6-1.2c15.9-0.4,29.1-0.7,29.1-0.7c0.4-13.4-0.9-27.3-1.5-41.1
									c12.7,1.7,25.3,3.8,37.8,6.8c-2.6,23.8-1.8,59.4-8.1,63.2c-6.3,3.7-28.6-4-57.3-8c-29-4-58.2-8.1-58.2-8.1L499.8,368.8z"/>
								
									<linearGradient id="SVGID_24_" gradientUnits="userSpaceOnUse" x1="615.5613" y1="396.1645" x2="615.5613" y2="368.7577" gradientTransform="matrix(-1 0 0 1 1099.3867 0)">
									<stop  offset="0" style="stop-color:#FDDEDC"/>
									<stop  offset="1" style="stop-color:#FDBCB8"/>
								</linearGradient>
								<path class="st49" d="M465.6,382.9c4.7-3.6,10.1-5.5,15.9-5.6l-0.8-2c-4.4,0.1-8.5,1.5-12.1,4.3c-1.7,1.3-3.4-1.6-1.7-2.8
									c4.5-3.5,10-5.1,15.7-4.7c0,0,0.1,0,0.1,0l17.1-3.3l2.9,8.9l-5.1,8.6l-2.5,0.8c-0.2,0.1-0.5,0.2-0.8,0.3c-0.1,0-0.2,0-0.3,0
									l-7.8,2.6c-2.6,1.4-5,3.3-7,5.7c-1.4,1.6-3.8-0.7-2.4-2.3c2.4-2.7,5.1-4.9,8.2-6.4l-0.6-1.6c-4.7,0.4-9.1,2-13.1,5.1
									c-1.7,1.3-3.4-1.6-1.7-2.8c4-3.1,8.6-4.9,13.5-5.5l-0.5-1.4c-5.7-0.1-10.9,1.6-15.5,5.1
									C465.6,387.1,463.9,384.2,465.6,382.9z"/>
							</g>
						</g>
					</g>
				</g>
			</g>
			<linearGradient id="SVGID_25_" gradientUnits="userSpaceOnUse" x1="436.6696" y1="282.5797" x2="458.7778" y2="282.5797">
				<stop  offset="0" style="stop-color:#FDDEDC"/>
				<stop  offset="1" style="stop-color:#FDBCB8"/>
			</linearGradient>
			<path class="st50" d="M458.7,281.6c0,0,0.3,4.7-6.1,4.7c-6.4,0-4.9-1.7-4.9-1.7l-6,0.6l-2.4,3.5c-0.5,0.7-1.4,0.8-2,0.3l0,0
				c-0.5-0.4-0.7-1.2-0.3-1.8l3.7-6l8.7-5.4l9.5,1.1L458.7,281.6z"/>
		</g>
	</g>
</g>
</svg>
