<?xml version="1.0" encoding="utf-8"?>
<!-- Generator: Adobe Illustrator 21.0.0, SVG Export Plug-In . SVG Version: 6.00 Build 0)  -->
<svg version="1.1" id="Layer_1" xmlns="http://www.w3.org/2000/svg" xmlns:xlink="http://www.w3.org/1999/xlink" x="0px" y="0px"
	 viewBox="0 0 175.6 175.2" style="enable-background:new 0 0 175.6 175.2;" xml:space="preserve">
<style type="text/css">
	.st0{fill:none;stroke:#050505;stroke-width:9;stroke-miterlimit:10;}
	.st1{fill:none;stroke:#FFFFFF;stroke-width:9;stroke-miterlimit:10;}
</style>
<g>
	<path class="st0" d="M36.8,101.8c0-9.2-0.4-18.5,0.1-27.6c1.1-22.3,17.8-41,39.7-45.2c23.2-4.4,45,8,52.9,30
		c9.9,27.4-8.9,57.7-37.9,61c-2.8,0.3-5.5,0.5-8.3,0.4c-2.5-0.1-3.5,1.1-3.5,3.4c0,3.6,0.3,7.1-0.6,10.6
		c-2.6,10.6-12.7,17.9-23,16.6c-11.3-1.3-19.4-10.1-19.6-21.4c-0.1-9.3,0-18.6,0-27.9C36.7,101.8,36.7,101.8,36.8,101.8z"/>
	<path class="st1" d="M43.7,97.7c0-9.2-0.4-18.5,0.1-27.6c1.1-22.3,17.8-41,39.7-45.2c23.2-4.4,45,8,52.9,30
		c9.9,27.4-8.9,57.7-37.9,61c-2.8,0.3-5.5,0.5-8.3,0.4c-2.5-0.1-3.5,1.1-3.5,3.4c0,3.6,0.3,7.1-0.6,10.6
		c-2.6,10.6-12.7,17.9-23,16.6c-11.3-1.3-19.4-10.1-19.6-21.4c-0.1-9.3,0-18.6,0-27.9C43.6,97.7,43.6,97.7,43.7,97.7z"/>
</g>
</svg>
