<?xml version="1.0" encoding="utf-8"?>
<!-- Generator: Adobe Illustrator 21.0.0, SVG Export Plug-In . SVG Version: 6.00 Build 0)  -->
<svg version="1.1" id="Layer_1" xmlns="http://www.w3.org/2000/svg" xmlns:xlink="http://www.w3.org/1999/xlink" x="0px" y="0px"
	 viewBox="0 0 175.6 175.2" style="enable-background:new 0 0 175.6 175.2;" xml:space="preserve">
<style type="text/css">
	.st0{fill:url(#SVGID_1_);}
	.st1{fill:url(#SVGID_2_);}
	.st2{fill:url(#SVGID_3_);}
	.st3{fill:url(#SVGID_4_);}
	.st4{fill:url(#SVGID_5_);}
</style>
<g>
	<linearGradient id="SVGID_1_" gradientUnits="userSpaceOnUse" x1="132.5162" y1="24.1757" x2="24.9615" y2="131.7303">
		<stop  offset="0.2416" style="stop-color:#F07854"/>
		<stop  offset="0.7471" style="stop-color:#F5A658"/>
	</linearGradient>
	<path class="st0" d="M37.7,30.9c0,0,0.2-10.3,10.4-10.3s73.1,0,73.1,0s16.7-0.8,16.7,16.7s0,68.4,0,68.4s-0.2,15.1-18.5,15.1
		s-48.3,0-48.3,0v17.5c0,0-0.5,16.3-16.3,16.3s-16.7-16.7-16.7-16.7L37.7,30.9z"/>
	<g>
		<g>
			<linearGradient id="SVGID_2_" gradientUnits="userSpaceOnUse" x1="148.719" y1="66.4801" x2="174.225" y2="66.4801">
				<stop  offset="0.2416" style="stop-color:#F07854"/>
				<stop  offset="0.7471" style="stop-color:#F5A658"/>
			</linearGradient>
			<path class="st1" d="M159,55.4l13.6,13.6c2.2,2.2,2.2,5.7,0,7.9l-0.8,0.8c-2.2,2.2-5.7,2.2-7.9,0L150.3,64
				c-2.2-2.2-2.2-5.7,0-7.9l0.8-0.8C153.3,53.2,156.8,53.2,159,55.4z"/>
			<linearGradient id="SVGID_3_" gradientUnits="userSpaceOnUse" x1="148.719" y1="79.7444" x2="174.225" y2="79.7444">
				<stop  offset="0.2416" style="stop-color:#F07854"/>
				<stop  offset="0.7471" style="stop-color:#F5A658"/>
			</linearGradient>
			<path class="st2" d="M159,90.9l13.6-13.6c2.2-2.2,2.2-5.7,0-7.9l-0.8-0.8c-2.2-2.2-5.7-2.2-7.9,0l-13.6,13.6
				c-2.2,2.2-2.2,5.7,0,7.9l0.8,0.8C153.3,93,156.8,93,159,90.9z"/>
		</g>
		<g>
			
				<linearGradient id="SVGID_4_" gradientUnits="userSpaceOnUse" x1="136.2708" y1="66.4801" x2="161.7768" y2="66.4801" gradientTransform="matrix(-1 0 0 1 163.1035 0)">
				<stop  offset="0.2416" style="stop-color:#F07854"/>
				<stop  offset="0.7471" style="stop-color:#F5A658"/>
			</linearGradient>
			<path class="st3" d="M16.5,55.4L3,68.9c-2.2,2.2-2.2,5.7,0,7.9l0.8,0.8c2.2,2.2,5.7,2.2,7.9,0L25.2,64c2.2-2.2,2.2-5.7,0-7.9
				l-0.8-0.8C22.3,53.2,18.7,53.2,16.5,55.4z"/>
			
				<linearGradient id="SVGID_5_" gradientUnits="userSpaceOnUse" x1="136.2708" y1="79.7444" x2="161.7768" y2="79.7444" gradientTransform="matrix(-1 0 0 1 163.1035 0)">
				<stop  offset="0.2416" style="stop-color:#F07854"/>
				<stop  offset="0.7471" style="stop-color:#F5A658"/>
			</linearGradient>
			<path class="st4" d="M16.5,90.9L3,77.3c-2.2-2.2-2.2-5.7,0-7.9l0.8-0.8c2.2-2.2,5.7-2.2,7.9,0l13.6,13.6c2.2,2.2,2.2,5.7,0,7.9
				l-0.8,0.8C22.3,93,18.7,93,16.5,90.9z"/>
		</g>
	</g>
</g>
</svg>
