<?xml version="1.0" encoding="utf-8"?>
<!-- Generator: Adobe Illustrator 21.0.0, SVG Export Plug-In . SVG Version: 6.00 Build 0)  -->
<svg version="1.1" id="Layer_1" xmlns="http://www.w3.org/2000/svg" xmlns:xlink="http://www.w3.org/1999/xlink" x="0px" y="0px"
	 viewBox="0 0 175.6 175.2" style="enable-background:new 0 0 175.6 175.2;" xml:space="preserve">
<style type="text/css">
	.st0{fill:none;stroke:url(#SVGID_1_);stroke-width:15;stroke-miterlimit:10;}
</style>
<g>
	
		<linearGradient id="SVGID_1_" gradientUnits="userSpaceOnUse" x1="26.98" y1="-277.9529" x2="127.0047" y2="-177.9282" gradientTransform="matrix(1 0 0 -1 0 -144)">
		<stop  offset="0" style="stop-color:#159FD5"/>
		<stop  offset="1" style="stop-color:#CC0A60"/>
	</linearGradient>
	<path class="st0" d="M40.2,99.8c0-9.2-0.4-18.5,0.1-27.6C41.4,49.9,58.1,31.2,80,27c23.2-4.4,45,8,52.9,30
		c9.9,27.4-8.9,57.7-37.9,61c-2.8,0.3-5.5,0.5-8.3,0.4c-2.5-0.1-3.5,1.1-3.5,3.4c0,3.6,0.3,7.1-0.6,10.6C80,143,69.9,150.3,59.6,149
		c-11.3-1.3-19.4-10.1-19.6-21.4c-0.1-9.3,0-18.6,0-27.9C40.1,99.8,40.1,99.8,40.2,99.8z"/>
</g>
</svg>
