<?xml version="1.0" encoding="utf-8"?>
<!-- Generator: Adobe Illustrator 21.0.0, SVG Export Plug-In . SVG Version: 6.00 Build 0)  -->
<svg version="1.1" id="Layer_1" xmlns="http://www.w3.org/2000/svg" xmlns:xlink="http://www.w3.org/1999/xlink" x="0px" y="0px"
	 viewBox="0 0 175.6 175.2" style="enable-background:new 0 0 175.6 175.2;" xml:space="preserve">
<style type="text/css">
	.st0{fill:#353535;}
	.st1{fill:#FFFFFF;}
	.st2{fill:url(#SVGID_1_);}
	.st3{fill:url(#SVGID_2_);}
	.st4{fill:url(#SVGID_3_);}
	.st5{opacity:0.1;}
	.st6{fill:url(#SVGID_4_);}
	.st7{fill:url(#SVGID_5_);}
	.st8{fill:url(#SVGID_6_);}
	.st9{fill:#FFFFFF;stroke:url(#SVGID_7_);stroke-width:3;stroke-miterlimit:10;}
	.st10{fill:url(#SVGID_8_);}
	.st11{fill:url(#SVGID_9_);}
	.st12{fill:url(#SVGID_10_);}
	.st13{fill:url(#SVGID_11_);}
	.st14{fill:url(#SVGID_12_);}
	.st15{fill:url(#SVGID_13_);}
	.st16{fill:url(#SVGID_14_);}
	.st17{fill:url(#SVGID_15_);}
	.st18{fill:url(#SVGID_16_);}
	.st19{fill:#FFFFFF;stroke:url(#SVGID_17_);stroke-width:3;stroke-miterlimit:10;}
	.st20{fill:url(#SVGID_18_);}
	.st21{fill:url(#SVGID_19_);}
	.st22{fill:url(#SVGID_20_);}
</style>
<rect x="-469.9" y="0.9" class="st0" width="176.1" height="173.8"/>
<rect x="208.5" y="0.9" class="st1" width="176.1" height="173.8"/>
<rect x="208.5" y="-200.4" class="st1" width="176.1" height="173.8"/>
<rect x="-0.5" y="-200.4" class="st1" width="176.1" height="173.8"/>
<g id="J2GTKo.tif">
	<g>
		<linearGradient id="SVGID_1_" gradientUnits="userSpaceOnUse" x1="90.85" y1="154.6" x2="90.85" y2="20.8265">
			<stop  offset="0.2416" style="stop-color:#F07854"/>
			<stop  offset="0.7471" style="stop-color:#F5A658"/>
		</linearGradient>
		<path class="st2" d="M37.8,99.1c0.2-8-0.4-17.9,0.3-27.8c1.7-23.7,18.5-43.4,41.6-48.9c29-6.9,56.6,10.3,63.1,39.3
			c6.5,28.8-14.1,57.9-43.5,61.6c-0.4,0.1-0.9,0.1-1.3,0.2c-2,0.5-4.9-0.7-6,0.7c-1.1,1.3-0.4,4-0.6,6.1c-1.5,13.1-11.4,23-24,24.2
			C54.5,155.7,43,148,39,135.5c-0.9-2.8-1.2-5.6-1.2-8.5C37.8,118.4,37.8,109.7,37.8,99.1z M43.3,99.9c0,0-0.1,0-0.1,0
			c0,9.3-0.1,18.6,0,27.9c0.1,11.3,8.3,20.1,19.6,21.4c10.4,1.2,20.4-6.1,23-16.6c0.9-3.5,0.5-7.1,0.6-10.6c0-2.4,1-3.5,3.5-3.4
			c2.8,0.1,5.5-0.1,8.3-0.4c28.9-3.4,47.7-33.6,37.9-61c-7.9-22-29.7-34.4-52.9-30c-21.9,4.1-38.6,22.8-39.7,45.2
			C42.9,81.4,43.3,90.7,43.3,99.9z"/>
		<linearGradient id="SVGID_2_" gradientUnits="userSpaceOnUse" x1="90.8788" y1="149.3207" x2="90.8788" y2="26.1854">
			<stop  offset="0.2416" style="stop-color:#F07854"/>
			<stop  offset="0.7471" style="stop-color:#F5A658"/>
		</linearGradient>
		<path class="st3" d="M43.3,99.9c0-9.2-0.4-18.5,0.1-27.6c1.1-22.3,17.8-41,39.7-45.2c23.2-4.4,45,8,52.9,30
			c9.9,27.4-8.9,57.7-37.9,61c-2.8,0.3-5.5,0.5-8.3,0.4c-2.5-0.1-3.5,1.1-3.5,3.4c0,3.6,0.3,7.1-0.6,10.6
			c-2.6,10.6-12.7,17.9-23,16.6c-11.3-1.3-19.4-10.1-19.6-21.4c-0.1-9.3,0-18.6,0-27.9C43.2,99.9,43.2,99.9,43.3,99.9z"/>
	</g>
</g>
<linearGradient id="SVGID_3_" gradientUnits="userSpaceOnUse" x1="90.85" y1="154.6" x2="90.85" y2="20.8265">
	<stop  offset="0.2416" style="stop-color:#F07854"/>
	<stop  offset="0.7471" style="stop-color:#F5A658"/>
</linearGradient>
<path class="st4" d="M37.8,99.1c0.2-8-0.4-17.9,0.3-27.8c1.7-23.7,18.5-43.4,41.6-48.9c29-6.9,56.6,10.3,63.1,39.3
	c6.5,28.8-14.1,57.9-43.5,61.6c-0.4,0.1-0.9,0.1-1.3,0.2c-2,0.5-4.9-0.7-6,0.7c-1.1,1.3-0.4,4-0.6,6.1c-1.5,13.1-11.4,23-24,24.2
	C54.5,155.7,43,148,39,135.5c-0.9-2.8-1.2-5.6-1.2-8.5C37.8,118.4,37.8,109.7,37.8,99.1z M43.3,99.9c0,0-0.1,0-0.1,0
	c0,9.3-0.1,18.6,0,27.9c0.1,11.3,8.3,20.1,19.6,21.4c10.4,1.2,20.4-6.1,23-16.6c0.9-3.5,0.5-7.1,0.6-10.6c0-2.4,1-3.5,3.5-3.4
	c2.8,0.1,5.5-0.1,8.3-0.4c28.9-3.4,47.7-33.6,37.9-61c-7.9-22-29.7-34.4-52.9-30c-21.9,4.1-38.6,22.8-39.7,45.2
	C42.9,81.4,43.3,90.7,43.3,99.9z"/>
<path class="st5" d="M37.8,99.1c0.2-8-0.4-17.9,0.3-27.8c1.7-23.7,18.5-43.4,41.6-48.9c29-6.9,56.6,10.3,63.1,39.3
	c6.5,28.8-14.1,57.9-43.5,61.6c-0.4,0.1-0.9,0.1-1.3,0.2c-2,0.5-4.9-0.7-6,0.7c-1.1,1.3-0.4,4-0.6,6.1c-1.5,13.1-11.4,23-24,24.2
	C54.5,155.7,43,148,39,135.5c-0.9-2.8-1.2-5.6-1.2-8.5C37.8,118.4,37.8,109.7,37.8,99.1z M43.3,99.9c0,0-0.1,0-0.1,0
	c0,9.3-0.1,18.6,0,27.9c0.1,11.3,8.3,20.1,19.6,21.4c10.4,1.2,20.4-6.1,23-16.6c0.9-3.5,0.5-7.1,0.6-10.6c0-2.4,1-3.5,3.5-3.4
	c2.8,0.1,5.5-0.1,8.3-0.4c28.9-3.4,47.7-33.6,37.9-61c-7.9-22-29.7-34.4-52.9-30c-21.9,4.1-38.6,22.8-39.7,45.2
	C42.9,81.4,43.3,90.7,43.3,99.9z"/>
<linearGradient id="SVGID_4_" gradientUnits="userSpaceOnUse" x1="293.7394" y1="-167.6667" x2="293.7394" y2="-44.5313">
	<stop  offset="0" style="stop-color:#5D5CF5"/>
	<stop  offset="1" style="stop-color:#2D3BBE"/>
</linearGradient>
<path class="st6" d="M246.1-94c0-9.2-0.4-18.5,0.1-27.6c1.1-22.3,17.8-41,39.7-45.2c23.2-4.4,45,8,52.9,30
	c9.9,27.4-8.9,57.7-37.9,61c-2.8,0.3-5.5,0.5-8.3,0.4c-2.5-0.1-3.5,1.1-3.5,3.4c0,3.6,0.3,7.1-0.6,10.6c-2.6,10.6-12.7,17.9-23,16.6
	C254.3-46,246.2-54.8,246-66.1c-0.1-9.3,0-18.6,0-27.9C246.1-94,246.1-94,246.1-94z"/>
<linearGradient id="SVGID_5_" gradientUnits="userSpaceOnUse" x1="299.4061" y1="-173" x2="299.4061" y2="-49.8646">
	<stop  offset="2.654247e-02" style="stop-color:#FD988A"/>
	<stop  offset="1" style="stop-color:#FD5F49"/>
</linearGradient>
<path class="st7" d="M251.8-99.3c0-9.2-0.4-18.5,0.1-27.6c1.1-22.3,17.8-41,39.7-45.2c23.2-4.4,45,8,52.9,30
	c9.9,27.4-8.9,57.7-37.9,61c-2.8,0.3-5.5,0.5-8.3,0.4c-2.5-0.1-3.5,1.1-3.5,3.4c0,3.6,0.3,7.1-0.6,10.6c-2.6,10.6-12.7,17.9-23,16.6
	c-11.3-1.3-19.4-10.1-19.6-21.4c-0.1-9.3,0-18.6,0-27.9C251.7-99.3,251.8-99.3,251.8-99.3z"/>
<linearGradient id="SVGID_6_" gradientUnits="userSpaceOnUse" x1="235.3829" y1="125.7794" x2="324.8253" y2="36.3371">
	<stop  offset="0" style="stop-color:#FD5FFF"/>
	<stop  offset="1" style="stop-color:#53C6FA"/>
</linearGradient>
<path class="st8" d="M243.4,96.9c0-9.2-0.4-18.5,0.1-27.6c1.1-22.3,17.8-41,39.7-45.2c23.2-4.4,45,8,52.9,30
	c9.9,27.4-8.9,57.7-37.9,61c-2.8,0.3-5.5,0.5-8.3,0.4c-2.5-0.1-3.5,1.1-3.5,3.4c0,3.6,0.3,7.1-0.6,10.6c-2.6,10.6-12.7,17.9-23,16.6
	c-11.3-1.3-19.4-10.1-19.6-21.4c-0.1-9.3,0-18.6,0-27.9C243.3,96.9,243.3,96.9,243.4,96.9z"/>
<linearGradient id="SVGID_7_" gradientUnits="userSpaceOnUse" x1="239.8278" y1="132.4637" x2="331.3915" y2="40.9">
	<stop  offset="0" style="stop-color:#FD5FFF"/>
	<stop  offset="1" style="stop-color:#53C6FA"/>
</linearGradient>
<path class="st9" d="M248.9,102.5c0-9.2-0.4-18.5,0.1-27.6c1.1-22.3,17.8-41,39.7-45.2c23.2-4.4,45,8,52.9,30
	c9.9,27.4-8.9,57.7-37.9,61c-2.8,0.3-5.5,0.5-8.3,0.4c-2.5-0.1-3.5,1.1-3.5,3.4c0,3.6,0.3,7.1-0.6,10.6c-2.6,10.6-12.7,17.9-23,16.6
	c-11.3-1.3-19.4-10.1-19.6-21.4c-0.1-9.3,0-18.6,0-27.9C248.8,102.5,248.9,102.5,248.9,102.5z"/>
<path class="st5" d="M37.8,99.1c0.2-8-0.4-17.9,0.3-27.8c1.7-23.7,18.5-43.4,41.6-48.9c29-6.9,56.6,10.3,63.1,39.3
	c6.5,28.8-14.1,57.9-43.5,61.6c-0.4,0.1-0.9,0.1-1.3,0.2c-2,0.5-4.9-0.7-6,0.7c-1.1,1.3-0.4,4-0.6,6.1c-1.5,13.1-11.4,23-24,24.2
	C54.5,155.7,43,148,39,135.5c-0.9-2.8-1.2-5.6-1.2-8.5C37.8,118.4,37.8,109.7,37.8,99.1z M43.3,99.9c0,0-0.1,0-0.1,0
	c0,9.3-0.1,18.6,0,27.9c0.1,11.3,8.3,20.1,19.6,21.4c10.4,1.2,20.4-6.1,23-16.6c0.9-3.5,0.5-7.1,0.6-10.6c0-2.4,1-3.5,3.5-3.4
	c2.8,0.1,5.5-0.1,8.3-0.4c28.9-3.4,47.7-33.6,37.9-61c-7.9-22-29.7-34.4-52.9-30c-21.9,4.1-38.6,22.8-39.7,45.2
	C42.9,81.4,43.3,90.7,43.3,99.9z"/>
<g id="J2GTKo.tif_1_">
	<g>
		<linearGradient id="SVGID_8_" gradientUnits="userSpaceOnUse" x1="90.85" y1="-49.4" x2="90.85" y2="-183.1735">
			<stop  offset="0.2416" style="stop-color:#F07854"/>
			<stop  offset="0.7471" style="stop-color:#F5A658"/>
		</linearGradient>
		<path class="st10" d="M37.8-104.9c0.2-8-0.4-17.9,0.3-27.8c1.7-23.7,18.5-43.4,41.6-48.9c29-6.9,56.6,10.3,63.1,39.3
			c6.5,28.8-14.1,57.9-43.5,61.6c-0.4,0.1-0.9,0.1-1.3,0.2c-2,0.5-4.9-0.7-6,0.7c-1.1,1.3-0.4,4-0.6,6.1c-1.5,13.1-11.4,23-24,24.2
			C54.5-48.3,43-56,39-68.5c-0.9-2.8-1.2-5.6-1.2-8.5C37.8-85.6,37.8-94.3,37.8-104.9z M43.3-104.1c0,0-0.1,0-0.1,0
			c0,9.3-0.1,18.6,0,27.9c0.1,11.3,8.3,20.1,19.6,21.4c10.4,1.2,20.4-6.1,23-16.6c0.9-3.5,0.5-7.1,0.6-10.6c0-2.4,1-3.5,3.5-3.4
			c2.8,0.1,5.5-0.1,8.3-0.4c28.9-3.4,47.7-33.6,37.9-61c-7.9-22-29.7-34.4-52.9-30c-21.9,4.1-38.6,22.8-39.7,45.2
			C42.9-122.6,43.3-113.3,43.3-104.1z"/>
		<linearGradient id="SVGID_9_" gradientUnits="userSpaceOnUse" x1="90.8788" y1="-54.6793" x2="90.8788" y2="-177.8146">
			<stop  offset="0.2416" style="stop-color:#F07854"/>
			<stop  offset="0.7471" style="stop-color:#F5A658"/>
		</linearGradient>
		<path class="st11" d="M43.3-104.1c0-9.2-0.4-18.5,0.1-27.6c1.1-22.3,17.8-41,39.7-45.2c23.2-4.4,45,8,52.9,30
			c9.9,27.4-8.9,57.7-37.9,61c-2.8,0.3-5.5,0.5-8.3,0.4c-2.5-0.1-3.5,1.1-3.5,3.4c0,3.6,0.3,7.1-0.6,10.6
			c-2.6,10.6-12.7,17.9-23,16.6c-11.3-1.3-19.4-10.1-19.6-21.4c-0.1-9.3,0-18.6,0-27.9C43.2-104.1,43.2-104.1,43.3-104.1z"/>
	</g>
</g>
<linearGradient id="SVGID_10_" gradientUnits="userSpaceOnUse" x1="90.85" y1="-49.4" x2="90.85" y2="-183.1735">
	<stop  offset="0.2416" style="stop-color:#F07854"/>
	<stop  offset="0.7471" style="stop-color:#F5A658"/>
</linearGradient>
<path class="st12" d="M37.8-104.9c0.2-8-0.4-17.9,0.3-27.8c1.7-23.7,18.5-43.4,41.6-48.9c29-6.9,56.6,10.3,63.1,39.3
	c6.5,28.8-14.1,57.9-43.5,61.6c-0.4,0.1-0.9,0.1-1.3,0.2c-2,0.5-4.9-0.7-6,0.7c-1.1,1.3-0.4,4-0.6,6.1c-1.5,13.1-11.4,23-24,24.2
	C54.5-48.3,43-56,39-68.5c-0.9-2.8-1.2-5.6-1.2-8.5C37.8-85.6,37.8-94.3,37.8-104.9z M43.3-104.1c0,0-0.1,0-0.1,0
	c0,9.3-0.1,18.6,0,27.9c0.1,11.3,8.3,20.1,19.6,21.4c10.4,1.2,20.4-6.1,23-16.6c0.9-3.5,0.5-7.1,0.6-10.6c0-2.4,1-3.5,3.5-3.4
	c2.8,0.1,5.5-0.1,8.3-0.4c28.9-3.4,47.7-33.6,37.9-61c-7.9-22-29.7-34.4-52.9-30c-21.9,4.1-38.6,22.8-39.7,45.2
	C42.9-122.6,43.3-113.3,43.3-104.1z"/>
<path class="st5" d="M37.8-104.9c0.2-8-0.4-17.9,0.3-27.8c1.7-23.7,18.5-43.4,41.6-48.9c29-6.9,56.6,10.3,63.1,39.3
	c6.5,28.8-14.1,57.9-43.5,61.6c-0.4,0.1-0.9,0.1-1.3,0.2c-2,0.5-4.9-0.7-6,0.7c-1.1,1.3-0.4,4-0.6,6.1c-1.5,13.1-11.4,23-24,24.2
	C54.5-48.3,43-56,39-68.5c-0.9-2.8-1.2-5.6-1.2-8.5C37.8-85.6,37.8-94.3,37.8-104.9z M43.3-104.1c0,0-0.1,0-0.1,0
	c0,9.3-0.1,18.6,0,27.9c0.1,11.3,8.3,20.1,19.6,21.4c10.4,1.2,20.4-6.1,23-16.6c0.9-3.5,0.5-7.1,0.6-10.6c0-2.4,1-3.5,3.5-3.4
	c2.8,0.1,5.5-0.1,8.3-0.4c28.9-3.4,47.7-33.6,37.9-61c-7.9-22-29.7-34.4-52.9-30c-21.9,4.1-38.6,22.8-39.7,45.2
	C42.9-122.6,43.3-113.3,43.3-104.1z"/>
<path class="st0" d="M41.9-102.1c0.2-8-0.4-17.9,0.3-27.8c1.7-23.7,18.5-43.4,41.6-48.9c29-6.9,56.6,10.3,63.1,39.3
	c6.5,28.8-14.1,57.9-43.5,61.6c-0.4,0.1-0.9,0.1-1.3,0.2c-2,0.5-4.9-0.7-6,0.7c-1.1,1.3-0.4,4-0.6,6.1c-1.5,13.1-11.4,23-24,24.2
	c-12.9,1.2-24.5-6.5-28.4-18.9c-0.9-2.8-1.2-5.6-1.2-8.5C41.9-82.8,41.9-91.5,41.9-102.1z M47.4-101.3c0,0-0.1,0-0.1,0
	c0,9.3-0.1,18.6,0,27.9c0.1,11.3,8.3,20.1,19.6,21.4c10.4,1.2,20.4-6.1,23-16.6c0.9-3.5,0.5-7.1,0.6-10.6c0-2.4,1-3.5,3.5-3.4
	c2.8,0.1,5.5-0.1,8.3-0.4c28.9-3.4,47.7-33.6,37.9-61c-7.9-22-29.7-34.4-52.9-30C65.3-170,48.6-151.3,47.5-129
	C47.1-119.8,47.4-110.6,47.4-101.3z"/>
<rect x="-260.9" y="0.9" class="st0" width="176.1" height="173.8"/>
<rect x="-260.9" y="-200.4" class="st0" width="176.1" height="173.8"/>
<rect x="-469.9" y="-200.4" class="st0" width="176.1" height="173.8"/>
<g id="J2GTKo.tif_3_">
	<g>
		<linearGradient id="SVGID_11_" gradientUnits="userSpaceOnUse" x1="-378.6265" y1="154.6" x2="-378.6265" y2="20.8265">
			<stop  offset="0.2416" style="stop-color:#F07854"/>
			<stop  offset="0.7471" style="stop-color:#F5A658"/>
		</linearGradient>
		<path class="st13" d="M-431.7,99.1c0.2-8-0.4-17.9,0.3-27.8c1.7-23.7,18.5-43.4,41.6-48.9c29-6.9,56.6,10.3,63.1,39.3
			c6.5,28.8-14.1,57.9-43.5,61.6c-0.4,0.1-0.9,0.1-1.3,0.2c-2,0.5-4.9-0.7-6,0.7c-1.1,1.3-0.4,4-0.6,6.1c-1.5,13.1-11.4,23-24,24.2
			c-12.9,1.2-24.5-6.5-28.4-18.9c-0.9-2.8-1.2-5.6-1.2-8.5C-431.7,118.4-431.7,109.7-431.7,99.1z M-426.2,99.9c0,0-0.1,0-0.1,0
			c0,9.3-0.1,18.6,0,27.9c0.1,11.3,8.3,20.1,19.6,21.4c10.4,1.2,20.4-6.1,23-16.6c0.9-3.5,0.5-7.1,0.6-10.6c0-2.4,1-3.5,3.5-3.4
			c2.8,0.1,5.5-0.1,8.3-0.4c28.9-3.4,47.7-33.6,37.9-61c-7.9-22-29.7-34.4-52.9-30c-21.9,4.1-38.6,22.8-39.7,45.2
			C-426.6,81.4-426.2,90.7-426.2,99.9z"/>
		<linearGradient id="SVGID_12_" gradientUnits="userSpaceOnUse" x1="-378.5977" y1="149.3207" x2="-378.5977" y2="26.1854">
			<stop  offset="0.2416" style="stop-color:#F07854"/>
			<stop  offset="0.7471" style="stop-color:#F5A658"/>
		</linearGradient>
		<path class="st14" d="M-426.2,99.9c0-9.2-0.4-18.5,0.1-27.6c1.1-22.3,17.8-41,39.7-45.2c23.2-4.4,45,8,52.9,30
			c9.9,27.4-8.9,57.7-37.9,61c-2.8,0.3-5.5,0.5-8.3,0.4c-2.5-0.1-3.5,1.1-3.5,3.4c0,3.6,0.3,7.1-0.6,10.6
			c-2.6,10.6-12.7,17.9-23,16.6c-11.3-1.3-19.4-10.1-19.6-21.4c-0.1-9.3,0-18.6,0-27.9C-426.3,99.9-426.2,99.9-426.2,99.9z"/>
	</g>
</g>
<linearGradient id="SVGID_13_" gradientUnits="userSpaceOnUse" x1="-378.6265" y1="154.6" x2="-378.6265" y2="20.8265">
	<stop  offset="0.2416" style="stop-color:#F07854"/>
	<stop  offset="0.7471" style="stop-color:#F5A658"/>
</linearGradient>
<path class="st15" d="M-431.7,99.1c0.2-8-0.4-17.9,0.3-27.8c1.7-23.7,18.5-43.4,41.6-48.9c29-6.9,56.6,10.3,63.1,39.3
	c6.5,28.8-14.1,57.9-43.5,61.6c-0.4,0.1-0.9,0.1-1.3,0.2c-2,0.5-4.9-0.7-6,0.7c-1.1,1.3-0.4,4-0.6,6.1c-1.5,13.1-11.4,23-24,24.2
	c-12.9,1.2-24.5-6.5-28.4-18.9c-0.9-2.8-1.2-5.6-1.2-8.5C-431.7,118.4-431.7,109.7-431.7,99.1z M-426.2,99.9c0,0-0.1,0-0.1,0
	c0,9.3-0.1,18.6,0,27.9c0.1,11.3,8.3,20.1,19.6,21.4c10.4,1.2,20.4-6.1,23-16.6c0.9-3.5,0.5-7.1,0.6-10.6c0-2.4,1-3.5,3.5-3.4
	c2.8,0.1,5.5-0.1,8.3-0.4c28.9-3.4,47.7-33.6,37.9-61c-7.9-22-29.7-34.4-52.9-30c-21.9,4.1-38.6,22.8-39.7,45.2
	C-426.6,81.4-426.2,90.7-426.2,99.9z"/>
<path class="st5" d="M-431.7,99.1c0.2-8-0.4-17.9,0.3-27.8c1.7-23.7,18.5-43.4,41.6-48.9c29-6.9,56.6,10.3,63.1,39.3
	c6.5,28.8-14.1,57.9-43.5,61.6c-0.4,0.1-0.9,0.1-1.3,0.2c-2,0.5-4.9-0.7-6,0.7c-1.1,1.3-0.4,4-0.6,6.1c-1.5,13.1-11.4,23-24,24.2
	c-12.9,1.2-24.5-6.5-28.4-18.9c-0.9-2.8-1.2-5.6-1.2-8.5C-431.7,118.4-431.7,109.7-431.7,99.1z M-426.2,99.9c0,0-0.1,0-0.1,0
	c0,9.3-0.1,18.6,0,27.9c0.1,11.3,8.3,20.1,19.6,21.4c10.4,1.2,20.4-6.1,23-16.6c0.9-3.5,0.5-7.1,0.6-10.6c0-2.4,1-3.5,3.5-3.4
	c2.8,0.1,5.5-0.1,8.3-0.4c28.9-3.4,47.7-33.6,37.9-61c-7.9-22-29.7-34.4-52.9-30c-21.9,4.1-38.6,22.8-39.7,45.2
	C-426.6,81.4-426.2,90.7-426.2,99.9z"/>
<linearGradient id="SVGID_14_" gradientUnits="userSpaceOnUse" x1="-175.7371" y1="-167.6667" x2="-175.7371" y2="-44.5313">
	<stop  offset="0" style="stop-color:#5D5CF5"/>
	<stop  offset="1" style="stop-color:#2D3BBE"/>
</linearGradient>
<path class="st16" d="M-223.3-94c0-9.2-0.4-18.5,0.1-27.6c1.1-22.3,17.8-41,39.7-45.2c23.2-4.4,45,8,52.9,30
	c9.9,27.4-8.9,57.7-37.9,61c-2.8,0.3-5.5,0.5-8.3,0.4c-2.5-0.1-3.5,1.1-3.5,3.4c0,3.6,0.3,7.1-0.6,10.6c-2.6,10.6-12.7,17.9-23,16.6
	c-11.3-1.3-19.4-10.1-19.6-21.4c-0.1-9.3,0-18.6,0-27.9C-223.4-94-223.4-94-223.3-94z"/>
<linearGradient id="SVGID_15_" gradientUnits="userSpaceOnUse" x1="-170.0704" y1="-173" x2="-170.0704" y2="-49.8646">
	<stop  offset="2.654247e-02" style="stop-color:#FD988A"/>
	<stop  offset="1" style="stop-color:#FD5F49"/>
</linearGradient>
<path class="st17" d="M-217.7-99.3c0-9.2-0.4-18.5,0.1-27.6c1.1-22.3,17.8-41,39.7-45.2c23.2-4.4,45,8,52.9,30
	c9.9,27.4-8.9,57.7-37.9,61c-2.8,0.3-5.5,0.5-8.3,0.4c-2.5-0.1-3.5,1.1-3.5,3.4c0,3.6,0.3,7.1-0.6,10.6c-2.6,10.6-12.7,17.9-23,16.6
	c-11.3-1.3-19.4-10.1-19.6-21.4c-0.1-9.3,0-18.6,0-27.9C-217.8-99.3-217.7-99.3-217.7-99.3z"/>
<linearGradient id="SVGID_16_" gradientUnits="userSpaceOnUse" x1="-234.0936" y1="125.7794" x2="-144.6512" y2="36.3371">
	<stop  offset="0" style="stop-color:#FD5FFF"/>
	<stop  offset="1" style="stop-color:#53C6FA"/>
</linearGradient>
<path class="st18" d="M-226.1,96.9c0-9.2-0.4-18.5,0.1-27.6c1.1-22.3,17.8-41,39.7-45.2c23.2-4.4,45,8,52.9,30
	c9.9,27.4-8.9,57.7-37.9,61c-2.8,0.3-5.5,0.5-8.3,0.4c-2.5-0.1-3.5,1.1-3.5,3.4c0,3.6,0.3,7.1-0.6,10.6c-2.6,10.6-12.7,17.9-23,16.6
	c-11.3-1.3-19.4-10.1-19.6-21.4c-0.1-9.3,0-18.6,0-27.9C-226.2,96.9-226.1,96.9-226.1,96.9z"/>
<linearGradient id="SVGID_17_" gradientUnits="userSpaceOnUse" x1="-229.6487" y1="132.4637" x2="-138.085" y2="40.9">
	<stop  offset="0" style="stop-color:#FD5FFF"/>
	<stop  offset="1" style="stop-color:#53C6FA"/>
</linearGradient>
<path class="st19" d="M-220.6,102.5c0-9.2-0.4-18.5,0.1-27.6c1.1-22.3,17.8-41,39.7-45.2c23.2-4.4,45,8,52.9,30
	c9.9,27.4-8.9,57.7-37.9,61c-2.8,0.3-5.5,0.5-8.3,0.4c-2.5-0.1-3.5,1.1-3.5,3.4c0,3.6,0.3,7.1-0.6,10.6c-2.6,10.6-12.7,17.9-23,16.6
	c-11.3-1.3-19.4-10.1-19.6-21.4c-0.1-9.3,0-18.6,0-27.9C-220.7,102.5-220.6,102.5-220.6,102.5z"/>
<path class="st5" d="M-431.7,99.1c0.2-8-0.4-17.9,0.3-27.8c1.7-23.7,18.5-43.4,41.6-48.9c29-6.9,56.6,10.3,63.1,39.3
	c6.5,28.8-14.1,57.9-43.5,61.6c-0.4,0.1-0.9,0.1-1.3,0.2c-2,0.5-4.9-0.7-6,0.7c-1.1,1.3-0.4,4-0.6,6.1c-1.5,13.1-11.4,23-24,24.2
	c-12.9,1.2-24.5-6.5-28.4-18.9c-0.9-2.8-1.2-5.6-1.2-8.5C-431.7,118.4-431.7,109.7-431.7,99.1z M-426.2,99.9c0,0-0.1,0-0.1,0
	c0,9.3-0.1,18.6,0,27.9c0.1,11.3,8.3,20.1,19.6,21.4c10.4,1.2,20.4-6.1,23-16.6c0.9-3.5,0.5-7.1,0.6-10.6c0-2.4,1-3.5,3.5-3.4
	c2.8,0.1,5.5-0.1,8.3-0.4c28.9-3.4,47.7-33.6,37.9-61c-7.9-22-29.7-34.4-52.9-30c-21.9,4.1-38.6,22.8-39.7,45.2
	C-426.6,81.4-426.2,90.7-426.2,99.9z"/>
<g id="J2GTKo.tif_2_">
	<g>
		<linearGradient id="SVGID_18_" gradientUnits="userSpaceOnUse" x1="-378.6265" y1="-49.4" x2="-378.6265" y2="-183.1735">
			<stop  offset="0.2416" style="stop-color:#F07854"/>
			<stop  offset="0.7471" style="stop-color:#F5A658"/>
		</linearGradient>
		<path class="st20" d="M-431.7-104.9c0.2-8-0.4-17.9,0.3-27.8c1.7-23.7,18.5-43.4,41.6-48.9c29-6.9,56.6,10.3,63.1,39.3
			c6.5,28.8-14.1,57.9-43.5,61.6c-0.4,0.1-0.9,0.1-1.3,0.2c-2,0.5-4.9-0.7-6,0.7c-1.1,1.3-0.4,4-0.6,6.1c-1.5,13.1-11.4,23-24,24.2
			c-12.9,1.2-24.5-6.5-28.4-18.9c-0.9-2.8-1.2-5.6-1.2-8.5C-431.7-85.6-431.7-94.3-431.7-104.9z M-426.2-104.1c0,0-0.1,0-0.1,0
			c0,9.3-0.1,18.6,0,27.9c0.1,11.3,8.3,20.1,19.6,21.4c10.4,1.2,20.4-6.1,23-16.6c0.9-3.5,0.5-7.1,0.6-10.6c0-2.4,1-3.5,3.5-3.4
			c2.8,0.1,5.5-0.1,8.3-0.4c28.9-3.4,47.7-33.6,37.9-61c-7.9-22-29.7-34.4-52.9-30c-21.9,4.1-38.6,22.8-39.7,45.2
			C-426.6-122.6-426.2-113.3-426.2-104.1z"/>
		<linearGradient id="SVGID_19_" gradientUnits="userSpaceOnUse" x1="-378.5977" y1="-54.6793" x2="-378.5977" y2="-177.8146">
			<stop  offset="0.2416" style="stop-color:#F07854"/>
			<stop  offset="0.7471" style="stop-color:#F5A658"/>
		</linearGradient>
		<path class="st21" d="M-426.2-104.1c0-9.2-0.4-18.5,0.1-27.6c1.1-22.3,17.8-41,39.7-45.2c23.2-4.4,45,8,52.9,30
			c9.9,27.4-8.9,57.7-37.9,61c-2.8,0.3-5.5,0.5-8.3,0.4c-2.5-0.1-3.5,1.1-3.5,3.4c0,3.6,0.3,7.1-0.6,10.6
			c-2.6,10.6-12.7,17.9-23,16.6c-11.3-1.3-19.4-10.1-19.6-21.4c-0.1-9.3,0-18.6,0-27.9C-426.3-104.1-426.2-104.1-426.2-104.1z"/>
	</g>
</g>
<linearGradient id="SVGID_20_" gradientUnits="userSpaceOnUse" x1="-378.6265" y1="-49.4" x2="-378.6265" y2="-183.1735">
	<stop  offset="0.2416" style="stop-color:#F07854"/>
	<stop  offset="0.7471" style="stop-color:#F5A658"/>
</linearGradient>
<path class="st22" d="M-431.7-104.9c0.2-8-0.4-17.9,0.3-27.8c1.7-23.7,18.5-43.4,41.6-48.9c29-6.9,56.6,10.3,63.1,39.3
	c6.5,28.8-14.1,57.9-43.5,61.6c-0.4,0.1-0.9,0.1-1.3,0.2c-2,0.5-4.9-0.7-6,0.7c-1.1,1.3-0.4,4-0.6,6.1c-1.5,13.1-11.4,23-24,24.2
	c-12.9,1.2-24.5-6.5-28.4-18.9c-0.9-2.8-1.2-5.6-1.2-8.5C-431.7-85.6-431.7-94.3-431.7-104.9z M-426.2-104.1c0,0-0.1,0-0.1,0
	c0,9.3-0.1,18.6,0,27.9c0.1,11.3,8.3,20.1,19.6,21.4c10.4,1.2,20.4-6.1,23-16.6c0.9-3.5,0.5-7.1,0.6-10.6c0-2.4,1-3.5,3.5-3.4
	c2.8,0.1,5.5-0.1,8.3-0.4c28.9-3.4,47.7-33.6,37.9-61c-7.9-22-29.7-34.4-52.9-30c-21.9,4.1-38.6,22.8-39.7,45.2
	C-426.6-122.6-426.2-113.3-426.2-104.1z"/>
<path class="st5" d="M-431.7-104.9c0.2-8-0.4-17.9,0.3-27.8c1.7-23.7,18.5-43.4,41.6-48.9c29-6.9,56.6,10.3,63.1,39.3
	c6.5,28.8-14.1,57.9-43.5,61.6c-0.4,0.1-0.9,0.1-1.3,0.2c-2,0.5-4.9-0.7-6,0.7c-1.1,1.3-0.4,4-0.6,6.1c-1.5,13.1-11.4,23-24,24.2
	c-12.9,1.2-24.5-6.5-28.4-18.9c-0.9-2.8-1.2-5.6-1.2-8.5C-431.7-85.6-431.7-94.3-431.7-104.9z M-426.2-104.1c0,0-0.1,0-0.1,0
	c0,9.3-0.1,18.6,0,27.9c0.1,11.3,8.3,20.1,19.6,21.4c10.4,1.2,20.4-6.1,23-16.6c0.9-3.5,0.5-7.1,0.6-10.6c0-2.4,1-3.5,3.5-3.4
	c2.8,0.1,5.5-0.1,8.3-0.4c28.9-3.4,47.7-33.6,37.9-61c-7.9-22-29.7-34.4-52.9-30c-21.9,4.1-38.6,22.8-39.7,45.2
	C-426.6-122.6-426.2-113.3-426.2-104.1z"/>
<path class="st1" d="M-427.5-102.1c0.2-8-0.4-17.9,0.3-27.8c1.7-23.7,18.5-43.4,41.6-48.9c29-6.9,56.6,10.3,63.1,39.3
	c6.5,28.8-14.1,57.9-43.5,61.6c-0.4,0.1-0.9,0.1-1.3,0.2c-2,0.5-4.9-0.7-6,0.7c-1.1,1.3-0.4,4-0.6,6.1c-1.5,13.1-11.4,23-24,24.2
	c-12.9,1.2-24.5-6.5-28.4-18.9c-0.9-2.8-1.2-5.6-1.2-8.5C-427.5-82.8-427.5-91.5-427.5-102.1z M-422-101.3c0,0-0.1,0-0.1,0
	c0,9.3-0.1,18.6,0,27.9c0.1,11.3,8.3,20.1,19.6,21.4c10.4,1.2,20.4-6.1,23-16.6c0.9-3.5,0.5-7.1,0.6-10.6c0-2.4,1-3.5,3.5-3.4
	c2.8,0.1,5.5-0.1,8.3-0.4c28.9-3.4,47.7-33.6,37.9-61c-7.9-22-29.7-34.4-52.9-30c-21.9,4.1-38.6,22.8-39.7,45.2
	C-422.4-119.8-422-110.6-422-101.3z"/>
</svg>
