<?xml version="1.0" encoding="utf-8"?>
<!-- Generator: Adobe Illustrator 21.0.0, SVG Export Plug-In . SVG Version: 6.00 Build 0)  -->
<svg version="1.1" id="Layer_1" xmlns="http://www.w3.org/2000/svg" xmlns:xlink="http://www.w3.org/1999/xlink" x="0px" y="0px"
	 viewBox="0 0 175.6 179.3" style="enable-background:new 0 0 175.6 179.3;" xml:space="preserve">
<style type="text/css">
	.st0{fill:none;stroke:#FFFFFF;stroke-width:24;stroke-miterlimit:10;}
	.st1{fill:#FFFFFF;}
	.st2{fill:url(#SVGID_1_);}
	.st3{fill:none;stroke:url(#SVGID_2_);stroke-width:10;stroke-miterlimit:10;}
</style>
<path class="st0" d="M29.5,104.6c0-11.3-0.5-22.7,0.1-33.8C31,43.4,51.5,20.5,78.3,15.4c28.4-5.4,55.1,9.8,64.8,36.7
	c12.1,33.6-10.9,70.7-46.4,74.7c-3.4,0.4-6.7,0.6-10.2,0.5c-3.1-0.1-4.3,1.3-4.3,4.2c0,4.4,0.4,8.7-0.7,13
	c-3.2,13-15.6,21.9-28.2,20.3c-13.8-1.6-23.8-12.4-24-26.2c-0.1-11.4,0-22.8,0-34.2C29.4,104.6,29.4,104.6,29.5,104.6z"/>
<g>
	<path class="st1" d="M29.5,104.6c0-11.3-0.5-22.7,0.1-33.8C31,43.4,51.5,20.5,78.3,15.4c28.4-5.4,55.1,9.8,64.8,36.7
		c12.1,33.6-10.9,70.7-46.4,74.7c-3.4,0.4-6.7,0.6-10.2,0.5c-3.1-0.1-4.3,1.3-4.3,4.2c0,4.4,0.4,8.7-0.7,13
		c-3.2,13-15.6,21.9-28.2,20.3c-13.8-1.6-23.8-12.4-24-26.2c-0.1-11.4,0-22.8,0-34.2C29.4,104.6,29.4,104.6,29.5,104.6z"/>
	<linearGradient id="SVGID_1_" gradientUnits="userSpaceOnUse" x1="19.8015" y1="139.9454" x2="129.3234" y2="30.4235">
		<stop  offset="0" style="stop-color:#159FD5"/>
		<stop  offset="0.1635" style="stop-color:#2D8BC6"/>
		<stop  offset="0.5093" style="stop-color:#6B599E"/>
		<stop  offset="1" style="stop-color:#CC0A60"/>
	</linearGradient>
	<path class="st2" d="M29.5,104.6c0-11.3-0.5-22.7,0.1-33.8C31,43.4,51.5,20.5,78.3,15.4c28.4-5.4,55.1,9.8,64.8,36.7
		c12.1,33.6-10.9,70.7-46.4,74.7c-3.4,0.4-6.7,0.6-10.2,0.5c-3.1-0.1-4.3,1.3-4.3,4.2c0,4.4,0.4,8.7-0.7,13
		c-3.2,13-15.6,21.9-28.2,20.3c-13.8-1.6-23.8-12.4-24-26.2c-0.1-11.4,0-22.8,0-34.2C29.4,104.6,29.4,104.6,29.5,104.6z"/>
	
		<linearGradient id="SVGID_2_" gradientUnits="userSpaceOnUse" x1="16.266" y1="465.481" x2="132.859" y2="348.888" gradientTransform="matrix(1 0 0 1 0 -322)">
		<stop  offset="0" style="stop-color:#159FD5"/>
		<stop  offset="0.1635" style="stop-color:#2D8BC6"/>
		<stop  offset="0.5093" style="stop-color:#6B599E"/>
		<stop  offset="1" style="stop-color:#CC0A60"/>
	</linearGradient>
	<path class="st3" d="M29.5,104.6c0-11.3-0.5-22.7,0.1-33.8C31,43.4,51.5,20.5,78.3,15.4c28.4-5.4,55.1,9.8,64.8,36.7
		c12.1,33.6-10.9,70.7-46.4,74.7c-3.4,0.4-6.7,0.6-10.2,0.5c-3.1-0.1-4.3,1.3-4.3,4.2c0,4.4,0.4,8.7-0.7,13
		c-3.2,13-15.6,21.9-28.2,20.3c-13.8-1.6-23.8-12.4-24-26.2c-0.1-11.4,0-22.8,0-34.2C29.4,104.6,29.4,104.6,29.5,104.6z"/>
</g>
</svg>
