<?xml version="1.0" standalone="no"?>
<!DOCTYPE svg PUBLIC "-//W3C//DTD SVG 20010904//EN"
 "http://www.w3.org/TR/2001/REC-SVG-20010904/DTD/svg10.dtd">
<svg version="1.0" xmlns="http://www.w3.org/2000/svg"
 width="704.000000pt" height="704.000000pt" viewBox="0 0 704.000000 704.000000"
 preserveAspectRatio="xMidYMid meet">
<metadata>
Created by potrace 1.11, written by Peter Selinger 2001-2013
</metadata>
<g transform="translate(0.000000,704.000000) scale(0.100000,-0.100000)"
fill="#000000" stroke="none">
<path d="M3538 6905 c-2 -2 -40 -6 -83 -9 -143 -9 -294 -25 -306 -32 -3 -1
-27 -6 -54 -10 -27 -3 -91 -17 -144 -30 -53 -13 -106 -27 -117 -29 -43 -10
-258 -87 -295 -106 -22 -11 -39 -17 -39 -15 0 9 -315 -154 -318 -165 -2 -5 -8
-9 -13 -9 -24 0 -329 -215 -329 -232 0 -4 -5 -8 -10 -8 -13 0 -25 -11 -175
-158 -146 -142 -200 -203 -297 -336 -21 -28 -41 -55 -45 -61 -7 -9 -41 -61
-112 -175 -40 -64 -155 -293 -166 -330 -1 -3 -9 -22 -18 -44 -9 -21 -17 -40
-17 -42 0 -1 -4 -13 -9 -26 -5 -13 -9 -26 -10 -31 0 -4 -8 -24 -16 -45 -22
-52 -80 -270 -90 -337 -3 -16 -7 -41 -10 -55 -3 -14 -11 -62 -17 -107 -8 -59
-15 -80 -23 -73 -8 7 -11 -383 -10 -1493 1 -826 3 -1504 4 -1507 1 -3 4 -27 6
-55 2 -27 7 -61 10 -75 4 -14 9 -36 12 -50 57 -286 232 -584 454 -771 28 -24
57 -48 63 -54 7 -5 19 -14 28 -20 9 -5 37 -25 63 -43 59 -41 250 -134 330
-160 52 -17 74 -24 130 -38 31 -7 75 -15 115 -20 25 -4 64 -10 87 -14 23 -4
93 -6 155 -5 103 3 146 7 218 21 14 2 36 6 50 9 22 4 75 16 90 20 3 1 16 6 30
12 14 6 47 18 74 27 98 33 267 129 372 211 59 45 214 201 214 214 0 6 4 11 9
11 16 0 128 173 179 276 45 90 101 240 108 289 2 11 8 40 14 65 15 58 18 89
25 235 4 66 7 121 8 121 1 1 45 5 97 9 154 10 268 23 279 29 3 2 26 7 51 10
25 3 60 10 79 16 18 5 36 9 40 8 3 -1 24 4 46 10 22 6 42 11 45 11 3 0 19 5
35 11 17 7 37 13 45 15 8 2 38 11 65 20 28 10 55 18 60 19 6 2 28 10 50 20 22
10 62 27 90 38 68 27 249 120 253 130 2 4 9 8 16 8 11 0 274 173 286 189 3 3
25 22 50 41 82 64 205 182 306 295 60 67 96 112 192 240 59 80 224 368 237
415 1 3 13 31 28 64 15 32 27 60 27 62 0 1 4 13 9 26 5 13 9 26 10 31 0 4 8
21 16 37 8 16 15 31 14 32 -2 2 7 32 19 68 30 96 54 191 72 285 17 90 20 110
25 150 3 22 8 63 12 90 14 109 6 505 -12 595 -3 14 -7 43 -10 65 -2 22 -7 51
-10 65 -3 14 -10 45 -15 70 -5 25 -12 55 -14 68 -3 13 -10 37 -15 55 -6 18
-22 68 -35 112 -13 44 -30 94 -37 110 -7 17 -13 33 -14 38 -2 4 -4 9 -5 12 -1
3 -3 8 -5 13 -12 43 -97 222 -159 335 -46 84 -176 281 -187 285 -5 2 -9 10 -9
18 0 8 -4 14 -8 14 -5 0 -20 15 -33 33 -63 88 -220 254 -329 347 -29 25 -58
51 -66 58 -7 6 -17 12 -23 12 -6 0 -11 4 -11 8 0 5 -32 31 -71 58 -39 27 -76
54 -83 60 -12 12 -95 61 -164 99 -20 11 -39 23 -42 26 -8 8 -225 112 -260 124
-3 1 -18 7 -35 14 -16 7 -34 14 -40 15 -5 2 -17 6 -25 9 -36 16 -205 67 -220
67 -9 0 -20 3 -24 7 -3 4 -17 8 -29 10 -12 1 -40 7 -62 13 -122 30 -259 47
-455 55 -80 3 -150 8 -157 10 -6 2 -13 2 -15 0z"/>
</g>
</svg>
