<?xml version="1.0" standalone="no"?>
<!DOCTYPE svg PUBLIC "-//W3C//DTD SVG 20010904//EN"
 "http://www.w3.org/TR/2001/REC-SVG-20010904/DTD/svg10.dtd">
<svg version="1.0" xmlns="http://www.w3.org/2000/svg"
 width="704.000000pt" height="704.000000pt" viewBox="0 0 704.000000 704.000000"
 preserveAspectRatio="xMidYMid meet">
<metadata>
Created by potrace 1.11, written by Peter Selinger 2001-2013
</metadata>
<g transform="translate(0.000000,704.000000) scale(0.100000,-0.100000)"
fill="#000000" stroke="none">
<path d="M1844 6194 c-34 -6 -69 -14 -80 -19 -10 -5 -21 -9 -24 -10 -54 -19
-131 -94 -168 -163 -63 -120 -61 -88 -57 -1162 2 -536 4 -977 5 -980 2 -3 1
-9 0 -15 -3 -13 -2 -109 2 -157 2 -21 1 -38 -2 -38 -7 0 -3 -87 5 -99 3 -5 1
-12 -4 -16 -5 -3 -7 -15 -5 -28 9 -37 10 -81 2 -104 -5 -14 -3 -23 3 -23 6 0
6 -6 0 -18 -5 -10 -6 -24 -1 -31 4 -8 4 -27 0 -42 -5 -16 -5 -31 -2 -33 4 -2
7 -28 6 -58 -1 -29 -2 -71 -3 -93 -4 -126 9 -1644 13 -1665 5 -22 19 -86 21
-100 9 -54 90 -225 122 -260 13 -14 23 -28 23 -32 0 -15 93 -94 153 -131 214
-131 556 -116 741 33 104 84 191 221 225 355 7 28 16 59 19 70 3 11 8 195 9
410 2 214 6 391 8 394 3 2 469 5 1037 6 748 2 1048 5 1088 14 30 6 62 13 70
15 19 4 45 13 95 34 21 10 41 16 42 14 2 -1 9 2 16 8 6 6 32 23 56 39 93 61
174 160 219 268 53 125 51 66 51 1629 0 800 -4 1456 -8 1458 -3 3 -8 19 -9 36
-1 18 -11 58 -22 89 -11 31 -21 61 -23 66 -4 19 -77 124 -109 158 -77 80 -193
142 -328 174 -57 13 -267 16 -1615 17 -1045 1 -1530 -2 -1571 -10z"/>
<path d="M818 4874 c-2 -1 -16 -4 -33 -7 -16 -2 -43 -9 -60 -16 -48 -19 -622
-597 -647 -651 -28 -58 -29 -150 -3 -205 12 -25 124 -146 305 -328 298 -302
322 -324 367 -335 50 -12 147 -6 178 10 40 21 112 92 132 132 22 41 23 153 3
192 -19 38 -6 23 -223 242 l-188 189 181 183 c100 101 192 197 205 214 22 30
37 75 40 125 6 75 -66 185 -148 228 -30 15 -103 34 -109 27z"/>
<path d="M6180 4868 c-61 -10 -88 -25 -137 -75 -58 -58 -76 -98 -77 -163 -1
-106 1 -108 223 -333 102 -103 188 -192 190 -198 1 -6 -84 -97 -190 -204 -215
-216 -235 -246 -226 -341 6 -65 25 -100 83 -158 35 -34 63 -51 103 -63 71 -21
96 -19 164 10 54 23 629 599 652 653 24 54 23 149 0 199 -12 25 -126 146 -305
325 -157 157 -297 295 -310 307 -37 32 -116 51 -170 41z"/>
</g>
</svg>
