<?xml version="1.0" standalone="no"?>
<!DOCTYPE svg PUBLIC "-//W3C//DTD SVG 20010904//EN"
 "http://www.w3.org/TR/2001/REC-SVG-20010904/DTD/svg10.dtd">
<svg version="1.0" xmlns="http://www.w3.org/2000/svg"
 width="700.000000pt" height="700.000000pt" viewBox="0 0 700.000000 700.000000"
 preserveAspectRatio="xMidYMid meet">
<metadata>
Created by potrace 1.11, written by Peter Selinger 2001-2013
</metadata>
<g transform="translate(0.000000,700.000000) scale(0.100000,-0.100000)"
fill="#000000" stroke="none">
<path d="M3305 6919 c-652 -66 -1247 -349 -1710 -814 -148 -148 -228 -247
-355 -437 -190 -285 -329 -616 -395 -944 -62 -305 -72 -590 -73 -2049 -1 -999
7 -1365 33 -1485 23 -106 78 -266 119 -347 219 -436 639 -715 1151 -764 382
-37 771 111 1064 404 281 282 421 636 421 1061 l0 92 163 13 c286 21 468 55
697 131 386 127 726 336 1021 630 414 411 674 930 766 1527 24 155 24 557 0
708 -51 320 -128 557 -274 847 -361 718 -1034 1229 -1823 1387 -236 47 -572
64 -805 40z m530 -580 c539 -62 1038 -345 1377 -779 189 -243 338 -568 403
-880 33 -154 45 -458 26 -617 -39 -313 -156 -639 -321 -893 -249 -381 -618
-679 -1021 -825 -229 -82 -409 -114 -724 -125 -132 -5 -258 -14 -280 -21 -165
-48 -280 -182 -305 -354 -5 -38 -10 -157 -10 -263 0 -217 -12 -301 -62 -421
-97 -233 -319 -430 -554 -492 -97 -25 -248 -27 -351 -5 -320 69 -552 285 -639
596 -17 61 -18 141 -20 1400 -3 1336 2 1631 32 1829 68 462 294 896 640 1231
137 133 248 219 400 311 430 262 908 366 1409 308z"/>
</g>
</svg>
